<svg xmlns="http://www.w3.org/2000/svg" xmlns:xlink="http://www.w3.org/1999/xlink" viewBox="0 0 80.92 40.46"><defs><style>.cls-1{isolation:isolate;}.cls-2{fill:url(#radial-gradient);}.cls-3{fill:#6c1011;mix-blend-mode:multiply;}.cls-4{fill:url(#linear-gradient);}.cls-5{fill:#fff;}.cls-6{fill:#eebb31;}</style><radialGradient id="radial-gradient" cx="20.23" cy="20.23" r="20.23" gradientUnits="userSpaceOnUse"><stop offset="0" stop-color="#f2cb72"/><stop offset="1" stop-color="#efbc32"/></radialGradient><linearGradient id="linear-gradient" x1="-131.86" y1="-250.74" x2="-172.32" y2="-250.74" gradientTransform="translate(212.78 270.97)" gradientUnits="userSpaceOnUse"><stop offset="0.5" stop-color="#6b113d"/><stop offset="1" stop-color="#490624"/></linearGradient></defs><title>67</title><g class="cls-1"><g id="Warstwa_1" data-name="Warstwa 1"><rect class="cls-2" width="40.46" height="40.46"/><path class="cls-3" d="M88.61,18.28a5.83,5.83,0,0,0,4.62.21A10.77,10.77,0,0,1,88.61,18.28Zm3.15,6s1.43.22,1.53,0C93.29,24.28,93.15,24.12,91.76,24.3Zm.92-.49s.87.18.93,0C93.61,23.79,93.53,23.66,92.68,23.81Zm-4.88.32s-1.6-.28-3.39-.79A8.64,8.64,0,0,0,87.8,24.13Zm-6.54,5.48a24.07,24.07,0,0,0,10,1.23,70.36,70.36,0,0,1-10-1.3c-.21-.1-.29-.18-.42-.23a2.51,2.51,0,0,0-.66-.1s.35.19.6.3A1.74,1.74,0,0,0,81.26,29.61Zm7.38-3.79a36.64,36.64,0,0,1-8-1.86A22.58,22.58,0,0,0,88.64,25.82Zm-.53-.88a28.08,28.08,0,0,1-6.19-1.44A16.55,16.55,0,0,0,88.11,24.94Zm3.54,5s-6.92-.16-11.18-1.58C80.47,28.41,84.35,30.44,91.65,30Zm-.74-2.32a36.23,36.23,0,0,1-10.36-1.33A22.65,22.65,0,0,0,90.91,27.67Zm-10.35-.6a23.53,23.53,0,0,0,10.69,1.29A40,40,0,0,1,80.56,27.07Zm6.25-.15a47.61,47.61,0,0,1-6.4-1.4,19.42,19.42,0,0,0,5.91,1.4,16.59,16.59,0,0,0,5.45.18S89.31,27.13,86.81,26.92Zm-6.25.79s3.76,2,10.31,1.37C90.87,29.08,83.5,28.94,80.56,27.71Zm.85,2.88a23.56,23.56,0,0,0,9.77,1.17,70.75,70.75,0,0,1-9.77-1.27,1.64,1.64,0,0,0-.45-.24,3.61,3.61,0,0,0-.75-.1s.35.18.67.32A1.65,1.65,0,0,0,81.41,30.59ZM89,25.86s3.88.44,4.51,0C93.47,25.86,92.33,25.94,89,25.86Zm2.16-1s2,.2,2.08,0C93.2,24.8,93.18,24.61,91.12,24.82ZM70.39,20.76c.4-.22.64,1.06.64,1.06s0-2.94-1.34-2.33c-.75.34,0,3,1.34,3C71,22.47,69.63,21.18,70.39,20.76Zm22.86,4.6s.07-.21-3.1,0C90.15,25.39,93.2,25.58,93.25,25.36Zm-5.56,1a45.37,45.37,0,0,1-7.26-1.61s2.16,1.19,7.73,1.69a11.27,11.27,0,0,0,4.35-.08A36.56,36.56,0,0,1,87.69,26.4Zm2.47,12.05c-2-.06-3.55-.3-4.72-.43-1.81-.21-2.91-.24-2.91-.24s1.92.49,2.89.64a39.9,39.9,0,0,0,4.64.28c.77,0,1.55,0,2.31,0a45.1,45.1,0,0,0,7.31-.16v-.31l-5.23.24C92.85,38.52,91.42,38.5,90.16,38.45ZM89,39.09c-1.48-.07-2.66-.27-3.58-.36-1.64-.16-2.76-.25-2.76-.25s1.84.5,2.7.63a32.73,32.73,0,0,0,3.57.28c1.58.08,3.22.08,4.76,0a29.76,29.76,0,0,0,6-.25v-.27c-1.65,0-4.13.09-5.84.26C92,39.18,90.37,39.14,89,39.09Zm-1.82,2c-.68,0-1.25-.21-1.72-.26-1.17-.12-2-.15-2-.15s1.38.44,2,.55,1.12.08,1.72.14l1.4.13H99.14l.54-.05v-.31c-1.31,0-3,0-4.28.16C91.81,41.33,89.09,41.22,87.2,41.08ZM75.1,26.44c.18.52,1.09.54,1.12-.11s-.57-.44-.57-.44-.34-.07-.16-.44C75.49,25.45,74.92,25.92,75.1,26.44Zm13.1,13.3c-1.14-.06-2.07-.23-2.8-.3-1.39-.14-2.46-.2-2.46-.2s1.71.46,2.44.57,1.78.12,2.74.18c2,.14,4.16.15,6.13.1A39.55,39.55,0,0,0,99.68,40v-.32c-1.77,0-4,0-5.6.19Q90.53,39.88,88.2,39.74ZM84,41.49h1c-.76-.08-1.29-.11-1.29-.11ZM92.28,3.35S89.56,3,88.84,1.17C88.84,1.17,89.12,3.37,92.28,3.35Zm-4.53,37c-1-.06-1.76-.23-2.39-.29-1.23-.13-2.15-.17-2.15-.17s1.49.44,2.15.55,1.52.11,2.35.18A59.85,59.85,0,0,0,94,40.8a35.27,35.27,0,0,0,5.68-.1v-.29c-1.56,0-3.63,0-5.2.15C91.68,40.57,89.45,40.49,87.75,40.39ZM90.48,37A6.36,6.36,0,0,1,88.31,37a8.09,8.09,0,0,0-2.19-.33c-3-.28-4.05-.36-4.05-.36a21,21,0,0,0,3.51.82,19.05,19.05,0,0,0,3.35.22,10.86,10.86,0,0,1,2.35,0c2.73,0,5.34,0,7.2-.13a8.23,8.23,0,0,0,1.2.11v-.34l-1.07.14C95.26,37.15,92.76,37.12,90.48,37ZM96.56,14.2a4.27,4.27,0,0,1-.82-.33,1.32,1.32,0,0,0-.81-.11,4.39,4.39,0,0,1,.71.3A1.54,1.54,0,0,0,96.56,14.2Zm1.16,11.35a12,12,0,0,0,1.23.17,1.26,1.26,0,0,1-.88.3c-1.25.06-1.47-.43-2.21-.69s-1.39-.33-1.57-.09a.12.12,0,0,0,0,.17,3.27,3.27,0,0,1-1-.15,1.73,1.73,0,0,0,1.24.43.12.12,0,0,1,0,.1c-.18.23-1.06,0-1.06,0a1.59,1.59,0,0,0,1,.53c.55,0,.82-.22,1.29,0a2,2,0,0,1,.82.9c.3.5.81.19,1.06.47l.11.13a1.26,1.26,0,0,1-1.37-.14c.27.92,1.39.51,1.62.42l.19.19a2.07,2.07,0,0,0-.74.41c-1.13.35-1.17-.46-2.32-.49-1,0-1.46.55-2,.73a2.84,2.84,0,0,1-1.72,0l-.65.62c2.69.52,2.66-.07,3.85-.07s1.3.47,2,.51,1.43-.34,2-.28a2.71,2.71,0,0,1,.66.18h0s.08.14-.1.15a13.26,13.26,0,0,1-1.6.31,13.17,13.17,0,0,0,1.78-.06c.21.08,0,.36-.11.4a15.54,15.54,0,0,1-2.58.13,7.77,7.77,0,0,0,2.47.15c.29,0,0,.3-.18.33a15.64,15.64,0,0,1-4.58-.18,10.67,10.67,0,0,0,4,.5c.72-.06-.34.34-1.77.33-.54,0-1.18-.1-1.92-.19-.5-.07-1.61-.26-1.61-.26a18.09,18.09,0,0,0,2.38.81,9.1,9.1,0,0,1-2.71.13,12.89,12.89,0,0,0,2.66.41l1.24,0c1.25.1,2.26.21,3.06.26V28.75a2.44,2.44,0,0,0-.51-.26.53.53,0,0,1-.36-.38,2.87,2.87,0,0,1,.87.23V28a2.39,2.39,0,0,0-.88-.14,1.51,1.51,0,0,1,.15-.47,3.22,3.22,0,0,1,.73.13v-.33a3.68,3.68,0,0,0-.58-.07l.25-.33.33,0v-.26h-.09l.09-.08V25.12a.68.68,0,0,0-.38.18A8.57,8.57,0,0,1,97.72,25.55ZM96.66,26a2.48,2.48,0,0,0,2,.16A1.27,1.27,0,0,1,96.66,26Zm-12,8.5a6.52,6.52,0,0,1,1.45.22,18.83,18.83,0,0,0,4.36.13s-2-.1-4.46-.42a5.37,5.37,0,0,1-1.67-.22,5.87,5.87,0,0,0-1.25-.37,17.28,17.28,0,0,0-2-.35,10.92,10.92,0,0,0,2,.76A5,5,0,0,0,84.62,34.49Zm-1.08-1a4.82,4.82,0,0,1,1.37.24,21.11,21.11,0,0,0,5.46.3s-2.69-.14-5.38-.53a6.1,6.1,0,0,1-1.62-.24,3.24,3.24,0,0,0-1-.37,8.26,8.26,0,0,0-1.45-.21,8.19,8.19,0,0,0,1.42.64A4,4,0,0,0,83.54,33.51Zm-.87-1a8.48,8.48,0,0,1,1.5.34,20.72,20.72,0,0,0,6.2.4s-3.42-.17-6.32-.65a5.89,5.89,0,0,1-1.52-.28,2.25,2.25,0,0,0-.62-.31,5,5,0,0,0-1.25-.12s.62.29,1.16.49A2.74,2.74,0,0,0,82.67,32.55ZM86,35.47a7.87,7.87,0,0,1,1.49.2,20.94,20.94,0,0,0,3.38,0s-1.14,0-3.42-.31a5.09,5.09,0,0,1-1.91-.21,7.49,7.49,0,0,0-1.67-.47c-1-.2-1.92-.24-2.41-.32a11.84,11.84,0,0,0,2.38.84A7.29,7.29,0,0,0,86,35.47Zm1.3.9a5.24,5.24,0,0,1,1.3.09c1.21,0,2.62,0,4.26,0,0,0-1.84-.05-4.41-.23a6,6,0,0,1-1.57-.11,13.34,13.34,0,0,0-2-.39c-1.29-.19-2.55-.32-3-.36a14.94,14.94,0,0,0,2.71.77A12.5,12.5,0,0,0,87.25,36.37Zm12.43-.49v-.32c-2.69.07-4.2.21-4.2.21C97.06,35.85,98.46,35.88,99.68,35.88ZM82,31.57a6.77,6.77,0,0,1,1.32.34,25.71,25.71,0,0,0,8.15.65,74.14,74.14,0,0,1-8-.82A7.6,7.6,0,0,1,82,31.43a1.82,1.82,0,0,0-.59-.27,4.2,4.2,0,0,0-.92-.11s.5.26.9.41A2.69,2.69,0,0,0,82,31.57ZM99.68,4.91V4.74c-.47,0-1,0-1.58.08C98.1,4.82,98.73,4.83,99.68,4.91ZM97.26,37.85c-1.69.07-3.21.11-4.62.09-2.82-.28-2-.2-4.19-.34-3.27-.2-6.16-.63-6.16-.63a29.55,29.55,0,0,0,4.23.94A69.59,69.59,0,0,0,98.19,38a11.82,11.82,0,0,0,1.49,0v-.42a21.68,21.68,0,0,0-2.43.29ZM87.21,15.61a8.44,8.44,0,0,0-2.41,0l1.91.25a3,3,0,0,1-1.58.32,3,3,0,0,0,1.63.51s1.82-2,4-2A2.85,2.85,0,0,1,93.5,16a4.68,4.68,0,0,0-2.8-.6,9,9,0,0,0-3.29,1.32,2,2,0,0,1,1.17.26,4.06,4.06,0,0,0,2.75.57c.9-.21,2.15-.67,2.33-.2a6.27,6.27,0,0,1-2.34.83A5.54,5.54,0,0,0,93,18.12c.53-.06,1.9-.21,2.07-.19a10.57,10.57,0,0,0-1.21-.13c-.2,0,.17-.24.32-.25h0l1.6-.15a3.52,3.52,0,0,0-1.14-.15c-.26,0,0-.36.32-.38.45,0,1.19,0,1.43,0a3.25,3.25,0,0,0-1.07-.26c-.27,0-.5-.36-.31-.36.77,0,1.93-.07,1.93-.07a13.16,13.16,0,0,0-1.83-.28c-.16,0-.19-.43.19-.42l1.08.05c-.3-.11-.68-.25-.94-.36s-.06-.26.19-.28a1.1,1.1,0,0,0,.37-.07c-.7-.22-1.92-1.23-3.63-1.23-.34,0-1,.12-1.52.13a15.3,15.3,0,0,0-3.12.29s3.78-.05,4.7.12c.14.2.23.41-.07.38l-.18,0c-.38,0-.74-.08-1.07-.09a22.06,22.06,0,0,0-4.84.17l2.83.07a5,5,0,0,0-.86.37,11.58,11.58,0,0,0-2.89.1l2.39.21-.32.23ZM89,16.81a2,2,0,0,1,.66-.32.77.77,0,0,1,.46,0s0,.33-.47.3c.51.56,1.86.37,1.86.37A2.69,2.69,0,0,1,89,16.81Zm2.82.22c-.14,0-.11-.11-.11-.24s0-.23.11-.23.44.1.44.23S91.92,17,91.77,17Zm4.6-7.62a31.49,31.49,0,0,1,3.31.31v-.3A16.15,16.15,0,0,0,96.37,9.41Zm2.11,7.72a9,9,0,0,1,1.2.28v-.32A5.61,5.61,0,0,0,98.48,17.13Zm-17.75,6.4a1.68,1.68,0,0,0-.52-2.09A6.07,6.07,0,0,1,78.91,20a3.51,3.51,0,0,0,1,1.61c.62.62.51.83.28,1s-.28-.67-.9-1.06a3.53,3.53,0,0,1-1-1.19,2.84,2.84,0,0,0,.7,1.47,2.37,2.37,0,0,1,.75,1.12,3.24,3.24,0,0,1-1.24-.47A2.72,2.72,0,0,0,80.73,23.53Zm19,13v-.3c-3.1.08-6.42.2-6.42.2A60.31,60.31,0,0,0,99.68,36.55Zm0-25.91v-.21a18,18,0,0,0-1.9-.07S98.55,10.44,99.68,10.64Zm0,3.7v-.26a13.91,13.91,0,0,0-1.61.09S98.72,14.21,99.68,14.34Zm-1.36,4.19a8.14,8.14,0,0,1,1.36.32v-.34A4.82,4.82,0,0,0,98.32,18.53Zm.05,1.39a10,10,0,0,1,1.31.31v-.32A4.42,4.42,0,0,0,98.37,19.92Zm0-2.09a8,8,0,0,1,1.31.31v-.33A5.3,5.3,0,0,0,98.37,17.83ZM73,6.85a1.2,1.2,0,0,1,0,1.22c.44-.49.73-.37.73-.37a4,4,0,0,0-.78,1.56,5.8,5.8,0,0,1-1.32,1.91,5.26,5.26,0,0,0,2.1-2.87,1.64,1.64,0,0,1,1-.7,1.72,1.72,0,0,0,.37.93c-.32-.75.54-2,.54-2A1.69,1.69,0,0,1,73,6.85Zm3.14-3.19c-.6,1.22-1.56,2.38-2.7,1.58,0,0,1,1.19,2.23-.26s.91-1.74,1.69-1.89a2.73,2.73,0,0,0,0,2.46,3.59,3.59,0,0,1,.78-2.93A2,2,0,0,0,76.09,3.66Zm6-2.08a7.79,7.79,0,0,1-1.56,2.85C79.72,5.11,78.32,5.83,79,7c0,0-.07-.7.39-.93a1.17,1.17,0,0,0,.47,1.19,2.78,2.78,0,0,1,.39-1.78A6.51,6.51,0,0,0,82.13,1.58Zm17.49.19A3.74,3.74,0,0,1,96,3.48a5.57,5.57,0,0,1-2.54-1A3.16,3.16,0,0,0,95,3.5c1,.29,1,.7.06.73s-1.35-.44-2.1-.39-1.2.52-2,.44a2.3,2.3,0,0,1-2.13-2s-2.16.18-3-1.28h-.2A3.69,3.69,0,0,0,87.39,4.1s-.52-.65.13-.93a5.21,5.21,0,0,0,2.15,1.29A2.81,2.81,0,0,1,86.3,4,2.87,2.87,0,0,0,88,5.29s-2.49.83-3.19-1.55c0,0-.23,2.48-1.58,2.77a1.86,1.86,0,0,1,.34-1A10.93,10.93,0,0,0,84.81,1h-.08c-.25,1.16-.88,3.8-1.54,4.36-.86.73-1.25,1.46-.91,2.28a1.51,1.51,0,0,1-.41-1.11,4.37,4.37,0,0,0-.18,1.89,2.54,2.54,0,0,1-.5-2.2c.18-1,1.43-.88,1.82-2.57a3.46,3.46,0,0,1-1.43,1.43,5.11,5.11,0,0,0,1.35-3.24A5.88,5.88,0,0,1,81.09,5c-1.5,1.27-.86,2.26-.86,2.26s0-.94.63-1.27a3.22,3.22,0,0,0,.38,2.49,2.26,2.26,0,0,1-.88-.73s0,2.64,4,1.76A4.6,4.6,0,0,1,79.51,9C77.9,7.67,77.67,6.79,77.8,5.83a2.45,2.45,0,0,1-.81,1c-.54.37-1.94,1.38-.23,2.67,0,0-.57-.72-.36-1.29a3,3,0,0,0,1.16,1.5S76.81,8.56,77,8a5.07,5.07,0,0,0,1.79,2.17,2.19,2.19,0,0,1-1.09-.33,4.18,4.18,0,0,0,1,1s-2,.77-3.53-1.9a2.1,2.1,0,0,0-.75.65s.52-.44.81,0A.71.71,0,0,1,75,10.6a7.61,7.61,0,0,0-2.47,1.74,3.84,3.84,0,0,0-.93,3.14A5.38,5.38,0,0,0,73.39,19a4.57,4.57,0,0,1-3.21-2.93,4.83,4.83,0,0,1,1.16-5.42s-1.52-.77,1.43-4.14c0,0-.36-1.69,1.76-2.15A4,4,0,0,1,76,1h-2a1.15,1.15,0,0,1,.2,1.22l-.06.08A12.89,12.89,0,0,0,72.57,1H69.89a3.31,3.31,0,0,1,.5,1.08l-.62-.3A2.42,2.42,0,0,0,69.35,1h-.52a1.65,1.65,0,0,1,.24.48c-.27-.12-.54-.22-.81-.33L68.18,1H65.69a5.92,5.92,0,0,1-2,1.22l-1-.22A7,7,0,0,0,64.4,1h-.72a6.62,6.62,0,0,1-1.46.91l-.12,0L61,1.7A7.23,7.23,0,0,0,62.48,1h-.7a8,8,0,0,1-1.16.59l-1.34-.28A6.82,6.82,0,0,0,60.35,1H59.22V2.26l1.18.1a4.13,4.13,0,0,1-1.18.8v.49a8.23,8.23,0,0,0,2.06-1.19l.91.12a6.32,6.32,0,0,1-2.64,1.58l-.33-.07V5.74c.12-.14.24-.27.36-.42l.87-.1.4,0,0,0-.06.08a6.74,6.74,0,0,1-1.55,1.46v.44a12.18,12.18,0,0,0,2.11-2h0l1.24-.1-.06.08,0,0a9,9,0,0,1-3.29,2.48V9.94A4.77,4.77,0,0,0,60,8.7l.42-.09a5.59,5.59,0,0,1-1.22,1.73V11a5.73,5.73,0,0,1,3.06.6l-1.09.12a5.39,5.39,0,0,0-2-.67v.38a6.82,6.82,0,0,1,1,.45c-.33.06-.67.13-1,.22v.35l.72-.12v.07A4.21,4.21,0,0,1,59.22,14v.51l.12-.1a4.81,4.81,0,0,0,1.32-2.08v-.05l.75-.08,0,.06A4.34,4.34,0,0,1,60,14.46l-.78.1v.12l.39,0a25.41,25.41,0,0,1,3.9-.11c-1.34.16-2.59.35-3.72.56l-.54.11h0v.91c.21-.3.36-.56.45-.72l1-.18a8.06,8.06,0,0,1-1.43,2v.39a9,9,0,0,0,2.1-2.51l.92-.12a9.46,9.46,0,0,1-2.07,2.72l-1,.11v.78a1.71,1.71,0,0,0,.33-.51l.33,0a1.65,1.65,0,0,1-.64.83h0v.78l.52-.08a3.49,3.49,0,0,1-.52.79v.28a5.4,5.4,0,0,0,1-1.15l.77-.11a4.29,4.29,0,0,1-1.43,1.65h-.32v1.37l.44-.37.13,0,.76-.12a4.44,4.44,0,0,1-1.24,1.2l-.09,0v.3l.06,0a22.9,22.9,0,0,0,2.36.29c.21,0,.53.07.94.1L62,24l-.48.16-.41.14a7.84,7.84,0,0,1,1.08,0c.42,0,.77,0,1,.08l-.35.1-.87.28-.4.14a15,15,0,0,0-1.65.66l2.36-.65A5.29,5.29,0,0,1,60.91,26a5.07,5.07,0,0,1-.58-.08c-.94-.17-.46-.9,0-1.45,0,0-.92.56-.81,1.24s2.05.72,2.05.72-1.62.82,1,1.1c.79-.3,1.22-1.16,1.37-1.15s0,.32-.51,1.26c.44,0,.86,0,1.24,0a3.76,3.76,0,0,0,1.56-1.55h.18a3.41,3.41,0,0,1-.9,1.52l.58,0h0l-.74.48-.32.24a5.24,5.24,0,0,0-.66.58.58.58,0,0,0-.11.12l.16-.14.44-.3a3.12,3.12,0,0,1,1.4-.11l-.73.34-.53.25a8.73,8.73,0,0,0-1.24.71,1,1,0,0,1,.06-.28c-.34.34-.7,1,.15,1.41a3.51,3.51,0,0,0,.51-.31h0A4.23,4.23,0,0,0,66,29l.72-.29a6.8,6.8,0,0,1-1.63,2h0l0,0-.06.05-.4.31a7.76,7.76,0,0,0,3.33-.24l.18,0,.13,0c-.22.17-.52.4-.84.69l-.39.36a8.94,8.94,0,0,0-.83.9A3,3,0,0,0,66,33h0c-.09.12-.17.23-.24.34s.16-.16.45-.42a4.18,4.18,0,0,1,1.74-.35l-.27.22-.49.39a12.32,12.32,0,0,0-1.74,1.61,1.41,1.41,0,0,1,0-.63,1.62,1.62,0,0,1,0-.19c-.74,1.23,0,1.73,1.19,1.68.06-.06.14-.13.24-.24l.22-.27,0,0h0A4.41,4.41,0,0,0,67.92,33l.68-.48a4.67,4.67,0,0,1-.75,2.33l0,0v0a2.56,2.56,0,0,1-.2.26,3,3,0,0,1-.34.39l.32-.07a6.85,6.85,0,0,0,.89-.34,4.85,4.85,0,0,0-.4.58l0,.07a4.58,4.58,0,0,0-.36.8s.27-.39.68-.87a2.06,2.06,0,0,1,1.32-.27l-.56.52-.35.34h0c-.08.09-.93,1-1.19,1.29a1,1,0,0,1,0-.74.06.06,0,0,1,0,0l0,.05c-.62,1,.16,1.6,1.13,1.47a6,6,0,0,0,1.82-.52A3.51,3.51,0,0,0,70,40.26a3.9,3.9,0,0,1,.41-1.5l.13-.27a2.84,2.84,0,0,1,1.48-.4l-.22.27-.52.64-.32.43c-.33.43-.64.86-.91,1.27l1-1.06a2.68,2.68,0,0,1-.19,1.3,2.14,2.14,0,0,1-.62,0,2.78,2.78,0,0,0,1.8,0,6.78,6.78,0,0,0-.47.51h2.13c0-.2,0-.36,0-.46l.56-.6a9.63,9.63,0,0,1,0,1.06h.29c0-.61,0-1.14,0-1.43.19-.2.37-.4.56-.59a9.36,9.36,0,0,1,.09,2h.25a15.32,15.32,0,0,0,.06-2.44l.5-.53a11.14,11.14,0,0,1,0,2.91l-.06.06H77.2a2.2,2.2,0,0,0-.13-.22l.53-.48c.09.22.17.46.25.7h.62a5.63,5.63,0,0,0-.31-1.23l.53-.49A6.82,6.82,0,0,1,79,41.49h.4a6.32,6.32,0,0,0-.33-2.17l.61-.64A5.8,5.8,0,0,1,80,41.49h1.7v0s-.26-2.46-.44-3.3c0,0-.3-1.34-.67-2.61a3,3,0,0,0-1.9-1.82c-.81-.15-1.62-.52-1.7-1.57.1.38.43.8,1.38,1a2.65,2.65,0,0,1,2,1.26,2.69,2.69,0,0,0-1.65-1.63c-1.21-.33-1.76-.54-1.66-1.22s.59-.74.59-.74-.47.85.93,1.18,1.52,1.11,1.52,1.11a71.23,71.23,0,0,1-.38-9.17,4.09,4.09,0,0,1-2.2-2s.46,1.83,1.36,2.25c.5.23-1.24.11-1.89-.32a4.19,4.19,0,0,1,1.19,2.7c-.39-1.16-1.08-1.36-1.08-1.36s1.44,2.19-.26,3.19c0,0,1-1.14.15-2,0,0,.16,1.48-1.14,1.55s-2.48-2-.15-3.86a3.82,3.82,0,0,0-1.35.78c-.39.44-1.39.65-1.58.12a.06.06,0,0,0,0,0v0a1.66,1.66,0,0,1,0-.44,12.4,12.4,0,0,1,1.11-3,1.52,1.52,0,0,0-.35-2,4.9,4.9,0,0,0,1.32,0,4.63,4.63,0,0,1-.2,1.92,9,9,0,0,0-1,2.62,7.16,7.16,0,0,1,1.19-2c.61-.57.49-1,.49-1a2,2,0,0,1-.29,1.6,2.57,2.57,0,0,0-.53,1.47,3.64,3.64,0,0,1,.7-1.06,1.29,1.29,0,0,0,.53-1,4,4,0,0,0,.93,1.6,3.84,3.84,0,0,1-.34-1.47,9.51,9.51,0,0,0-.44-1.74c.52.05,1.32,1,1.32,1-.52-2.41,1-1.33,1-1.33A3,3,0,0,1,78,18.33c.11-.42.68-1.22.52-.42a3.43,3.43,0,0,0,.34,1.79,2.57,2.57,0,0,1,.44-2.18,3,3,0,0,0,.94,2.59,2.47,2.47,0,0,1,1,2.09,1.73,1.73,0,0,0-.33-2l.82,0c-.42-.09-.77-.18-1.08-.26l-.36-.4,1.13,0c-.6-.14-1-.28-1.43-.39a1.57,1.57,0,0,1-.18-.37l1.32-.05c-.61-.16-1.07-.31-1.45-.42a1.6,1.6,0,0,1,0-.3c.93-.05,1.48-.11,1.48-.11-.57-.12-1-.27-1.44-.37,0-.11,0-.21.08-.3L81.47,17c-.62-.11-1.09-.22-1.48-.3.14-.14.25-.26.34-.37l2-.09c-.7-.12-1.25-.24-1.72-.31a1.82,1.82,0,0,0,.15-.41l1.82-.08-1.73-.27,0-.09a4,4,0,0,1,.13-.43c1-.07,1.73-.1,1.73-.1l-1.66-.23A.9.9,0,0,0,81,14a.21.21,0,0,1,0-.13c1.27-.12,2.28-.17,2.28-.17l-1.89-.26c.21-.12.46-.22.67-.32,1-.13,1.77-.19,1.77-.19l-1.33-.18a.86.86,0,0,0,.07-.47c1-.11,1.68-.17,1.68-.17-.39-.09-.76-.15-1.1-.2.36-.17.7-.34,1-.51l.26-.16a4.61,4.61,0,0,0,2.14-2.37A3.78,3.78,0,0,1,88.84,6.5a3.08,3.08,0,0,0-2.08.79,1.78,1.78,0,0,1-3.16-.55,1.91,1.91,0,0,0,1.89.75s-1.21-.2-1.5-1.06a2.55,2.55,0,0,0,1.45.5s-1.11-.4-1-1.15a1.87,1.87,0,0,0,1.48.7c.9-.09,1.41-.43,2.18-.45s1.28.2,2,.23a16.26,16.26,0,0,0,5.38-1.57,5.17,5.17,0,0,0,4.23-1.9V1.67ZM64.39,30.52l-.14,0a.69.69,0,0,1-.44-.63l1.75-.7A5.21,5.21,0,0,1,64.39,30.52Zm1,4.23,1.29-.94A3.19,3.19,0,0,1,66,35.19.73.73,0,0,1,65.42,34.75Zm1.45.39a2.89,2.89,0,0,1-.68.06A2.82,2.82,0,0,0,67,33.59l.58-.41A5,5,0,0,1,66.87,35.14Zm11.54,4.07-.51.48a13.77,13.77,0,0,0,.27-3.34l.36-.38A7,7,0,0,1,78.41,39.21Zm-1-5.27.65.31a7.46,7.46,0,0,1,.05,1.55c-.26.23-.5.47-.75.71A8.87,8.87,0,0,0,77.45,33.94Zm-.1,3.26.42-.43a12.22,12.22,0,0,1-.06,3.11l-.63.59A14.6,14.6,0,0,0,77.35,37.2Zm-6-29.45A4.19,4.19,0,0,1,69.45,9a2.2,2.2,0,0,1-.58.08l-.16,0-.23,0,.29-.11.28-.11a4,4,0,0,0,1.47-1,1.68,1.68,0,0,0,.55-.07,1.36,1.36,0,0,0,.4-.16Zm-4.53,9.37-.58.15a5.75,5.75,0,0,0,2.25-2l.66-.33A5.28,5.28,0,0,1,66.85,17.12Zm2.23,1.28h0Zm.9,7a1.16,1.16,0,0,1-.12.46L69.8,26h0a.22.22,0,0,1-.05.08.76.76,0,0,1-.08.11h0l0,0-.12.11,0,0-.07.05,0,0-.15.09-.06,0-.11.05,0,0h0a1.69,1.69,0,0,1-.27.1l0-.05h0l0,0,0,0v0h0l0,0a2.75,2.75,0,0,0,.21-.39,2.41,2.41,0,0,0,.16-.54l.76-.21h0Zm.14,1.47h0L70,26.83Zm-1.55-.52a3.47,3.47,0,0,1-.25.46v0h0l0,.05a.43.43,0,0,0,0,.07h0l0,0-.08.09a.1.1,0,0,0,0,0l-.13,0-.12,0-.27,0h0l0,0,0,0,0,0h0l0,0,.12-.19a1.91,1.91,0,0,0,.13-.25,3.68,3.68,0,0,0,.33-.86l.6-.13A3.85,3.85,0,0,1,68.57,26.35Zm.48-1.21c-.36.08-.73.15-1.09.21a6.46,6.46,0,0,0,1.37-1.77,2,2,0,0,0,.6.12A6.78,6.78,0,0,1,69.05,25.14Zm-1.36.25-1.16.18a6.62,6.62,0,0,0,1.72-1.95l.65-.08A6.6,6.6,0,0,1,67.69,25.39Zm-.83-2a4,4,0,0,0,1.28-1.13,2.72,2.72,0,0,0,.3.59,2.76,2.76,0,0,0,.21.25C68.32,23.18,67.69,23.29,66.86,23.4Zm.61-2.58a7.41,7.41,0,0,1-2.39,2.77l-1.15.07A8.09,8.09,0,0,0,66.65,21Zm-.39-.24a6.2,6.2,0,0,0,1-.89,3.69,3.69,0,0,0-.14.84Zm.82.37a3.94,3.94,0,0,0,.1.84,3.76,3.76,0,0,1-1.45,1.65c-.37,0-.78.09-1.2.12A7.8,7.8,0,0,0,67.9,21Zm-1.1-.35-1,.07a6.39,6.39,0,0,0,1.87-2.14l.78-.07A6.23,6.23,0,0,1,66.8,20.6ZM64,17.45l-.54,0A7.23,7.23,0,0,0,66,15.05a1.88,1.88,0,0,1,.58.38A4.1,4.1,0,0,1,64,17.45Zm3.15-1.85.75-.23a5.58,5.58,0,0,1-2.64,2l-.26,0A4.63,4.63,0,0,0,67.19,15.6Zm-2.93,2.11.28,0a1.34,1.34,0,0,1-.55.82,3.09,3.09,0,0,1-.37.1A1.45,1.45,0,0,0,64.26,17.71Zm-1,.93-.3.06a1.58,1.58,0,0,0,.64-1l.3,0A1.42,1.42,0,0,1,63.28,18.64Zm2.6-4.23-.73-.05a4.49,4.49,0,0,0,2.25-2.22c.31,0,.61.06.87.1l0,0C68.2,12.34,67,14.08,65.88,14.41Zm-.63-6.56L65,7.93l-.16,0-.3-.09.18-.07a4.88,4.88,0,0,0,1.79-1.21l0,0a1.69,1.69,0,0,0,.52,0,1.81,1.81,0,0,0,.52-.1A10.12,10.12,0,0,1,65.25,7.85ZM67.87,7a1.13,1.13,0,0,0,.45-.09A5.88,5.88,0,0,1,66,8.25l-.12,0-.07,0-.35-.15.17,0A4.47,4.47,0,0,0,67.38,7l0,0A1.2,1.2,0,0,0,67.87,7Zm-3.94.72-.56-.09a6.68,6.68,0,0,0,2.09-1.44l0,0a1.7,1.7,0,0,0,.46,0A1.77,1.77,0,0,0,66.51,6,7.77,7.77,0,0,1,63.93,7.71Zm0,.47.37.06A5.38,5.38,0,0,1,63,10h-.37A4.62,4.62,0,0,0,64,8.18Zm1,.39.29.14a5.33,5.33,0,0,1-1.11,1.35l-.33,0A5.09,5.09,0,0,0,65,8.57Zm.93.42.28.1a4,4,0,0,1-.91,1.12L65,10.15A4.26,4.26,0,0,0,65.93,9Zm.91.31.32.1a5,5,0,0,1-.9,1l-.32-.09A4.92,4.92,0,0,0,66.84,9.3ZM66.57,11l.2.1,0,0a1.5,1.5,0,0,1,.46.52l-.51,0a1.28,1.28,0,0,0-.41-.56,1.53,1.53,0,0,0-.22-.17A1.42,1.42,0,0,1,66.57,11Zm.71-.26L67,10.67a5.59,5.59,0,0,0,1-1.11l.39,0A7.67,7.67,0,0,1,67.28,10.78Zm.88-1.89L68,9l-.53-.12h0a6.23,6.23,0,0,0,1.91-1.17l0,0h0a1.6,1.6,0,0,0,.79-.27l.21-.13-.12.21A4.36,4.36,0,0,1,68.16,8.89Zm-1.34-.18-.49-.14.2-.06a4.72,4.72,0,0,0,1.73-1.09l0,0a1.46,1.46,0,0,0,.47,0,2.72,2.72,0,0,0,.64-.23A6.27,6.27,0,0,1,66.82,8.71Zm1.72-2.22a5.41,5.41,0,0,0,1.75-.88l.42-.32.22.1-.13.13a4.71,4.71,0,0,1-2,1.09Zm1.62-1.37a5.64,5.64,0,0,1-2,1.18L68,6.1a5.92,5.92,0,0,0,1.65-.85A4.41,4.41,0,0,0,70,4.94l.24.12Zm-.75-.31A5.73,5.73,0,0,1,67.7,5.86a2.09,2.09,0,0,1-.2-.22,6.4,6.4,0,0,0,1.32-.74l.4-.3.29.12Zm-.8-.33a6.62,6.62,0,0,1-1.36.89A2.39,2.39,0,0,0,67,5.15a5.7,5.7,0,0,0,.86-.54c.16-.12.26-.21.27-.22l.19-.17.38.16Zm-.94-.33-.12.11a4.75,4.75,0,0,1-.88.64,2.81,2.81,0,0,0-.42-.17c.26-.15.48-.3.65-.42a3.77,3.77,0,0,0,.32-.26l.19-.19.41.15Zm-.92-.34-.3.26a5.06,5.06,0,0,1-.79.54l-.3,0h-.17a6,6,0,0,0,1.23-1.07l.46.15Zm-2.29.78-.55,0h-.09A5.89,5.89,0,0,0,65.48,3.2l.44.14A4.94,4.94,0,0,1,64.46,4.59Zm.23.67.06-.07v0l.56,0,.51,0-.07.11a.85.85,0,0,0-.12.13l-.21.23a9.21,9.21,0,0,1-3.79,2.3l-.41,0A10.75,10.75,0,0,0,64.69,5.26ZM62.81,8.19l.37,0a5.52,5.52,0,0,1-1.34,1.9l-.48,0A4.78,4.78,0,0,0,62.77,8.2Zm-.16,2.35h.45a5.63,5.63,0,0,1,.65.07l.18,0a1.78,1.78,0,0,1,1.32.9h-.37l-.35,0a2.33,2.33,0,0,0-1.85-.91h0l-.43,0Zm2.32.24-.1,0-.28-.13.28,0a2.06,2.06,0,0,1,.46.12l.26.12a1.43,1.43,0,0,1,.24.16,1.56,1.56,0,0,1,.48.56l-.56,0C65.68,11.22,65.28,11,65,10.78ZM66,12l.8.05a3.57,3.57,0,0,1-2,2.25l-.64-.05.28-.15A3.66,3.66,0,0,0,66,12Zm-1.33,2.77h.71l.12,0a7,7,0,0,1-2.29,2.65l-1.27.08A9.39,9.39,0,0,0,64.62,14.81Zm-2.52,3,.39,0a1.75,1.75,0,0,1-.88,1l-.32,0A2.08,2.08,0,0,0,62.1,17.85Zm.84-.05.3,0a1.46,1.46,0,0,1-.77,1,2.86,2.86,0,0,1-.31.06A2,2,0,0,0,62.94,17.8Zm-.32,1.36.75-.11A5.62,5.62,0,0,1,62,20.92L61,21A6.25,6.25,0,0,0,62.62,19.16Zm1.2-.18.78-.11a5.32,5.32,0,0,1-1.48,2l-.94.07A5.45,5.45,0,0,0,63.82,19Zm1.28-.18.75-.1h0a5.68,5.68,0,0,1-1.64,2.07l-.89.06A6.82,6.82,0,0,0,65.1,18.8Zm1.27-.16.22,0,.58-.05a5.69,5.69,0,0,1-1.63,2.11l-1.11.08A7.36,7.36,0,0,0,66.37,18.64Zm.34-4.15-.38,0a5.39,5.39,0,0,0,2.41-2.15l.77.12,0,.06A5.86,5.86,0,0,1,66.71,14.49Zm3.15-7.64a4.34,4.34,0,0,1-.52-.09,4.55,4.55,0,0,0,1.74-.83c.15-.11.27-.21.35-.28l.38.19A4.8,4.8,0,0,1,69.86,6.85Zm2.2-5c.77.52,1.12,1.61.88,1.83l-.58-.43a4.21,4.21,0,0,0-.52-1.51Zm.3,2.22a1.93,1.93,0,0,1-.66.25,4.87,4.87,0,0,1-1.86-.07L69.18,4a7,7,0,0,0,2.66-.31A5.58,5.58,0,0,1,72.36,4.1ZM71.12,1.43a3,3,0,0,1,.55,1.4l-.61-.36a3.43,3.43,0,0,0-.54-1.29ZM70.67,3l.66.39a6.4,6.4,0,0,1-2.55.5l-.86-.32A7.12,7.12,0,0,0,70.67,3Zm-1.35-.69c.3.13.57.27.82.4a7.09,7.09,0,0,1-2.57.73l-.75-.26A5.65,5.65,0,0,0,69.32,2.26ZM68.76,2a5.72,5.72,0,0,1-2.35,1l-1-.31a6.3,6.3,0,0,0,2.54-1Zm-2.4-.87,1,.31A5.93,5.93,0,0,1,65,2.59l-.93-.24A6.2,6.2,0,0,0,66.36,1.14Zm-6,3.17A6.62,6.62,0,0,0,63,2.69l.72.13a5.06,5.06,0,0,1-2.32,1.63Zm1.83.23A6,6,0,0,0,64.41,3l.54.12A4.88,4.88,0,0,1,63,4.62ZM59.82,8l-.44,0A11.72,11.72,0,0,0,63,5.15h0l0,0,.59,0L64.27,5l-.08.11A9.48,9.48,0,0,1,59.82,8Zm1.52.45,0-.07.52-.1a5.52,5.52,0,0,1-1.46,1.93l-.38.07A4.73,4.73,0,0,0,61.34,8.49Zm-1,2.32c2.89-.4,3.53.7,3.54.72l-.72,0h-.07C62.39,10.82,60.37,10.81,60.37,10.81Zm.85,3.54-.61.05.2-.18a4.79,4.79,0,0,0,1.26-2.11l.79,0C62.74,12.37,62.12,14,61.22,14.35Zm.64,0,.24-.18A4.68,4.68,0,0,0,63.41,12l.79,0a4.06,4.06,0,0,1-1.71,2.25Zm1.07-.06.27-.15A3.58,3.58,0,0,0,64.69,12h.79a3.44,3.44,0,0,1-1.91,2.27Zm0,.65,1-.08a8.34,8.34,0,0,1-2.37,2.77l-1.09.09A10.22,10.22,0,0,0,62.94,14.91Zm-3,4.05-.41,0a2.11,2.11,0,0,0,.86-1l.41,0A1.63,1.63,0,0,1,59.92,19Zm.9-.07-.43.06a1.86,1.86,0,0,0,.86-1l.39-.05A1.86,1.86,0,0,1,60.82,18.89Zm-1,2.17h-.11a5,5,0,0,0,1.67-1.72l.77-.12A4.85,4.85,0,0,1,60.84,21Zm-.36,2.09A6.33,6.33,0,0,0,61,21.84l.9-.14a6,6,0,0,1-1.75,1.61Zm.9.19a7.22,7.22,0,0,0,2.1-1.73l.71-.11h.08a7.87,7.87,0,0,1-2.13,2Zm.93.15a7.86,7.86,0,0,0,2.53-2.09l.91-.14a7.81,7.81,0,0,1-2.36,2.37C62,23.59,61.68,23.55,61.3,23.49Zm1.56.19-.31,0a8.37,8.37,0,0,0,2.8-2.49l.74-.12a7.34,7.34,0,0,1-2.41,2.62ZM60.93,26l.15,0a6,6,0,0,0,1.85-1.28l.93-.26A5.9,5.9,0,0,1,62.4,26h.13A12.2,12.2,0,0,1,60.93,26Zm2.79-.1-1.18.1a6.63,6.63,0,0,0,1.89-1.74l.7-.2A7.1,7.1,0,0,1,63.72,25.92Zm.26,0a6.54,6.54,0,0,0,1.77-2l.37-.1.35,0a6.81,6.81,0,0,1-1.46,2Zm2.32-.29-.31,0-.76.09a6.61,6.61,0,0,0,1.76-2l.73-.07A6.61,6.61,0,0,1,66.3,25.6Zm.39,1.81h-.08l-.27,0-.09,0,0,0A3.93,3.93,0,0,0,67,26l.69-.13A3.65,3.65,0,0,1,67.21,27a1.81,1.81,0,0,1-.25.3l0,0,0,.05-.11,0Zm-1.4,3.29a5,5,0,0,0,1.77-2.14l.85-.34A8.07,8.07,0,0,1,66,30.72C65.74,30.72,65.51,30.72,65.29,30.7Zm1.8-.09a8.73,8.73,0,0,1-.91.1,7,7,0,0,0,2.1-2.64l.83-.33A8.53,8.53,0,0,1,67.09,30.61Zm1.13-.24h0a6.38,6.38,0,0,1-.88.2,7.1,7.1,0,0,0,2.15-3l.82-.32A9.12,9.12,0,0,1,68.22,30.37Zm4.23,3,.63-.55a8.83,8.83,0,0,1-.75,3.66c-.24.15-.48.28-.71.41A7.16,7.16,0,0,0,72.45,33.37Zm-1,3.64-.57.29a7.37,7.37,0,0,0,.66-2.36c0-.25,0-.51,0-.78l.6-.53A7.71,7.71,0,0,1,71.42,37Zm2-4.48.53-.46A9.33,9.33,0,0,1,73.19,36l-.64.4A8.76,8.76,0,0,0,73.41,32.53Zm.85-.74.37-.32a7.86,7.86,0,0,1-.48,3.84l-.72.48A7.82,7.82,0,0,0,74.26,31.79Zm-.12-.55-.81.57a5.76,5.76,0,0,0,.46-2.12,4.75,4.75,0,0,0,.57.06A5.6,5.6,0,0,1,74.14,31.24ZM73,32.07l-.89.58a5.85,5.85,0,0,0,.85-3.16.62.62,0,0,0,.12-.08,1.33,1.33,0,0,0,.34.16A7.2,7.2,0,0,1,73,32.07Zm-1.19.76c-.23.15-.47.28-.71.43a6.11,6.11,0,0,0,.88-3.1l.6-.41A5.85,5.85,0,0,1,71.77,32.83Zm0-5.07a8.25,8.25,0,0,1-1,1.66l-.89.34a7.09,7.09,0,0,0,1.81-3A3.68,3.68,0,0,0,71.79,27.76Zm-1.88,2.33.21-.09.57-.15.63-.09.41,0h.06l-.51.33-.13.08-.05,0a2.62,2.62,0,0,0-1,0l-.48.08A1.77,1.77,0,0,1,69.91,30.09Zm1.1.71.59-.41a6,6,0,0,1-.82,3c-.27.15-.55.31-.83.45A5.57,5.57,0,0,0,71,30.8ZM69.62,34l-.59.3a5.63,5.63,0,0,0,.89-2.8l.72-.49A5.47,5.47,0,0,1,69.62,34Zm1.5-4.75a4.64,4.64,0,0,0,.79-1.17,1.63,1.63,0,0,0,.19.34l.27.35Zm.48-4.22-.47.05-.14,0-.23,0a3.89,3.89,0,0,0,.27-.31,3,3,0,0,0,.37-.67,1.42,1.42,0,0,0,.11-.33l.28-.06a1.33,1.33,0,0,0,.8-.51s0,.11-.06.28A2.35,2.35,0,0,1,71.6,25.07Zm-.19,1.74a9.54,9.54,0,0,1-1.86,3.08l-1.06.39a7.71,7.71,0,0,0,2.14-3.16Zm-3,4.26.43-.31a4.09,4.09,0,0,1,1.7-.14l-.45.32a4.53,4.53,0,0,0-.82,0,4.09,4.09,0,0,0-1,.24ZM66.81,32.3h0c.19-.17.41-.35.65-.54a3.93,3.93,0,0,1,1.8-.25l-.54.41h0A3.77,3.77,0,0,0,66.81,32.3ZM68,34.77a4.52,4.52,0,0,0,.85-2.51l.67-.46a5.81,5.81,0,0,1-.85,2.69Zm.75.43.12-.12.35-.32a2.23,2.23,0,0,1,1.36-.25l-.39.38,0,0A2.63,2.63,0,0,0,68.79,35.2Zm-1.2,2.4,1.19-1A2.47,2.47,0,0,1,68.45,38,.92.92,0,0,1,67.59,37.6Zm1,.4A2.61,2.61,0,0,0,69,36.36l.51-.44a4.15,4.15,0,0,1-.37,2A3.68,3.68,0,0,1,68.61,38Zm.7-.09a3.53,3.53,0,0,0,.49-2.22l.58-.51A5.74,5.74,0,0,1,70,37.71Zm.86-.29a5.74,5.74,0,0,0,.49-2.68l.6-.53a11.52,11.52,0,0,1-.09,1.15,6.37,6.37,0,0,1-.5,1.84C70.5,37.48,70.33,37.56,70.17,37.62Zm.46.69v0h0Zm.16-.26.25-.36.08-.11a2.34,2.34,0,0,1,1.59-.33h0l-.26.31A2.43,2.43,0,0,0,70.79,38.05Zm.89,2.74c-.19.05-.39.1-.58.13a2.81,2.81,0,0,0,.27-1.55c.13-.13.26-.27.41-.41A4.26,4.26,0,0,1,71.68,40.79Zm.16,0a4.11,4.11,0,0,0,.24-2.08l.47-.47a6.31,6.31,0,0,1-.17,2.35C72.21,40.61,72,40.68,71.84,40.74Zm1.43-1.17c0,.19-.06.4-.11.62s-.37.18-.59.27a5.27,5.27,0,0,0,.26-2.56l.4-.39A6.45,6.45,0,0,1,73.27,39.57Zm.22.42-.08.07-.07,0c0-.07.06-.24.1-.46v0c0-.06,0-.12,0-.2s0-.18,0-.28a7,7,0,0,0,0-1.89l.47-.46a7.52,7.52,0,0,1-.11,3Zm1.15-.76-.63.42.06-.06a6.68,6.68,0,0,0,.19-3.1l.46-.45A8.29,8.29,0,0,1,74.64,39.23Zm1.12-1a7.85,7.85,0,0,0-.05-3.15l.47-.45a7.42,7.42,0,0,1,0,3.09Zm1.19-.6a12.07,12.07,0,0,1-.07,3l-.58.55a15.9,15.9,0,0,0,.2-3.13ZM76.13,31a3.4,3.4,0,0,1,.27,2.08l-.06.26-.71.75A6.71,6.71,0,0,0,76.13,31Zm-.69,7.6-.59.52A7.19,7.19,0,0,0,75,35.75l.38-.37A6.88,6.88,0,0,1,75.44,38.57Zm-.28-8.13-.65.52a5.56,5.56,0,0,0,.27-1.22l.44-.06a2.32,2.32,0,0,0-.07.59A.81.81,0,0,0,75.16,30.44ZM73.5,27.11a2,2,0,0,1,.74-1.79A1.91,1.91,0,0,0,75,28a1.35,1.35,0,0,1-1.51-.6,1.35,1.35,0,0,0,.55,1.27c-3.17-.45-1.59-3.26-1.46-3.48h0A1.76,1.76,0,0,0,73.5,27.11ZM73,21.85a2,2,0,0,1-.48,1,1.76,1.76,0,0,1-.42.35,1.33,1.33,0,0,1-.27.12,2.44,2.44,0,0,0,.44-.62,2.61,2.61,0,0,0-.16-2.44,1.62,1.62,0,0,1-.53-.25c1.44,2.58-.28,3.37-.71,3.52h-.08v0h0a2.68,2.68,0,0,1-.6,1.26c-.27.07-.57.15-.88.21a5.73,5.73,0,0,0,1.07-1.41l.22,0a2.4,2.4,0,0,1-1.82-1,3.3,3.3,0,0,1-.31-2.88,2.89,2.89,0,0,0,.68,2.11c-.11-.24-.68-2.42,0-3,1.1-.9,2.11.7,2.11.7a3.78,3.78,0,0,1-.44-1.76,4.37,4.37,0,0,0,2.53,1.5l-.49.75A3.89,3.89,0,0,1,73,21.85Zm8.27-10.26a1.88,1.88,0,0,0-.42.14c-.72.31-1.22,1-1.91,2.19l-.15.25a3.08,3.08,0,0,1-.58.64,1.7,1.7,0,0,1-1.65.28c1.92-.11,2.2-2.1,3.11-2.93a2.28,2.28,0,0,1,1.23-.54A3,3,0,0,1,81.24,11.59Zm-7-.14c1.63-.63,1.35-1.39,1.35-1.39.49.41.45,1.15-.91,1.62a5.43,5.43,0,0,0-2.53,2.12A3.75,3.75,0,0,1,74.26,11.45Zm-1.72,3.66a5.92,5.92,0,0,0,.13,2.59A1.81,1.81,0,0,1,72.54,15.11Zm.63,0a5.33,5.33,0,0,0,.31,3.14C71.9,16.33,73.17,15.06,73.17,15.06ZM74,14.7A5.76,5.76,0,0,0,74.66,19,3.13,3.13,0,0,1,74,14.7Zm.54.72A6.89,6.89,0,0,0,75,18.34,2.47,2.47,0,0,1,74.52,15.42Zm.79-2.25c.21-.93,1-.47,1.37-1.06a.79.79,0,0,1-.49.77,1.64,1.64,0,0,0,1.22-.8s0,.88-.54,1.14a2.27,2.27,0,0,0,1.34-.8c.57-.7.81-1.07,1.79-1-1.06.31-1.17,2-2.36,2.83S75,14.7,75.31,13.17Zm5.18,1.49c0,.14,0,.28,0,.43a2,2,0,0,1-.14.43s0,0,0,0a1.58,1.58,0,0,1-.24.3c-.15.16-.33.33-.52.5a2.26,2.26,0,0,0-.59.68,3.73,3.73,0,0,1,.7-1.4l.07-.09a4.1,4.1,0,0,0,.35-.5l.2-.36a4.31,4.31,0,0,0,.21-.46.06.06,0,0,0,0,0,.18.18,0,0,0,0,.05C80.5,14.3,80.5,14.47,80.49,14.66Zm1.65-2.39a.76.76,0,0,1-.17.37,1.68,1.68,0,0,1-.91.53l-.08,0-.36.14a1.86,1.86,0,0,0-.83.61,1.1,1.1,0,0,0-.14.21,4.94,4.94,0,0,0-.34.62,1.19,1.19,0,0,1-.08.16l-.06.13a4.88,4.88,0,0,1-.29.51c-.91,1.34-2.12,1.36-2.38.29a1,1,0,0,0,1,.31c.42-.12.84-.71,1.22-1.34.14-.23.27-.47.4-.69a6.85,6.85,0,0,1,.63-1c.09-.09.17-.18.26-.26s.27-.21.41-.31l.23-.14A4.27,4.27,0,0,1,82.13,12,1.86,1.86,0,0,1,82.14,12.27ZM85.6,8.36c-1.63,1.76-4,.37-4,.37A5.1,5.1,0,0,0,85.6,8.36ZM75,3.71A2.83,2.83,0,0,1,76.58,1.9a5.18,5.18,0,0,1,2.15-.19,2.52,2.52,0,0,0-.39.6,5.07,5.07,0,0,1,1.3-.73,5.16,5.16,0,0,0,1-.55H79.37c-1.2.31-2.18.23-3,.55A2.65,2.65,0,0,0,75,3.71Zm-3.32,14a5.67,5.67,0,0,1-.37-5S69.25,14.93,71.71,17.7ZM93.11,2.31A4.67,4.67,0,0,1,91.65,1h-.29A1.89,1.89,0,0,0,92.1,2,5.19,5.19,0,0,1,89.79,1h-.28A4,4,0,0,0,93.11,2.31Zm2.8.49A3.52,3.52,0,0,0,99.53,1H99a3,3,0,0,1-3.59,0h-.28A3.47,3.47,0,0,0,96.51,2,3.35,3.35,0,0,1,94.41,1h-.23a4,4,0,0,0,1.11,1.2A4.3,4.3,0,0,1,93.41,1H93.2A3.74,3.74,0,0,0,95.91,2.8ZM79.43,2.62a1.75,1.75,0,0,0-1.3,1.32A2.07,2.07,0,0,1,79.35,3a2.83,2.83,0,0,0,1-.44,2.31,2.31,0,0,1-1.06,1.22,2.09,2.09,0,0,0-1.19,1.45,3,3,0,0,1,1.29-1.09,2.85,2.85,0,0,0,1.48-2.54A2.36,2.36,0,0,1,79.43,2.62ZM98.24,16.43a11.44,11.44,0,0,1,1.44.22v-.3A7.58,7.58,0,0,0,98.24,16.43Zm1.44,18.82v-.43a21.44,21.44,0,0,0-2.75.31A21.29,21.29,0,0,0,99.68,35.25Zm0-1.46v-.41a14.94,14.94,0,0,0-2,.21A8.69,8.69,0,0,0,99.68,33.79Zm0,.71v-.41a12.41,12.41,0,0,0-2,.22A9.23,9.23,0,0,0,99.68,34.5ZM97.55,14.85s.88,0,2.13.22v-.3A18.52,18.52,0,0,0,97.55,14.85Zm2.13-9V5.66a16.83,16.83,0,0,0-1.92.08S98.54,5.75,99.68,5.87Zm-3,1.7s1.26,0,3,.23V7.53A18.63,18.63,0,0,0,96.73,7.57Zm.68-.91s.94,0,2.27.17V6.58A18.82,18.82,0,0,0,97.41,6.66Zm1.36,17.45a6.61,6.61,0,0,1,.91.19v-.22A5.79,5.79,0,0,0,98.77,24.11Zm.91-10.56v-.1c-.25,0-.5,0-.78,0C98.9,13.49,99.2,13.5,99.68,13.55Zm0,11.43v-.21a7,7,0,0,0-.89,0S99.15,24.85,99.68,25Zm-1.36-5.76a9,9,0,0,1,1.36.33v-.34A5.16,5.16,0,0,0,98.32,19.22Zm.05,1.4a8.31,8.31,0,0,1,1.31.31v-.31A4.38,4.38,0,0,0,98.37,20.62ZM95.9,8.48s1.66,0,3.78.31v-.3A21.07,21.07,0,0,0,95.9,8.48ZM98,15.61s.68.05,1.66.2v-.25A16.59,16.59,0,0,0,98,15.61Zm.5,7.1a9.34,9.34,0,0,1,1.16.27v-.3A5.17,5.17,0,0,0,98.52,22.71Zm-.1-1.39a8.87,8.87,0,0,1,1.26.29V21.3A5.4,5.4,0,0,0,98.42,21.32Zm.16,2.09a8.22,8.22,0,0,1,1.1.25v-.28A6,6,0,0,0,98.58,23.41ZM98.47,22a8.87,8.87,0,0,1,1.21.28V22A5.55,5.55,0,0,0,98.47,22Z" transform="translate(-59.22 -1.03)"/><rect class="cls-4" x="40.46" width="40.46" height="40.46"/><path class="cls-5" d="M113.28,21.26v5.87h3.14V28H111.8V21.26Z" transform="translate(-59.22 -1.03)"/><path class="cls-5" d="M119,21.26V28h-1.48V21.26Z" transform="translate(-59.22 -1.03)"/><path class="cls-5" d="M128.47,24.6c0,2.12-1.64,3.56-4,3.56a4,4,0,0,1-2.6-.85,3.41,3.41,0,0,1-1.15-2.62A3.23,3.23,0,0,1,122,22a4.25,4.25,0,0,1,2.75-.9A3.42,3.42,0,0,1,128.47,24.6Zm-6.25,0a2.54,2.54,0,0,0,2.45,2.76,2.27,2.27,0,0,0,1.41-.5,2.52,2.52,0,0,0,.83-2A2.53,2.53,0,0,0,124.45,22,2.31,2.31,0,0,0,122.22,24.56Z" transform="translate(-59.22 -1.03)"/><path class="cls-5" d="M130.07,21.26l2.54-.05a3.67,3.67,0,0,1,2.07.36,1.67,1.67,0,0,1,.84,1.51A2,2,0,0,1,133.8,25c.94,1.95,1.72,2.57,2.56,2.51l0,.05-.1.43q-.06.21-.84.21a2.26,2.26,0,0,1-2-1.1,12.33,12.33,0,0,1-1-1.89c-.2,0-.33,0-.55,0a2.24,2.24,0,0,1-.35,0V28h-1.48Zm1.48,3.15.78,0c1.12,0,1.63-.4,1.63-1.26a1,1,0,0,0-.65-1,2.75,2.75,0,0,0-1-.11h-.77Z" transform="translate(-59.22 -1.03)"/><path class="cls-6" d="M105.05,30.7l1,0H107a2.55,2.55,0,0,1,1.81.42,1.55,1.55,0,0,1,.5,1.14,1.42,1.42,0,0,1-1.08,1.43,2,2,0,0,1,.95.33,1.67,1.67,0,0,1,.71,1.4,1.93,1.93,0,0,1-1.14,1.77,4.94,4.94,0,0,1-2.21.29h-1.44Zm1.73,2.86c.67,0,.93-.06,1.19-.28a1.15,1.15,0,0,0,.38-.92,1.09,1.09,0,0,0-.46-1,1.84,1.84,0,0,0-1-.2c-.29,0-.41,0-1,0v2.33Zm0,3.34a2.53,2.53,0,0,0,1.65-.4,1.29,1.29,0,0,0,.48-1,1.24,1.24,0,0,0-.71-1.17,3.5,3.5,0,0,0-1.46-.22h-.89v2.8Z" transform="translate(-59.22 -1.03)"/><path class="cls-6" d="M114.3,30.7l2.61,6.75H116l-.8-2.19h-2.94l-.9,2.19h-.85l3.13-6.75Zm-.48.87-1.33,3.17H115Z" transform="translate(-59.22 -1.03)"/><path class="cls-6" d="M118.63,30.7l4.6,5.36-.15-5.36h.75v6.72l-.37.12-4.86-5.62.16,5.53H118V30.7Z" transform="translate(-59.22 -1.03)"/><path class="cls-6" d="M126.93,30.7v6.75h-.83V30.7Zm4.5,0-3.46,3,3.62,3.75h-1.18L127,33.84l3.36-3.14Z" transform="translate(-59.22 -1.03)"/><path class="cls-5" d="M107.65,21h-2.29l-.07.06a6.66,6.66,0,0,0-.19.71c0,.27,1.3,0,1.3,0l-3,6.25h1.31l.68-1.66h2.88l.61,1.66h1.63Zm-1.92,4.61,1.18-2.94L108,25.59Z" transform="translate(-59.22 -1.03)"/></g></g></svg>