<svg id="Warstwa_1" data-name="Warstwa 1" xmlns="http://www.w3.org/2000/svg" viewBox="0 0 62.68 40.13"><defs><style>.cls-1{fill:#231f20;}.cls-2{fill:#fff;}</style></defs><title>232</title><path class="cls-1" d="M115.92.94H63.28a7.83,7.83,0,0,0-1.18.1A4.09,4.09,0,0,0,61,1.42a3.79,3.79,0,0,0-.95.69,3.7,3.7,0,0,0-.7,1A3.88,3.88,0,0,0,59,4.19a7.72,7.72,0,0,0-.1,1.18c0,.18,0,.36,0,.54V36.09c0,.18,0,.36,0,.55a7.7,7.7,0,0,0,.1,1.17,3.88,3.88,0,0,0,.37,1.12,3.7,3.7,0,0,0,.7,1,3.79,3.79,0,0,0,.95.69A4.09,4.09,0,0,0,62.1,41a7.83,7.83,0,0,0,1.18.1H117.1a7.72,7.72,0,0,0,1.18-.1,4,4,0,0,0,1.12-.37,3.84,3.84,0,0,0,1-.69,3.67,3.67,0,0,0,.69-1,3.88,3.88,0,0,0,.37-1.12,7.7,7.7,0,0,0,.1-1.17c0-.19,0-.37,0-.55V5.91c0-.18,0-.36,0-.54a7.72,7.72,0,0,0-.1-1.18,3.88,3.88,0,0,0-.37-1.12,3.67,3.67,0,0,0-.69-1,3.84,3.84,0,0,0-1-.69,4,4,0,0,0-1.12-.37A7.72,7.72,0,0,0,117.1,1h-1.18Z" transform="translate(-58.85 -0.94)"/><path class="cls-2" d="M115.92,2.27h1.15a6.61,6.61,0,0,1,1,.09,2.51,2.51,0,0,1,.76.24,2.54,2.54,0,0,1,1.06,1.06,2.87,2.87,0,0,1,.24.75,5.63,5.63,0,0,1,.08,1c0,.17,0,.34,0,.52V36.09c0,.17,0,.34,0,.51a5.63,5.63,0,0,1-.08,1,2.87,2.87,0,0,1-.24.75,2.67,2.67,0,0,1-.45.61,2.52,2.52,0,0,1-.62.45,2.38,2.38,0,0,1-.74.24,7.28,7.28,0,0,1-1,.09H63.32a7,7,0,0,1-1-.09,2.45,2.45,0,0,1-.75-.24,2.52,2.52,0,0,1-.62-.45,2.47,2.47,0,0,1-.45-.61,2.87,2.87,0,0,1-.24-.75,5.63,5.63,0,0,1-.08-1c0-.17,0-.34,0-.51V5.92c0-.18,0-.35,0-.52a5.63,5.63,0,0,1,.08-1,2.55,2.55,0,0,1,.25-.75A2.37,2.37,0,0,1,61,3.06a2.52,2.52,0,0,1,.62-.45,2.36,2.36,0,0,1,.75-.24,6.74,6.74,0,0,1,1-.09h52.6" transform="translate(-58.85 -0.94)"/><path class="cls-1" d="M75.33,14.48A3.44,3.44,0,0,0,76.12,12a3.47,3.47,0,0,0-2.27,1.18A3.23,3.23,0,0,0,73,15.56a2.85,2.85,0,0,0,2.3-1.08" transform="translate(-58.85 -0.94)"/><path class="cls-1" d="M76.11,15.73c-1.26-.07-2.34.72-3,.72s-1.53-.68-2.53-.66a3.74,3.74,0,0,0-3.18,1.93c-1.37,2.35-.36,5.83,1,7.75.65.94,1.42,2,2.44,2s1.35-.63,2.52-.63,1.51.63,2.54.61,1.72-.95,2.36-1.9a8.38,8.38,0,0,0,1.06-2.17,3.45,3.45,0,0,1-2.06-3.13,3.51,3.51,0,0,1,1.66-2.93,3.6,3.6,0,0,0-2.82-1.54" transform="translate(-58.85 -0.94)"/><path class="cls-1" d="M88.76,13.1a4.45,4.45,0,0,1,4.67,4.66,4.51,4.51,0,0,1-4.74,4.69h-3V27.3H83.43V13.1Zm-3.12,7.5h2.53c1.92,0,3-1,3-2.83S90.09,15,88.18,15H85.64Z" transform="translate(-58.85 -0.94)"/><path class="cls-1" d="M94,24.36c0-1.82,1.39-2.87,4-3l2.74-.16v-.79c0-1.15-.76-1.78-2.1-1.78a1.93,1.93,0,0,0-2.09,1.45h-2c.06-1.85,1.79-3.18,4.14-3.18,2.52,0,4.16,1.32,4.16,3.36V27.3h-2V25.6h0a3.63,3.63,0,0,1-3.25,1.81C95.41,27.41,94,26.19,94,24.36Zm6.69-.92v-.8l-2.45.16c-1.38.09-2.09.6-2.09,1.5s.74,1.43,1.91,1.43A2.41,2.41,0,0,0,100.67,23.44Z" transform="translate(-58.85 -0.94)"/><path class="cls-1" d="M104.66,31.1V29.4a6.3,6.3,0,0,0,.65,0A1.75,1.75,0,0,0,107.17,28l.2-.63L103.64,17h2.3l2.6,8.39h0l2.6-8.39h2.24l-3.87,10.86c-.88,2.49-1.9,3.31-4,3.31A6,6,0,0,1,104.66,31.1Z" transform="translate(-58.85 -0.94)"/></svg>