<svg id="Warstwa_1" data-name="Warstwa 1" xmlns="http://www.w3.org/2000/svg" viewBox="0 0 79.89 36.89"><defs><style>.cls-1{fill:#3a3e95;}</style></defs><title>143x42 svg Bank Nowy BFG S.A.</title><path class="cls-1" d="M40.94,13a2.36,2.36,0,0,1,.68.76,2.11,2.11,0,0,1,.27,1.08,2.45,2.45,0,0,1-.3,1.26,2.07,2.07,0,0,1-.87.81,4.53,4.53,0,0,1-1.36.45,10.91,10.91,0,0,1-1.83.13H32.67V16.9l.51-.06a2.69,2.69,0,0,0,.44-.09.62.62,0,0,0,.33-.28A.93.93,0,0,0,34,16V9.13A1,1,0,0,0,34,8.72a.66.66,0,0,0-.35-.29,2.72,2.72,0,0,0-.48-.15l-.47-.09V7.65h5.09a5.26,5.26,0,0,1,2.77.55,1.83,1.83,0,0,1,.85,1.63,2,2,0,0,1-.19.87,1.89,1.89,0,0,1-.55.65,3.55,3.55,0,0,1-.77.45,7.89,7.89,0,0,1-1,.31v.13a4.31,4.31,0,0,1,1.07.24A3.8,3.8,0,0,1,40.94,13ZM38.81,10a1.77,1.77,0,0,0-.44-1.27,1.75,1.75,0,0,0-1.31-.45h-.68v3.63h.35a2.09,2.09,0,0,0,1.57-.52A1.92,1.92,0,0,0,38.81,10Zm.46,4.71a2,2,0,0,0-.58-1.57A2.3,2.3,0,0,0,37,12.59h-.33l-.31,0v3.59a.72.72,0,0,0,.37.43,1.49,1.49,0,0,0,.75.17,1.62,1.62,0,0,0,1.28-.55A2.25,2.25,0,0,0,39.27,14.71Z" transform="translate(-32.67 -2.51)"/><path class="cls-1" d="M50.52,17.3a4.1,4.1,0,0,1-.68.24,3.34,3.34,0,0,1-.84.11,2.17,2.17,0,0,1-1.19-.25,1.24,1.24,0,0,1-.52-.72h0a5.15,5.15,0,0,1-.44.4,2.2,2.2,0,0,1-.44.28,3.48,3.48,0,0,1-.6.23,3.37,3.37,0,0,1-.8.07,1.9,1.9,0,0,1-1.31-.47,1.58,1.58,0,0,1-.54-1.25,2.18,2.18,0,0,1,.12-.77,2,2,0,0,1,.33-.56,2.28,2.28,0,0,1,.46-.36A5,5,0,0,1,44.6,14c.4-.15.88-.31,1.43-.47a8.5,8.5,0,0,0,1.22-.44V12.4q0-.17,0-.45a1.54,1.54,0,0,0-.11-.48.87.87,0,0,0-.29-.37A.84.84,0,0,0,46.3,11a1.36,1.36,0,0,0-.49.08,1.7,1.7,0,0,0-.31.18,2.64,2.64,0,0,0,.11.42,1.81,1.81,0,0,1,.09.55,1,1,0,0,1-.06.29.6.6,0,0,1-.17.28,1.08,1.08,0,0,1-.34.21,1.63,1.63,0,0,1-.58.08,1.14,1.14,0,0,1-.84-.28,1,1,0,0,1-.28-.73.94.94,0,0,1,.29-.69,2.35,2.35,0,0,1,.72-.51,3.53,3.53,0,0,1,1-.32,4.69,4.69,0,0,1,1-.12,8.49,8.49,0,0,1,1.17.08,2.87,2.87,0,0,1,1,.33,1.69,1.69,0,0,1,.65.7,2.61,2.61,0,0,1,.25,1.2c0,.52,0,1.14,0,1.85s0,1.18,0,1.41a1.1,1.1,0,0,0,.09.49.55.55,0,0,0,.27.27.92.92,0,0,0,.35.06h.44Zm-3.27-3.6c-.25.09-.49.19-.74.3a2.87,2.87,0,0,0-.59.36,1.35,1.35,0,0,0-.39.49,1.73,1.73,0,0,0-.14.71,1.07,1.07,0,0,0,.24.78.76.76,0,0,0,.58.25,1,1,0,0,0,.6-.16,1.84,1.84,0,0,0,.41-.38Z" transform="translate(-32.67 -2.51)"/><path class="cls-1" d="M59.89,17.44h-4v-.5l.31,0a.9.9,0,0,0,.27-.06.48.48,0,0,0,.19-.23,1.1,1.1,0,0,0,.06-.42V13a1.8,1.8,0,0,0-.25-1.06.81.81,0,0,0-.73-.36,1.57,1.57,0,0,0-.49.08,2,2,0,0,0-.45.25,1.36,1.36,0,0,0-.3.28l-.2.25v3.71a.93.93,0,0,0,.07.4.45.45,0,0,0,.22.25,1.07,1.07,0,0,0,.26.11,1.73,1.73,0,0,0,.31.07v.5h-4v-.5l.33,0,.29-.06a.51.51,0,0,0,.29-.24,1,1,0,0,0,.08-.41v-4a.92.92,0,0,0-.69-.9,1.59,1.59,0,0,0-.4-.07v-.51l3.15-.18.1.11v1h0l.45-.42a4.59,4.59,0,0,1,.48-.39,2.24,2.24,0,0,1,.64-.28,3,3,0,0,1,.85-.12,2,2,0,0,1,1.61.64,2.52,2.52,0,0,1,.54,1.69v3.38a.94.94,0,0,0,.07.41.54.54,0,0,0,.27.24,1.28,1.28,0,0,0,.26.1,1.91,1.91,0,0,0,.36.07Z" transform="translate(-32.67 -2.51)"/><path class="cls-1" d="M69.12,17.44H66c-.39-.7-.74-1.29-1.05-1.78s-.62-.95-.9-1.36l-.39.34v1.51a.93.93,0,0,0,.07.4.46.46,0,0,0,.27.24,1.54,1.54,0,0,0,.28.09,1.7,1.7,0,0,0,.31.06v.5H60.5v-.5l.34,0,.29-.06a.51.51,0,0,0,.29-.24,1,1,0,0,0,.07-.41V8.49A1.35,1.35,0,0,0,61.4,8a.78.78,0,0,0-.28-.37,1.17,1.17,0,0,0-.38-.14,2.76,2.76,0,0,0-.45-.07v-.5l3.28-.18.1.11V14c.33-.3.69-.66,1.1-1.06s.73-.73,1-1a1.07,1.07,0,0,0,.24-.35c0-.09,0-.13,0-.15s-.07-.15-.21-.21a3.11,3.11,0,0,0-.62-.15v-.49h3.35v.48a7.28,7.28,0,0,0-1,.36,6.64,6.64,0,0,0-.75.46,6.41,6.41,0,0,0-.52.39,7.24,7.24,0,0,0-.59.51l1.2,1.81L68,16.37a1,1,0,0,0,.51.43,2.57,2.57,0,0,0,.61.14Z" transform="translate(-32.67 -2.51)"/><path class="cls-1" d="M83.75,8.19l-.53.07a1.39,1.39,0,0,0-.62.27,1,1,0,0,0-.35.64,6.33,6.33,0,0,0-.1,1.33v7H81L75.14,9.93v4.59a6,6,0,0,0,.11,1.3,1.22,1.22,0,0,0,.35.66,1.68,1.68,0,0,0,.57.27,5.86,5.86,0,0,0,.62.15v.54h-4V16.9a3,3,0,0,0,.6-.1,1.46,1.46,0,0,0,.55-.24,1.09,1.09,0,0,0,.36-.6,7.14,7.14,0,0,0,.09-1.36V10a2,2,0,0,0-.1-.65,1.42,1.42,0,0,0-.32-.53,1.64,1.64,0,0,0-.53-.37,3.19,3.19,0,0,0-.68-.21V7.65h3.52l5.12,6.62v-3.7a6,6,0,0,0-.11-1.32,1.27,1.27,0,0,0-.36-.64,1.9,1.9,0,0,0-.57-.27,5.17,5.17,0,0,0-.6-.15V7.65h4Z" transform="translate(-32.67 -2.51)"/><path class="cls-1" d="M91.15,11.41a3.26,3.26,0,0,1,.74,1.14A4,4,0,0,1,92.15,14a4.06,4.06,0,0,1-.26,1.45,3.12,3.12,0,0,1-.74,1.16,3.58,3.58,0,0,1-1.24.8,4.7,4.7,0,0,1-1.66.27,4.42,4.42,0,0,1-1.48-.24,3.36,3.36,0,0,1-1.19-.72,3.3,3.3,0,0,1-.8-1.15A3.89,3.89,0,0,1,84.49,14a4,4,0,0,1,.26-1.47,3.34,3.34,0,0,1,.76-1.15,3.49,3.49,0,0,1,1.2-.75,5,5,0,0,1,3.23,0A3.64,3.64,0,0,1,91.15,11.41Zm-1.69,4.78a4.72,4.72,0,0,0,.21-.94A9.56,9.56,0,0,0,89.74,14a9.14,9.14,0,0,0-.07-1.1,4.46,4.46,0,0,0-.19-1A1.82,1.82,0,0,0,89,11.2a1.08,1.08,0,0,0-.71-.25,1,1,0,0,0-.75.27,1.7,1.7,0,0,0-.43.7,3.4,3.4,0,0,0-.19.92,9.73,9.73,0,0,0-.06,1.1c0,.5,0,.92,0,1.25a3.92,3.92,0,0,0,.22,1,1.64,1.64,0,0,0,.44.68,1.08,1.08,0,0,0,.72.24,1,1,0,0,0,.68-.23A1.5,1.5,0,0,0,89.46,16.19Z" transform="translate(-32.67 -2.51)"/><path class="cls-1" d="M104.52,11.1a1.41,1.41,0,0,0-.56.21,1.26,1.26,0,0,0-.43.6c-.31.79-.56,1.43-.74,1.91s-.45,1.18-.78,2.09c-.07.19-.15.45-.25.78l-.24.81h-1.29l-1.66-4.69L97,17.5H95.74c-.44-1.25-.79-2.23-1-2.92s-.59-1.61-1-2.74a.94.94,0,0,0-.41-.51,1.35,1.35,0,0,0-.59-.23v-.51h4v.51a2.79,2.79,0,0,0-.53.11c-.21.06-.31.14-.31.24a.22.22,0,0,0,0,.12s0,.1,0,.19c.12.36.28.83.49,1.4l.73,2,1.46-4.55h1.31l1.67,4.69c.25-.7.45-1.26.59-1.67l.52-1.57a1.85,1.85,0,0,0,.06-.26v-.15a.28.28,0,0,0-.12-.22,1.1,1.1,0,0,0-.28-.17l-.32-.09a1.66,1.66,0,0,0-.26-.05v-.51h2.72Z" transform="translate(-32.67 -2.51)"/><path class="cls-1" d="M112.42,11.1a1.5,1.5,0,0,0-.58.23,1.45,1.45,0,0,0-.46.58c-.38.84-.77,1.73-1.17,2.68s-.84,2-1.33,3.07a9.08,9.08,0,0,1-.8,1.47,4.39,4.39,0,0,1-.71.85,2.13,2.13,0,0,1-.63.4,1.58,1.58,0,0,1-.63.13,1.38,1.38,0,0,1-1-.37,1.1,1.1,0,0,1-.39-.82,1.36,1.36,0,0,1,.05-.36.75.75,0,0,1,.18-.34.85.85,0,0,1,.32-.26,1.18,1.18,0,0,1,.5-.11,1.13,1.13,0,0,1,.71.27,4.74,4.74,0,0,1,.7.75,6.91,6.91,0,0,0,.53-.69,3.14,3.14,0,0,0,.47-.93c-.52-1.15-1-2.14-1.39-3l-1.35-2.82a1.34,1.34,0,0,0-.45-.52,1.42,1.42,0,0,0-.58-.22v-.51h4v.51a1.82,1.82,0,0,0-.51.1c-.2.07-.29.15-.29.25a.49.49,0,0,0,0,.12,2.05,2.05,0,0,0,.08.19l.63,1.34q.42.86,1,2c.27-.65.51-1.22.7-1.69l.55-1.38a1.2,1.2,0,0,0,.08-.27,1,1,0,0,0,0-.14.29.29,0,0,0-.12-.22,1.13,1.13,0,0,0-.27-.16,1.39,1.39,0,0,0-.31-.1l-.25-.05v-.51h2.72Z" transform="translate(-32.67 -2.51)"/><path class="cls-1" d="M40.94,30a2.36,2.36,0,0,1,.68.76,2.11,2.11,0,0,1,.27,1.08,2.45,2.45,0,0,1-.3,1.26,2,2,0,0,1-.87.81,4.27,4.27,0,0,1-1.36.45,10.91,10.91,0,0,1-1.83.13H32.67v-.53l.51-.07a1.92,1.92,0,0,0,.44-.09.62.62,0,0,0,.33-.28A.91.91,0,0,0,34,33V26.13a1,1,0,0,0-.07-.41.66.66,0,0,0-.35-.29,2.72,2.72,0,0,0-.48-.15l-.47-.09v-.54h5.09a5.26,5.26,0,0,1,2.77.55,1.83,1.83,0,0,1,.85,1.63,2,2,0,0,1-.19.87,1.89,1.89,0,0,1-.55.65,3.19,3.19,0,0,1-.77.45,7.89,7.89,0,0,1-1,.31v.13a4.82,4.82,0,0,1,1.07.24A3.8,3.8,0,0,1,40.94,30ZM38.81,27a1.78,1.78,0,0,0-.44-1.27,1.75,1.75,0,0,0-1.31-.45h-.68v3.63h.35a2.09,2.09,0,0,0,1.57-.52A1.91,1.91,0,0,0,38.81,27Zm.46,4.71a2,2,0,0,0-.58-1.57A2.3,2.3,0,0,0,37,29.59h-.33l-.31,0v3.59a.72.72,0,0,0,.37.43,1.49,1.49,0,0,0,.75.18,1.63,1.63,0,0,0,1.28-.56A2.24,2.24,0,0,0,39.27,31.71Z" transform="translate(-32.67 -2.51)"/><path class="cls-1" d="M51.46,27.26H51a4.29,4.29,0,0,0-.68-1.21,1.58,1.58,0,0,0-.92-.71l-.52,0c-.22,0-.42,0-.61,0H46.77v3.83h.93a2.29,2.29,0,0,0,.68-.09,1.16,1.16,0,0,0,.52-.33,2,2,0,0,0,.32-.58,3.66,3.66,0,0,0,.19-.69h.5v4.12h-.5a2.84,2.84,0,0,0-.21-.76,2.54,2.54,0,0,0-.3-.59,1.12,1.12,0,0,0-.49-.33,2.17,2.17,0,0,0-.71-.1h-.93V33a1,1,0,0,0,.08.42.66.66,0,0,0,.34.29,2.85,2.85,0,0,0,.4.12l.51.08v.53H43.05v-.53l.51-.06a1.69,1.69,0,0,0,.44-.1.57.57,0,0,0,.33-.27.93.93,0,0,0,.09-.44V26.13a.91.91,0,0,0-.08-.41.63.63,0,0,0-.34-.29,1.91,1.91,0,0,0-.49-.15,3.26,3.26,0,0,0-.46-.09v-.54h8.41Z" transform="translate(-32.67 -2.51)"/><path class="cls-1" d="M62.7,30.46l-.36.05a2.25,2.25,0,0,0-.4.11.55.55,0,0,0-.36.3,1.22,1.22,0,0,0-.08.43v1.7c0,.14,0,.31,0,.52a8.3,8.3,0,0,1-2,.78,8.87,8.87,0,0,1-2.37.36,5.71,5.71,0,0,1-1.91-.32,4.39,4.39,0,0,1-1.56-1,4.48,4.48,0,0,1-1.06-1.59,5.73,5.73,0,0,1-.38-2.18,6.1,6.1,0,0,1,.36-2.13,4.74,4.74,0,0,1,1.05-1.67,4.43,4.43,0,0,1,1.64-1.08,5.66,5.66,0,0,1,2.14-.38,5.4,5.4,0,0,1,1.48.2,6.49,6.49,0,0,1,1.12.45l.41-.38h.57l.06,3.57h-.58a6.39,6.39,0,0,0-1.2-2.39,2.29,2.29,0,0,0-1.77-.78,2.16,2.16,0,0,0-2,1.16,6.37,6.37,0,0,0-.68,3.2,7,7,0,0,0,.67,3.38A2.1,2.1,0,0,0,57.52,34a2.74,2.74,0,0,0,1-.19,2.09,2.09,0,0,0,.7-.42v-2a.9.9,0,0,0-.08-.42.72.72,0,0,0-.34-.29,2,2,0,0,0-.5-.16l-.49-.09v-.54H62.7Z" transform="translate(-32.67 -2.51)"/><path class="cls-1" d="M70.83,34.71a5.53,5.53,0,0,1-1.6-.22A5.87,5.87,0,0,1,68,34l-.46.48H67l-.08-3.54h.56A9.82,9.82,0,0,0,67.93,32a5.2,5.2,0,0,0,.69,1,3.53,3.53,0,0,0,.9.75,2.2,2.2,0,0,0,1.16.3,2,2,0,0,0,1.38-.46,1.55,1.55,0,0,0,.48-1.16,1.32,1.32,0,0,0-.41-1,3.34,3.34,0,0,0-1.26-.67l-1-.35c-.31-.1-.6-.21-.87-.32A2.86,2.86,0,0,1,67.58,29a3,3,0,0,1-.46-1.64,2.63,2.63,0,0,1,.24-1.1,3,3,0,0,1,.69-.95,3.26,3.26,0,0,1,1.12-.64,4.13,4.13,0,0,1,1.47-.25,4.34,4.34,0,0,1,1.46.23,6,6,0,0,1,1.07.45l.4-.41h.58l0,3.34h-.57c-.13-.36-.28-.73-.46-1.11A5,5,0,0,0,72.6,26a2.5,2.5,0,0,0-.74-.64,2,2,0,0,0-1-.24,1.65,1.65,0,0,0-1.17.42,1.37,1.37,0,0,0-.45,1,1.28,1.28,0,0,0,.39,1,3.41,3.41,0,0,0,1.23.65l1,.35c.34.11.64.22.91.33a3.19,3.19,0,0,1,1.45,1.07,2.8,2.8,0,0,1,.5,1.69,2.83,2.83,0,0,1-.28,1.23,3,3,0,0,1-.77,1,3.9,3.9,0,0,1-1.22.67A5.23,5.23,0,0,1,70.83,34.71Z" transform="translate(-32.67 -2.51)"/><path class="cls-1" d="M78.89,33.3a1.28,1.28,0,0,1-.38.94,1.22,1.22,0,0,1-.92.4,1.26,1.26,0,0,1-.92-.39,1.35,1.35,0,0,1-.38-1,1.37,1.37,0,0,1,.38-1,1.24,1.24,0,0,1,.92-.4,1.22,1.22,0,0,1,.92.4A1.34,1.34,0,0,1,78.89,33.3Z" transform="translate(-32.67 -2.51)"/><path class="cls-1" d="M90.57,34.44h-5.1v-.53a6.65,6.65,0,0,0,.84-.14q.48-.1.48-.27s0-.07,0-.12a1.3,1.3,0,0,0-.06-.19l-.8-2H82.69c-.07.19-.16.41-.25.67s-.16.48-.23.67a5.6,5.6,0,0,0-.15.56c0,.12,0,.2,0,.24s.11.28.32.38a3.53,3.53,0,0,0,1.06.23v.53H79.58v-.53a3.66,3.66,0,0,0,.5-.08,1.33,1.33,0,0,0,.43-.16,1.81,1.81,0,0,0,.46-.41,2.21,2.21,0,0,0,.31-.57l1.53-3.89c.52-1.29,1.08-2.73,1.7-4.29h1.32c.87,2.22,1.54,4,2,5.26s.9,2.36,1.25,3.2a1.28,1.28,0,0,0,.59.7,1.68,1.68,0,0,0,.43.17,4.39,4.39,0,0,0,.44.07Zm-4.92-4L84.3,26.94,83,30.48Z" transform="translate(-32.67 -2.51)"/><path class="cls-1" d="M93.87,33.3a1.28,1.28,0,0,1-.38.94,1.22,1.22,0,0,1-.92.4,1.26,1.26,0,0,1-.92-.39,1.35,1.35,0,0,1-.38-1,1.37,1.37,0,0,1,.38-1,1.24,1.24,0,0,1,.92-.4,1.22,1.22,0,0,1,.92.4A1.34,1.34,0,0,1,93.87,33.3Z" transform="translate(-32.67 -2.51)"/><rect class="cls-1" x="0.42" width="79.47" height="0.26"/><rect class="cls-1" x="0.1" y="36.64" width="79.47" height="0.26"/></svg>