<svg id="Warstwa_1" data-name="Warstwa 1" xmlns="http://www.w3.org/2000/svg" viewBox="0 0 163.97 29.75"><defs><style>.cls-1{fill:#e21f26;}.cls-2{fill:#19345b;}</style></defs><title>141</title><path class="cls-1" d="M73,12.05a7.87,7.87,0,0,1,2.35.31,4.56,4.56,0,0,1,1.65.89,3.56,3.56,0,0,1,1,1.39,4.8,4.8,0,0,1,.32,1.82,4.68,4.68,0,0,1-.34,1.82,4,4,0,0,1-1,1.42,5,5,0,0,1-1.66.93A7.21,7.21,0,0,1,73,21H70.68v5.32H68.76V12.05Zm0,7.38a4.35,4.35,0,0,0,1.46-.22,3.14,3.14,0,0,0,1.06-.61,2.48,2.48,0,0,0,.65-.94,3.29,3.29,0,0,0,.22-1.2,2.74,2.74,0,0,0-.84-2.13A3.68,3.68,0,0,0,73,13.57H70.68v5.86Z" transform="translate(-7.3 -4.69)"/><path class="cls-1" d="M83.45,16.06a5,5,0,0,1,2,.37,4.13,4.13,0,0,1,1.51,1,4.53,4.53,0,0,1,1,1.64,6.9,6.9,0,0,1,0,4.28,4.49,4.49,0,0,1-1,1.63,4.13,4.13,0,0,1-1.51,1,5.18,5.18,0,0,1-2,.36,5.28,5.28,0,0,1-2-.36,4.25,4.25,0,0,1-1.52-1,4.79,4.79,0,0,1-1-1.63,7.1,7.1,0,0,1,0-4.28,4.83,4.83,0,0,1,1-1.64,4.25,4.25,0,0,1,1.52-1A5.09,5.09,0,0,1,83.45,16.06Zm0,9a2.57,2.57,0,0,0,2.22-1,4.59,4.59,0,0,0,.74-2.78,4.64,4.64,0,0,0-.74-2.8,2.57,2.57,0,0,0-2.22-1,3.17,3.17,0,0,0-1.32.26,2.42,2.42,0,0,0-.93.75,3.37,3.37,0,0,0-.56,1.19,6.61,6.61,0,0,0-.18,1.61A4.59,4.59,0,0,0,81.2,24,2.6,2.6,0,0,0,83.45,25Z" transform="translate(-7.3 -4.69)"/><path class="cls-1" d="M96.93,18a.86.86,0,0,1-.15.17.38.38,0,0,1-.22.06.56.56,0,0,1-.33-.13l-.44-.27a3.35,3.35,0,0,0-.65-.27,2.84,2.84,0,0,0-.94-.13,3,3,0,0,0-1.31.27,2.49,2.49,0,0,0-1,.76,3.52,3.52,0,0,0-.57,1.2,5.88,5.88,0,0,0-.2,1.58,5.68,5.68,0,0,0,.21,1.62A3.58,3.58,0,0,0,92,24.06a2.65,2.65,0,0,0,.93.74,2.79,2.79,0,0,0,1.21.25,3.24,3.24,0,0,0,1.07-.15,3.4,3.4,0,0,0,.69-.35,5.22,5.22,0,0,0,.45-.34.61.61,0,0,1,.37-.15.36.36,0,0,1,.33.17l.5.64a4.07,4.07,0,0,1-.74.7,4.72,4.72,0,0,1-1.91.76,6.35,6.35,0,0,1-1.07.09A4.46,4.46,0,0,1,92,26.07a4,4,0,0,1-1.4-1,4.73,4.73,0,0,1-.93-1.63,6.46,6.46,0,0,1-.34-2.19,6.62,6.62,0,0,1,.31-2.08,4.76,4.76,0,0,1,.91-1.64,4.23,4.23,0,0,1,1.48-1.08A5.4,5.4,0,0,1,96,16.4a4.64,4.64,0,0,1,1.43,1Z" transform="translate(-7.3 -4.69)"/><path class="cls-1" d="M105.82,17a1.13,1.13,0,0,1-.06.36.92.92,0,0,1-.17.31l-5.46,7.25h5.51v1.38H98.06v-.73a1,1,0,0,1,.06-.31,1.35,1.35,0,0,1,.18-.33l5.48-7.3H98.37V16.22h7.45Z" transform="translate(-7.3 -4.69)"/><path class="cls-1" d="M110.41,26.44a2.44,2.44,0,0,1-1.83-.66,2.67,2.67,0,0,1-.64-1.92V17.7h-1.21a.4.4,0,0,1-.27-.09.39.39,0,0,1-.11-.3v-.7L108,16.4l.41-3.11a.4.4,0,0,1,.4-.34h.9v3.47h2.91V17.7h-2.91v6a1.29,1.29,0,0,0,.3.94,1.07,1.07,0,0,0,.8.31,1.39,1.39,0,0,0,.48-.07,1.9,1.9,0,0,0,.35-.17l.26-.16a.34.34,0,0,1,.18-.08.31.31,0,0,1,.25.17l.52.85a3.43,3.43,0,0,1-1.11.67A3.77,3.77,0,0,1,110.41,26.44Z" transform="translate(-7.3 -4.69)"/><path class="cls-1" d="M118.1,16.06a5.08,5.08,0,0,1,2,.37,4.21,4.21,0,0,1,1.51,1,4.66,4.66,0,0,1,1,1.64,6.9,6.9,0,0,1,0,4.28,4.61,4.61,0,0,1-1,1.63,4.21,4.21,0,0,1-1.51,1,5.71,5.71,0,0,1-4,0,4.25,4.25,0,0,1-1.52-1,4.61,4.61,0,0,1-1-1.63,6.9,6.9,0,0,1,0-4.28,4.66,4.66,0,0,1,1-1.64,4.25,4.25,0,0,1,1.52-1A5.09,5.09,0,0,1,118.1,16.06Zm0,9a2.57,2.57,0,0,0,2.22-1,4.59,4.59,0,0,0,.74-2.78,4.64,4.64,0,0,0-.74-2.8,2.57,2.57,0,0,0-2.22-1,3.2,3.2,0,0,0-1.32.26,2.42,2.42,0,0,0-.93.75,3.37,3.37,0,0,0-.56,1.19,6.61,6.61,0,0,0-.18,1.61,4.59,4.59,0,0,0,.74,2.78A2.6,2.6,0,0,0,118.1,25Z" transform="translate(-7.3 -4.69)"/><path class="cls-1" d="M138.31,16.22l-3.26,10.06h-1.4c-.17,0-.29-.11-.36-.34l-2.22-6.82a4,4,0,0,1-.13-.46c0-.16-.07-.31-.1-.46,0,.15-.06.3-.1.46a3,3,0,0,1-.13.47l-2.26,6.81a.39.39,0,0,1-.4.34h-1.33l-3.26-10.06h1.39a.61.61,0,0,1,.36.11.53.53,0,0,1,.19.26l1.93,6.47c.11.48.2.93.26,1.35.06-.21.13-.44.19-.66s.13-.45.2-.69L130,16.55a.53.53,0,0,1,.17-.25.44.44,0,0,1,.3-.1h.78a.52.52,0,0,1,.33.1.64.64,0,0,1,.18.25l2.07,6.51c.07.24.14.46.2.69s.12.45.17.66q0-.32.12-.66c0-.22.11-.45.17-.69l2-6.47a.51.51,0,0,1,.19-.26.52.52,0,0,1,.33-.11Z" transform="translate(-7.3 -4.69)"/><path class="cls-1" d="M148.18,16.22l-5.61,13a1,1,0,0,1-.22.32.61.61,0,0,1-.41.12h-1.32l1.84-4-4.15-9.48h1.53a.52.52,0,0,1,.36.12.64.64,0,0,1,.19.25l2.69,6.33c.1.28.19.57.27.88.09-.31.19-.61.29-.88l2.62-6.33a.43.43,0,0,1,.2-.26.52.52,0,0,1,.32-.11Z" transform="translate(-7.3 -4.69)"/><path class="cls-1" d="M27.06,8.16,27.4,8C29.85,7,32.27,5.9,34.73,4.9a5.09,5.09,0,0,1,1.84-.21c1.14,0,1.65.49,1.43,1.63a10.68,10.68,0,0,1-1,2.76c-.67,1.32-1.56,2.54-2.2,3.88a13.75,13.75,0,0,0-1.31,9.21c1,4.52,4.83,7,9.64,6.5C49.3,28,53.89,24.75,57.69,20.1c.74-.91,1.39-1.9,2.08-2.86.39-.53.95-.92,1.48-.46a1.57,1.57,0,0,1,.29,1.46c-3.82,7.18-8.74,13.23-17,15.53-5,1.4-9.85.51-14.43-1.8-2.22-1.11-4.36-2.36-6.58-3.47A21.89,21.89,0,0,0,14.09,26c-1.39,0-2.78.2-4.17.25-.89,0-1.92.1-2.42-.82A2.17,2.17,0,0,1,8.12,23c1.49-1.76,3.09-3.44,4.64-5.15l.29.2c-.06.33-.13.67-.2,1A3,3,0,0,0,15,22.78a7.78,7.78,0,0,0,4.68,0,19.45,19.45,0,0,0,10.93-7.11,9.43,9.43,0,0,0,1.18-2.1c1.15-2.78-.19-4.9-3.2-5.13-.45,0-.9,0-1.35,0Z" transform="translate(-7.3 -4.69)"/><path class="cls-1" d="M47.57,13.72c3.28,0,5,2.64,3.7,5.66a7.1,7.1,0,0,1-7.38,4A3.68,3.68,0,0,1,41,18.33,7.14,7.14,0,0,1,47.57,13.72Z" transform="translate(-7.3 -4.69)"/><path class="cls-2" d="M24.36,12.7c2,0,2.69,1.07,1.86,2.45a7.26,7.26,0,0,1-6,3.67c-1.63.09-2.3-1-1.47-2.43A7.4,7.4,0,0,1,24.36,12.7Z" transform="translate(-7.3 -4.69)"/><path class="cls-2" d="M159.48,24.29a.6.6,0,0,1,.44.16.57.57,0,0,1,.16.42v1.05h-9.22v-.59a1.06,1.06,0,0,1,.07-.38.92.92,0,0,1,.24-.35l4.44-4.46c.36-.37.7-.73,1-1.07a7.72,7.72,0,0,0,.77-1,4.8,4.8,0,0,0,.49-1.06,3.49,3.49,0,0,0,.18-1.14,2.72,2.72,0,0,0-.2-1.07,1.94,1.94,0,0,0-.52-.75,2.2,2.2,0,0,0-.79-.45,3.24,3.24,0,0,0-1.95,0,2.62,2.62,0,0,0-.79.43,2.54,2.54,0,0,0-.57.65,2.88,2.88,0,0,0-.33.83.72.72,0,0,1-.31.45A.82.82,0,0,1,152,16l-.89-.15a5,5,0,0,1,.52-1.67,4,4,0,0,1,1-1.23,4.21,4.21,0,0,1,1.35-.74,5.19,5.19,0,0,1,1.65-.26,5.08,5.08,0,0,1,1.64.26,3.88,3.88,0,0,1,1.33.76,3.6,3.6,0,0,1,.88,1.21,4,4,0,0,1,.31,1.62,4.22,4.22,0,0,1-.23,1.44,5.06,5.06,0,0,1-.63,1.25,8.8,8.8,0,0,1-.91,1.17c-.34.38-.71.77-1.09,1.15l-3.65,3.73a7.25,7.25,0,0,1,.78-.17,5.06,5.06,0,0,1,.76-.06Z" transform="translate(-7.3 -4.69)"/><path class="cls-2" d="M171.27,20.93v1a.39.39,0,0,1-.09.26.36.36,0,0,1-.28.11h-1.72v3.64h-1.51V22.28h-6.14a.52.52,0,0,1-.33-.11.57.57,0,0,1-.18-.28l-.17-.88,6.72-8.93h1.61v8.85Zm-3.6,0V15.22c0-.17,0-.35,0-.55s0-.4.06-.61l-5,6.87Z" transform="translate(-7.3 -4.69)"/></svg>