<svg id="Warstwa_1" data-name="Warstwa 1" xmlns="http://www.w3.org/2000/svg" viewBox="0 0 184.02 28.83"><defs><style>.cls-1{fill:#d71920;}.cls-2{fill:#231f20;}</style></defs><title>65</title><polygon class="cls-1" points="46.97 0 46.97 28.82 47.96 28.82 47.98 0.01 46.97 0 46.97 0"/><path class="cls-1" d="M39.37,25.75s5,1.9,4.39,9h.07c.21-.45,3.13-6.69-1.5-9.57a9.15,9.15,0,0,0-1.62-8.84c-1.78-2.17-5-4.23-11-3.37,0,0-7.37-12.3-18.79-4.23A5.29,5.29,0,0,1,10,13.52l0,0c1.73-1,10-8.69,18.94.48,0,0,14.14-1.31,10.39,11.73Z" transform="translate(-4.42 -6)"/><path class="cls-1" d="M21.55,26.53s3.63-4.4,7.75-.38a6,6,0,0,1,7.11-1.44c2,.88,4.82,3.75,1.67,9.85H38s1.29-5.17-2.47-7.51c-1.51-.95-4.29-.75-7.07,2.3,0,0-1.32-2.44-3.54-1.76A13.16,13.16,0,0,1,23,34.79h-.07s1.3-5.58-1.37-8.26Z" transform="translate(-4.42 -6)"/><path class="cls-1" d="M8,27.73s4.64-3.76,8.5-2c2.46,1.1,3.11,4.14,2.63,8.87h.07c.35-.83,4.92-9.3-2-11.87-1.31-.49-3.15-.64-6.46.58L7.57,14.44s4.88-6.61-3.15-8.13v.06c.78.44,5.56,3.47.21,7.09L8,27.73Z" transform="translate(-4.42 -6)"/><path class="cls-2" d="M66.67,10.7a12.22,12.22,0,0,1,3.18.36,6.16,6.16,0,0,1,2.17,1,4,4,0,0,1,1.25,1.61,5.63,5.63,0,0,1,.4,2.14,4.25,4.25,0,0,1-.21,1.33,3.9,3.9,0,0,1-.65,1.2,4.63,4.63,0,0,1-1.1,1,6.28,6.28,0,0,1-1.56.75q4.13.87,4.12,4.38a5.45,5.45,0,0,1-.46,2.27,5,5,0,0,1-1.35,1.78,6.4,6.4,0,0,1-2.18,1.17,9.55,9.55,0,0,1-3,.42H60.2V10.7Zm-3.31,2.47v6.07h3.16a4.87,4.87,0,0,0,3-.78,2.7,2.7,0,0,0,1-2.25,2.74,2.74,0,0,0-.94-2.32,4.82,4.82,0,0,0-2.93-.72Zm3.91,14.46a5.54,5.54,0,0,0,1.8-.25,3.17,3.17,0,0,0,1.2-.68,2.58,2.58,0,0,0,.68-1,3.7,3.7,0,0,0,.21-1.26,2.67,2.67,0,0,0-.94-2.16,4.54,4.54,0,0,0-3-.79h-3.9v6.16Z" transform="translate(-4.42 -6)"/><path class="cls-2" d="M75.78,18.28a7.92,7.92,0,0,1,5.56-2.17,5.37,5.37,0,0,1,2.11.39A4.12,4.12,0,0,1,85,17.58a4.84,4.84,0,0,1,1,1.67,6.54,6.54,0,0,1,.33,2.14v8.74H85a1.36,1.36,0,0,1-.64-.13,1,1,0,0,1-.36-.52l-.29-1.12a10.57,10.57,0,0,1-1,.84,6.87,6.87,0,0,1-1.06.63,5.63,5.63,0,0,1-1.18.39,7.31,7.31,0,0,1-1.38.12,4.91,4.91,0,0,1-1.56-.23,3.34,3.34,0,0,1-1.24-.69,3.21,3.21,0,0,1-.83-1.15,3.87,3.87,0,0,1-.31-1.62,3.05,3.05,0,0,1,.43-1.55A3.82,3.82,0,0,1,77,23.74a9,9,0,0,1,2.58-1,18.94,18.94,0,0,1,3.94-.45v-.91a3.34,3.34,0,0,0-.63-2.22A2.35,2.35,0,0,0,81,18.45a4.11,4.11,0,0,0-1.41.21,6,6,0,0,0-1,.45c-.28.16-.53.31-.74.45a1.27,1.27,0,0,1-.69.21.8.8,0,0,1-.51-.16,1.24,1.24,0,0,1-.34-.38Zm7.69,5.83a19,19,0,0,0-2.61.25,7.55,7.55,0,0,0-1.73.5,2.23,2.23,0,0,0-.95.72,1.55,1.55,0,0,0-.29.92,2.09,2.09,0,0,0,.15.83,1.53,1.53,0,0,0,.43.56,1.82,1.82,0,0,0,.65.33,3,3,0,0,0,.82.1,4.13,4.13,0,0,0,2-.43,6,6,0,0,0,1.58-1.23Z" transform="translate(-4.42 -6)"/><path class="cls-2" d="M91.44,18.19a8.93,8.93,0,0,1,.93-.83,6,6,0,0,1,1-.64,5.32,5.32,0,0,1,2.46-.57,4.91,4.91,0,0,1,2,.38,3.89,3.89,0,0,1,1.45,1.07,4.58,4.58,0,0,1,.88,1.65,7.1,7.1,0,0,1,.3,2.12v8.76H97.58V21.37a3.29,3.29,0,0,0-.64-2.16,2.41,2.41,0,0,0-2-.76,3.69,3.69,0,0,0-1.8.44,6.25,6.25,0,0,0-1.56,1.22v10h-2.9V16.37h1.76a.71.71,0,0,1,.75.55Z" transform="translate(-4.42 -6)"/><path class="cls-2" d="M105.82,10.16V21.74h.62a1.36,1.36,0,0,0,.49-.08,1.17,1.17,0,0,0,.39-.34l3.86-4.41a1.41,1.41,0,0,1,.44-.41,1.27,1.27,0,0,1,.62-.13h2.63l-4.64,5.23a3.51,3.51,0,0,1-.89.84,2.78,2.78,0,0,1,.48.42,6.31,6.31,0,0,1,.39.54l5,6.73h-2.59A1.34,1.34,0,0,1,112,30a1,1,0,0,1-.44-.42l-4-5.4a1.09,1.09,0,0,0-.41-.4,1.76,1.76,0,0,0-.6-.08h-.72v6.42h-2.9v-20Z" transform="translate(-4.42 -6)"/><path class="cls-2" d="M128.42,10.7a10.77,10.77,0,0,1,3.29.45A6.38,6.38,0,0,1,134,12.4a4.89,4.89,0,0,1,1.36,1.93,7.18,7.18,0,0,1,0,5,5.34,5.34,0,0,1-1.4,2,6.66,6.66,0,0,1-2.32,1.29,10.05,10.05,0,0,1-3.21.47h-2.89v7h-3.16V10.7Zm0,9.9a5.77,5.77,0,0,0,1.85-.27,3.64,3.64,0,0,0,1.34-.76,3.17,3.17,0,0,0,.8-1.19,4.35,4.35,0,0,0,.27-1.57,4.29,4.29,0,0,0-.26-1.52,3.08,3.08,0,0,0-.79-1.15,3.68,3.68,0,0,0-1.33-.72,6.58,6.58,0,0,0-1.88-.25h-2.89V20.6Z" transform="translate(-4.42 -6)"/><path class="cls-2" d="M138.79,23.48a7,7,0,0,0,.36,2,4.36,4.36,0,0,0,.83,1.42,3.18,3.18,0,0,0,1.24.84,4.37,4.37,0,0,0,1.62.28,4.67,4.67,0,0,0,1.47-.2,6.43,6.43,0,0,0,1.07-.43c.31-.15.57-.3.79-.43a1.13,1.13,0,0,1,.59-.19.63.63,0,0,1,.54.27l.82,1.06a5.14,5.14,0,0,1-1.16,1,7,7,0,0,1-1.37.68,8.68,8.68,0,0,1-1.5.38,11,11,0,0,1-1.5.11,7.21,7.21,0,0,1-2.65-.48,6,6,0,0,1-2.12-1.41,6.65,6.65,0,0,1-1.4-2.31,9.05,9.05,0,0,1-.5-3.17,7.8,7.8,0,0,1,.45-2.67,6.39,6.39,0,0,1,1.29-2.15,5.92,5.92,0,0,1,2.05-1.45,7.06,7.06,0,0,1,5.08-.13,5.21,5.21,0,0,1,1.86,1.21,5.53,5.53,0,0,1,1.22,1.95,7.16,7.16,0,0,1,.44,2.62,1.85,1.85,0,0,1-.15.91.6.6,0,0,1-.54.23Zm6.92-1.78a4.26,4.26,0,0,0-.21-1.36,3.14,3.14,0,0,0-.61-1.09,2.89,2.89,0,0,0-1-.73,3.84,3.84,0,0,0-3.86.64,4.33,4.33,0,0,0-1.15,2.54Z" transform="translate(-4.42 -6)"/><path class="cls-2" d="M153,10.16V21.74h.62a1.3,1.3,0,0,0,.48-.08,1.08,1.08,0,0,0,.39-.34l3.86-4.41a1.44,1.44,0,0,1,.45-.41,1.24,1.24,0,0,1,.62-.13H162l-4.64,5.23a3.69,3.69,0,0,1-.89.84,2.71,2.71,0,0,1,.47.42,6.31,6.31,0,0,1,.39.54l5,6.73h-2.59a1.4,1.4,0,0,1-.6-.12,1,1,0,0,1-.44-.42l-4-5.4a1.08,1.08,0,0,0-.4-.4,1.87,1.87,0,0,0-.61-.08H153v6.42h-2.91v-20Z" transform="translate(-4.42 -6)"/><path class="cls-2" d="M162.87,18.28a7.88,7.88,0,0,1,5.55-2.17,5.37,5.37,0,0,1,2.11.39,4.24,4.24,0,0,1,1.56,1.08,5,5,0,0,1,.95,1.67,6.54,6.54,0,0,1,.33,2.14v8.74h-1.29a1.36,1.36,0,0,1-.64-.13,1,1,0,0,1-.36-.52l-.28-1.12a10.65,10.65,0,0,1-1,.84,6.43,6.43,0,0,1-1.06.63,5.54,5.54,0,0,1-1.17.39,7.42,7.42,0,0,1-1.39.12,4.89,4.89,0,0,1-1.55-.23,3.25,3.25,0,0,1-2.08-1.84,4,4,0,0,1-.31-1.62,3.16,3.16,0,0,1,.43-1.55,3.82,3.82,0,0,1,1.4-1.36,9,9,0,0,1,2.58-1,18.94,18.94,0,0,1,3.94-.45v-.91a3.34,3.34,0,0,0-.63-2.22,2.34,2.34,0,0,0-1.86-.72,4,4,0,0,0-1.4.21,5.73,5.73,0,0,0-1,.45c-.28.16-.52.31-.74.45a1.27,1.27,0,0,1-.69.21.75.75,0,0,1-.5-.16,1.27,1.27,0,0,1-.35-.38Zm7.68,5.83a19,19,0,0,0-2.61.25,7.55,7.55,0,0,0-1.73.5,2.23,2.23,0,0,0-1,.72,1.62,1.62,0,0,0-.29.92,2.09,2.09,0,0,0,.15.83,1.45,1.45,0,0,0,.44.56,1.77,1.77,0,0,0,.64.33,3,3,0,0,0,.82.1,4.07,4.07,0,0,0,1.95-.43,6,6,0,0,0,1.58-1.23Z" transform="translate(-4.42 -6)"/><path class="cls-2" d="M181.76,16.15a7.34,7.34,0,0,1,2.76.5,6,6,0,0,1,2.11,1.42A6.34,6.34,0,0,1,188,20.29a9.46,9.46,0,0,1,0,5.89,6.48,6.48,0,0,1-1.34,2.23,6,6,0,0,1-2.11,1.42,7.9,7.9,0,0,1-5.53,0,6,6,0,0,1-2.11-1.42,6.5,6.5,0,0,1-1.35-2.23,9.46,9.46,0,0,1,0-5.89,6.36,6.36,0,0,1,1.35-2.22A6,6,0,0,1,179,16.65,7.39,7.39,0,0,1,181.76,16.15Zm0,11.91a3.19,3.19,0,0,0,2.77-1.24,6,6,0,0,0,.92-3.57,6,6,0,0,0-.92-3.58,3.18,3.18,0,0,0-2.77-1.26,3.23,3.23,0,0,0-2.8,1.26,6,6,0,0,0-.92,3.58,6,6,0,0,0,.92,3.57A3.24,3.24,0,0,0,181.76,28.06Z" transform="translate(-4.42 -6)"/></svg>