<svg id="Warstwa_1" data-name="Warstwa 1" xmlns="http://www.w3.org/2000/svg" xmlns:xlink="http://www.w3.org/1999/xlink" viewBox="0 0 158.09 32.69"><defs><style>.cls-1{fill:none;}.cls-2{clip-path:url(#clip-path);}.cls-3{fill:url(#linear-gradient);}.cls-4{clip-path:url(#clip-path-2);}.cls-5{fill:url(#linear-gradient-2);}.cls-6{clip-path:url(#clip-path-3);}.cls-7{fill:url(#linear-gradient-3);}.cls-8{clip-path:url(#clip-path-4);}.cls-9{fill:url(#linear-gradient-4);}.cls-10{clip-path:url(#clip-path-5);}.cls-11{fill:url(#linear-gradient-5);}.cls-12{clip-path:url(#clip-path-6);}.cls-13{fill:url(#linear-gradient-6);}.cls-14{fill:#fff;}.cls-15{fill:#231f20;}</style><clipPath id="clip-path" transform="translate(-16.11 -4.65)"><rect class="cls-1" x="16.11" y="4.65" width="32.7" height="32.69"/></clipPath><linearGradient id="linear-gradient" x1="-23.43" y1="72.64" x2="-22.71" y2="72.64" gradientTransform="matrix(0, 47.88, 47.88, 0, -3461.61, 1121.08)" gradientUnits="userSpaceOnUse"><stop offset="0" stop-color="#008053"/><stop offset="0.6" stop-color="#7fcbae"/><stop offset="1" stop-color="#00a76d"/></linearGradient><clipPath id="clip-path-2" transform="translate(-16.11 -4.65)"><path class="cls-1" d="M18.66,5.23c-.63,0-1.05.53-1.14,1.28a80.35,80.35,0,0,0-.82,13.41A122.27,122.27,0,0,0,17.52,35a1.27,1.27,0,0,0,1.14,1.29H47A1.19,1.19,0,0,0,48.11,35s-.32-7-.32-13.81.32-14.68.32-14.68A1.22,1.22,0,0,0,47,5.23Z"/></clipPath><linearGradient id="linear-gradient-2" x1="-23.44" y1="72.79" x2="-22.72" y2="72.79" gradientTransform="matrix(0, 53.8, 53.8, 0, -3899.93, 1253.12)" gradientUnits="userSpaceOnUse"><stop offset="0" stop-color="#00a76d"/><stop offset="0.3" stop-color="#7fcbae"/><stop offset="0.55" stop-color="#00a76d"/><stop offset="0.84" stop-color="#008053"/><stop offset="0.89" stop-color="#00895b"/><stop offset="0.97" stop-color="#00a172"/><stop offset="1" stop-color="#00ad7d"/></linearGradient><clipPath id="clip-path-3" transform="translate(-16.11 -4.65)"><path class="cls-1" d="M34.56,8.51c.89.37,4.48,2.31,4.92,2.93a30,30,0,0,0-7.26,2.09l-.11.22a49.91,49.91,0,0,1,7.07-.81,22.42,22.42,0,0,1-2.41,2.89l-.11.25c2.2-1.32,2.82-1.41,4.84-2.6.76,1.13,1,3.73,1,5.8C43.13,18,43.93,13,43.6,12.15c1.34-.92,1.52-1.67,1.52-1.67a12.59,12.59,0,0,0-2.57.34,23.61,23.61,0,0,0-7.89-2.54Z"/></clipPath><linearGradient id="linear-gradient-3" x1="-24.46" y1="75.93" x2="-23.74" y2="75.93" gradientTransform="matrix(0, -34.82, -34.82, 0, 2665.98, -823.12)" gradientUnits="userSpaceOnUse"><stop offset="0" stop-color="#00b387"/><stop offset="1" stop-color="#00a76d"/></linearGradient><clipPath id="clip-path-4" transform="translate(-16.11 -4.65)"><path class="cls-1" d="M21.16,23.83a13.6,13.6,0,0,0,0,4.13,14.21,14.21,0,0,0-1.79.44l-.1.22A23.14,23.14,0,0,0,21.77,30a8.52,8.52,0,0,0,1.92,2.71l.1-.23a4.93,4.93,0,0,1-.28-1.84,11.78,11.78,0,0,0,3.21.52l.11-.23a8.63,8.63,0,0,1-3-1.57,8.66,8.66,0,0,1,1.1-2.1L25,27c-.92.14-1.75.48-2.55.64a15,15,0,0,1-1.19-4.06Z"/></clipPath><linearGradient id="linear-gradient-4" x1="-24.47" y1="75.75" x2="-23.75" y2="75.75" gradientTransform="matrix(0, -34.83, -34.83, 0, 2644.91, -823.59)" xlink:href="#linear-gradient-3"/><clipPath id="clip-path-5" transform="translate(-16.11 -4.65)"><path class="cls-1" d="M26.64,16.33a18.09,18.09,0,0,0-1.84,0,16.41,16.41,0,0,0-3.1.34l-.1.22a5.82,5.82,0,0,1,3.22.93,17.72,17.72,0,0,0-3.37,4.87,35.7,35.7,0,0,1,4.36-3.56s.68,2.29,1.16,3.44l.11-.23a18.79,18.79,0,0,1,1-4,3.68,3.68,0,0,1,1.17-.22,18.31,18.31,0,0,1,5,.32l.11-.22a18.13,18.13,0,0,0-5.49-1.71h.08a10.68,10.68,0,0,1,.78-1.78,8.88,8.88,0,0,0-3.07,1.59"/></clipPath><linearGradient id="linear-gradient-5" x1="-24.46" y1="75.81" x2="-23.74" y2="75.81" gradientTransform="matrix(0, -34.8, -34.8, 0, 2650.28, -822.85)" xlink:href="#linear-gradient-3"/><clipPath id="clip-path-6" transform="translate(-16.11 -4.65)"><path class="cls-1" d="M33,30.41c0-.45-.07-.83-.09-1.33-.53.72-1,1.28-1.56,1.94a7.22,7.22,0,0,1-2,.15h-.72l-.1.23a7.05,7.05,0,0,0,1.81.62,16,16,0,0,1-1.66,1.14l-.11.22A12.63,12.63,0,0,0,32,32.12,5.61,5.61,0,0,0,33.33,32l.11-.23c-.06-.23-.27-.37-.33-.69a23.08,23.08,0,0,0,2.4-2.18l.11-.23A20.34,20.34,0,0,1,33,30.41"/></clipPath><linearGradient id="linear-gradient-6" x1="-24.47" y1="75.84" x2="-23.75" y2="75.84" gradientTransform="matrix(0, -34.82, -34.82, 0, 2656.5, -823.53)" xlink:href="#linear-gradient-3"/></defs><title>33</title><g class="cls-2"><rect class="cls-3" width="32.7" height="32.69"/></g><g class="cls-4"><rect class="cls-5" x="0.59" y="0.58" width="31.42" height="31.06"/></g><g class="cls-6"><rect class="cls-7" x="16" y="3.63" width="13.01" height="11"/></g><g class="cls-8"><rect class="cls-9" x="3.15" y="18.95" width="7.56" height="9.11"/></g><g class="cls-10"><rect class="cls-11" x="5.35" y="10.08" width="12.88" height="7.92"/></g><g class="cls-12"><rect class="cls-13" x="12.45" y="24.06" width="7.07" height="4.68"/></g><path class="cls-14" d="M41.6,13.25c-2,1.19-2.63,1.29-4.83,2.6a22.39,22.39,0,0,0,2.51-3.14,48.39,48.39,0,0,0-7.06.82,28.06,28.06,0,0,1,7.36-2.32c-.44-.61-4-2.56-4.92-2.93a21.14,21.14,0,0,1,8,2.31,13,13,0,0,1,2.58-.32,3.43,3.43,0,0,1-1.54,1.65c.34.89-.46,5.82-1.12,7.13,0-2.06-.21-4.67-1-5.8" transform="translate(-16.11 -4.65)"/><path class="cls-14" d="M26.83,30.93a8,8,0,0,1-2.92-1.79A9.55,9.55,0,0,1,25,27c-.94.15-1.63.25-2.45.41a12.5,12.5,0,0,1-1.29-3.83,14,14,0,0,0,0,4.13,12.64,12.64,0,0,0-1.89.67,23.25,23.25,0,0,0,2.52,1.37,8.49,8.49,0,0,0,1.91,2.71,5.15,5.15,0,0,1-.17-2.07,11.78,11.78,0,0,0,3.21.52" transform="translate(-16.11 -4.65)"/><path class="cls-14" d="M29.85,14.54h0a6.63,6.63,0,0,0-.9,1.75,14.79,14.79,0,0,1,5.39,1.94,17.56,17.56,0,0,0-5-.32,3.44,3.44,0,0,0-1.16.21,20.29,20.29,0,0,0-1.13,4.19c-.48-1.14-1.16-3.44-1.16-3.44a35.7,35.7,0,0,0-4.36,3.56,17.41,17.41,0,0,1,3.36-4.86,5.71,5.71,0,0,0-3.22-.93,12.23,12.23,0,0,1,3.21-.57,18,18,0,0,1,1.83,0,9.26,9.26,0,0,1,3.11-1.56" transform="translate(-16.11 -4.65)"/><path class="cls-14" d="M33,28.86c-.53.71-1,1.28-1.57,1.93a9.73,9.73,0,0,1-2.79.39,7.36,7.36,0,0,0,1.81.63,13.49,13.49,0,0,1-1.76,1.36,13.28,13.28,0,0,0,3.36-1.27,5.68,5.68,0,0,0,1.37-.09,8.79,8.79,0,0,1-.23-.92,22.22,22.22,0,0,0,2.41-2.18,16.32,16.32,0,0,1-2.52,1.47c0-.44-.06-.82-.08-1.32" transform="translate(-16.11 -4.65)"/><path class="cls-15" d="M57.65,15.32c.06,1.18.13,4.17.13,5.26s0,4.36-.17,5.81l0,.11h5.26c2.59,0,5.32-.8,5.32-3.09,0-1.43-1-2.5-3-3.08a2.84,2.84,0,0,0,2.41-2.49c0-1.88-2.15-2.58-4.18-2.63h-5.8Zm4.05,1.14c2.2,0,3,.47,3,1.66a1.22,1.22,0,0,1-.3.84,2.65,2.65,0,0,1-2.28.7h0l-.61,1.6h.61a3.47,3.47,0,0,1,2.8,1,1.6,1.6,0,0,1,.38,1c0,1.25-1.1,1.89-3.27,1.89H60.65c-.06-1.66-.09-3.91-.09-4.59s.06-2.54.09-4a6,6,0,0,1,1.05-.09" transform="translate(-16.11 -4.65)"/><path class="cls-15" d="M80.3,15.21H77.74l.11,2.85c.05,1.41.09,2.85.19,4.26A8.08,8.08,0,0,0,77,20.52s-2.66-4.12-3.59-5.28l0,0h-3v.11c.09,1.18.13,4.17.13,5.26s0,4.36-.14,5.81l0,.12H73v-.12c-.15-2.76-.15-5.54-.15-8.24a3.91,3.91,0,0,0,.62,1.23c0,.07,4.59,6.7,4.81,7.08l0,.05h2.12v-.12c-.16-1.45-.17-4.81-.17-5.81s.07-4.08.14-5.26l0-.11Z" transform="translate(-16.11 -4.65)"/><path class="cls-15" d="M83.36,15.32c.1,1.18.14,4.17.14,5.26s0,4.36-.15,5.81v.11H86.5l0-.11c-.11-1-.16-3-.17-4.55l.59,0h.45c4.14,0,6.15-1.09,6.15-3.4,0-2.62-2.82-3.22-5.18-3.27h-5Zm3.88,1.25c1.47,0,2.5.27,3,.89a1.54,1.54,0,0,1,.35,1c0,1.64-1.84,2-3.38,2l-.62,0-.26,0c0-.38,0-.88,0-1.43,0-.72,0-1.56,0-2.34a6.72,6.72,0,0,1,.9-.07" transform="translate(-16.11 -4.65)"/><path class="cls-15" d="M99.51,15.32c.1,1.18.15,4.17.15,5.26s0,4.36-.17,5.81v.11h3.15l0-.11c-.1-1-.16-3-.16-4.55l.57,0h.46c4.13,0,6.17-1.09,6.17-3.4,0-2.62-2.84-3.22-5.21-3.27H99.51Zm3.87,1.25c1.48,0,2.51.27,3,.89a1.53,1.53,0,0,1,.34,1c0,1.64-1.83,2-3.35,2l-.63,0-.26,0c0-.38,0-.88,0-1.43,0-.72,0-1.56,0-2.34a6.29,6.29,0,0,1,.89-.07" transform="translate(-16.11 -4.65)"/><path class="cls-15" d="M113.87,15.21h-.05l0,.06c-.58,1.61-4.36,9.83-5,11.09l0,.14h2.67l0-.06c.23-.77.55-1.65.9-2.58l2.23,0,1.85,0h.39c.48,1.22.84,2.13,1,2.6l0,0H121l-5-11.29h-2.12Zm.76,3.33c.25.54.9,2,1.63,3.83H116l-1.38,0-1.66,0c.59-1.43,1.18-2.73,1.66-3.83" transform="translate(-16.11 -4.65)"/><path class="cls-15" d="M122.27,15.32c.09,1.18.14,4.17.14,5.26s0,4.36-.18,5.81v.12h3.17v-.12c-.17-1.46-.18-4.81-.18-5.81,0-.79,0-2.54.1-3.95.24,0,.61-.06.86-.06,1.46,0,2.49.28,3,.89a1.55,1.55,0,0,1,.34,1,2.23,2.23,0,0,1-2.36,2,3.61,3.61,0,0,1-.66,0l-.22,0,.12.2c1.12,1.64,2.8,4.48,3.5,5.82l0,.05h3.38l-.08-.16c-.14-.19-2.34-3.43-3.28-4.81l-.08-.08c1.73-.52,2.57-1.49,2.57-3,0-2.6-2.82-3.22-5.21-3.27h-4.93Z" transform="translate(-16.11 -4.65)"/><path class="cls-15" d="M137.75,15.21h-3l0,.11c.08,1.18.14,4.17.14,5.26s0,4.35-.16,5.81v.12h3.13l0-.12c-.12-1.46-.16-4.81-.16-5.81s.08-4.08.16-5.26v-.11Z" transform="translate(-16.11 -4.65)"/><path class="cls-15" d="M140.7,15.32c.09,1.18.14,4.17.14,5.26s0,4.36-.16,5.81l0,.11h5.26c2.58,0,5.32-.8,5.32-3.09,0-1.43-1-2.5-3-3.08a2.85,2.85,0,0,0,2.42-2.49c0-1.88-2.15-2.58-4.16-2.63h-5.81Zm4.05,1.14h0c2.21,0,3,.47,3,1.66a1.22,1.22,0,0,1-.3.84,2.66,2.66,0,0,1-2.28.7h-.05l-.61,1.6h.61a3.44,3.44,0,0,1,2.79,1,1.51,1.51,0,0,1,.39,1c0,1.25-1.1,1.89-3.28,1.89h-1.31c-.09-1.66-.09-3.91-.09-4.59s0-2.54.09-4a5.7,5.7,0,0,1,1-.09" transform="translate(-16.11 -4.65)"/><path class="cls-15" d="M159,15.21h-2.12v0c-.63,1.71-4.62,10.37-5,11.09l0,.15h2.69l0-.06c.22-.78.53-1.65.89-2.59l2.22,0,1.86,0h.39c.49,1.21.85,2.13,1,2.59l0,.06h3.11l-5-11.29Zm-1.3,3.32c.25.53.9,2,1.63,3.83h-.25l-1.38,0-1.66,0c.59-1.45,1.16-2.73,1.66-3.83" transform="translate(-16.11 -4.65)"/><path class="cls-15" d="M165,18.13c0,2,2,2.78,3.75,3.51,1.37.55,2.8,1.13,2.8,2.07a1,1,0,0,1-.21.7c-.33.39-1,.55-2.06.49a9.52,9.52,0,0,1-3.57-1l-.52-.25v2.46l.36.09.2,0a14,14,0,0,0,3.19.46c3.32,0,5.3-1.32,5.3-3.51s-2-2.85-3.85-3.57c-1.33-.54-2.71-1.07-2.71-1.95,0-.26,0-1,1.72-1a9.29,9.29,0,0,1,3.2.78l.64.27V15.26l-.63-.11a14.35,14.35,0,0,0-2.83-.35c-2.86,0-4.77,1.35-4.77,3.33" transform="translate(-16.11 -4.65)"/></svg>