<?xml version="1.0" encoding="utf-8"?>
<!-- Generator: Adobe Illustrator 23.0.3, SVG Export Plug-In . SVG Version: 6.00 Build 0)  -->
<svg version="1.1" id="Warstwa_1" xmlns="http://www.w3.org/2000/svg" xmlns:xlink="http://www.w3.org/1999/xlink" x="0px" y="0px"
	 viewBox="0 0 192 42" style="enable-background:new 0 0 192 42;" xml:space="preserve">
<style type="text/css">
	.st0{fill:url(#SVGID_1_);}
	.st1{fill:url(#SVGID_2_);}
	.st2{fill-rule:evenodd;clip-rule:evenodd;fill:#F9F9FA;}
</style>
<linearGradient id="SVGID_1_" gradientUnits="userSpaceOnUse" x1="142.1174" y1="25.652" x2="194.8826" y2="16.348">
	<stop  offset="0" style="stop-color:#4FBBB1"/>
	<stop  offset="8.280589e-03" style="stop-color:#4EBAAD"/>
	<stop  offset="8.948382e-02" style="stop-color:#44AD8D"/>
	<stop  offset="0.1715" style="stop-color:#3BA374"/>
	<stop  offset="0.2533" style="stop-color:#349D60"/>
	<stop  offset="0.3348" style="stop-color:#2E9853"/>
	<stop  offset="0.4159" style="stop-color:#2A964D"/>
	<stop  offset="0.4962" style="stop-color:#28954B"/>
	<stop  offset="0.5647" style="stop-color:#25895A"/>
	<stop  offset="0.6624" style="stop-color:#207A6B"/>
	<stop  offset="0.7573" style="stop-color:#1D6F74"/>
	<stop  offset="0.8473" style="stop-color:#1C6879"/>
	<stop  offset="0.9304" style="stop-color:#1B637D"/>
	<stop  offset="1" style="stop-color:#1B627E"/>
</linearGradient>
<rect x="145" class="st0" width="47" height="42"/>
<linearGradient id="SVGID_2_" gradientUnits="userSpaceOnUse" x1="-1.3987" y1="34.0675" x2="163.6995" y2="4.9563">
	<stop  offset="0" style="stop-color:#4FBBB1"/>
	<stop  offset="8.280589e-03" style="stop-color:#4EBAAD"/>
	<stop  offset="8.948382e-02" style="stop-color:#44AD8D"/>
	<stop  offset="0.1715" style="stop-color:#3BA374"/>
	<stop  offset="0.2533" style="stop-color:#349D60"/>
	<stop  offset="0.3348" style="stop-color:#2E9853"/>
	<stop  offset="0.4159" style="stop-color:#2A964D"/>
	<stop  offset="0.4962" style="stop-color:#28954B"/>
	<stop  offset="0.5647" style="stop-color:#25895A"/>
	<stop  offset="0.6624" style="stop-color:#207A6B"/>
	<stop  offset="0.7573" style="stop-color:#1D6F74"/>
	<stop  offset="0.8473" style="stop-color:#1C6879"/>
	<stop  offset="0.9304" style="stop-color:#1B637D"/>
	<stop  offset="1" style="stop-color:#1B627E"/>
</linearGradient>
<polygon class="st1" points="145.4,42 0,42 0,0 145.4,0 166.5,21 "/>
<path class="st2" d="M72.8,22.1h1.5c2.2,0,2.8,0.2,2.8,1.4c0,1.2-0.4,1.3-2,1.3h-2.3V22.1z M72.8,17h1.9c1.5,0,1.8,0.4,1.8,1.2
	s-0.5,1.3-1.6,1.3h-2.1V17z M67.7,13.6v14.7h7.6c4,0,6.4-1.1,6.5-4.3c0-1.6-1-3-2.6-3.4c1.2-0.7,2-2,2-3.4c0-2.5-2.2-3.7-6.1-3.7
	L67.7,13.6z"/>
<path class="st2" d="M92.9,23.2l1.5-5.2l1.6,5.2H92.9z M91.8,13.5l-5.5,14.7h4.9l0.6-2h5l0.6,2h5l-5.4-14.7H91.8z"/>
<polygon class="st2" points="106.5,13.5 106.5,28.2 111.3,28.2 111.3,23.6 111.1,20.2 116.6,28.2 121.3,28.2 121.3,13.5 116.5,13.5 
	116.5,18.3 116.7,21.6 111.2,13.5 "/>
<polygon class="st2" points="127.1,13.5 127.1,28.2 132.1,28.2 132.1,23.6 133.3,22.4 137,28.2 143,28.2 136.8,19.1 142.4,13.5 
	136.6,13.5 132.1,18.3 132.1,13.5 "/>
<g>
	<path class="st2" d="M59.3,13.7c-1.2-0.2-2.4-0.4-3.6-0.4c-1.4-0.1-2.7,0.2-4,0.8c-1,0.6-1.6,1.5-1.8,2.6c0,0.7,0.3,1.4,0.7,2
		c0.4,0.5,0.8,0.9,1.2,1.3c0.4,0.4,3.2,2.4,3.5,2.7c0.6,0.4,1,1.1,1.1,1.9c-0.1,0.5-0.4,0.9-0.8,1.1c-0.7,0.3-1.4,0.4-2.1,0.4
		c-1.4,0.1-2.7-0.3-3.8-1.1l0.5,2.9c1.4,0.4,2.9,0.6,4.4,0.7c1,0,2.1-0.2,3.1-0.5c0.7-0.2,1.4-0.7,1.9-1.3c0.5-0.5,0.7-1.2,0.8-1.9
		c0-1-0.4-1.9-1.1-2.6c-0.3-0.3-0.6-0.6-0.9-0.9c-0.5-0.3-2.4-1.8-2.9-2.1c-0.4-0.3-0.8-0.6-1.2-0.9c-0.4-0.4-0.6-0.9-0.6-1.4
		c0-0.5,0.3-0.9,0.7-1.1c0.7-0.2,1.4-0.4,2.1-0.3c1.1,0,2.2,0.2,3.2,0.6L59.3,13.7z"/>
	<polygon class="st2" points="54.9,11.1 54,12.9 55.9,12.9 57.5,11.1 	"/>
	<path class="st2" d="M37,30.5c5.4,0.1,9.9-4.2,10.1-9.6c-0.1-5.4-4.6-9.8-10.1-9.7c-5.4-0.1-9.9,4.2-10,9.7
		C27.1,26.3,31.6,30.6,37,30.5 M24.4,20.9C24.6,14.1,30.2,8.7,37,8.8c6.8-0.1,12.4,5.3,12.6,12.1C49.4,27.6,43.8,33,37,32.9
		C30.2,33,24.6,27.6,24.4,20.9"/>
	<path class="st2" d="M32.8,28.2c0.6-0.5,2-1.3,2.3-2.5c0.1-1.1-2.8-1-3.4-0.4c-0.2-0.8-0.2-1.9-1.7-1.5c-0.1-1.1-0.1-1.7-1.1-2.4
		c2.6-0.2,2.7-1.2,0.6-3.5c1.2-0.2,1.2-0.4,0.9-2c0.8,0.7,2,0.6,2.7-0.2c0.1-0.2,0.2-0.3,0.3-0.5c1.6,2.4,3.1,2.1,2.5-0.4
		c0.6,0.4,1.3,0.2,1.6-0.4c0.1-0.1,0.1-0.2,0.1-0.3c0.6,0.3,1.1,0,1.6-0.7c0,0.9,0.7,1.6,1.6,1.7c-0.5,0.8,0.2,1.2,0.7,1.3
		c-2.1,2.5-0.7,3.4,1.6,1.4c-0.2,1.4,0.1,1.7,1.9,1.7c-0.7,1-1.2,1.8-0.4,2.8c-1.3,0.4-4.6,1.4-1.1,2.8c-1,0.3-1.5,1.1-1.4,1.6
		c-1.3-0.6-2,0.1-1.8,1.3c-1,0.1-3.3-1.2-4-2c-0.2-0.2-0.5-0.3-0.6-0.1c-0.6,1.3-1,1.6-1.6,2.7C33.7,28.3,33.2,28.2,32.8,28.2"/>
	<path class="st2" d="M17.9,19.6c0.6,0,1.1-0.3,1.6-0.7c0.4-0.4,0.6-1,0.6-1.5c0-0.5-0.2-1-0.6-1.3c-0.5-0.3-1-0.5-1.6-0.5h-2.5v4.1
		L17.9,19.6z M18.4,26.3c0.7,0,1.3-0.2,1.9-0.7c0.4-0.4,0.6-1,0.5-1.6c0-0.6-0.2-1.1-0.5-1.5c-0.5-0.4-1.2-0.6-1.9-0.6h-3v4.3H18.4z
		 M12.5,13.4h5.9c0.8,0,1.7,0.2,2.4,0.6c0.6,0.3,1,0.7,1.3,1.2c0.3,0.5,0.5,1.1,0.5,1.7c0,0.6-0.1,1.3-0.4,1.9
		c-0.4,0.8-1.1,1.4-2,1.7c1.2,0.1,2.3,0.7,3,1.8c0.3,0.5,0.5,1.1,0.5,1.7c0,0.6,0,1.3-0.2,1.9c-0.2,0.5-0.5,0.9-0.9,1.2
		c-0.5,0.4-1,0.7-1.5,0.9c-0.7,0.2-1.5,0.3-2.2,0.3h-6.4V13.4z"/>
</g>
</svg>
