<svg id="Warstwa_1" data-name="Warstwa 1" xmlns="http://www.w3.org/2000/svg" viewBox="0 0 183.43 36.97"><defs><style>.cls-1{fill:#006f53;}.cls-1,.cls-2,.cls-3{fill-rule:evenodd;}.cls-2{fill:#008c9a;}.cls-3{fill:#ed1b2e;}</style></defs><title>14</title><path class="cls-1" d="M79.64,19.38V16.32C79,17,69.52,19.23,69.36,12.91,69.21,7.38,78,8.05,79.71,9.41V6.5c-4.2-1.12-13.79-2.13-14,6.41-.17,8.36,9.82,7.58,13.89,6.47Z" transform="translate(-4.9 -1.52)"/><path class="cls-1" d="M96.91,10.23a4.59,4.59,0,0,0-3.66-4.5H82.6V19.57h3.56V8h4.91a2.24,2.24,0,0,1,2.23,2.25c0,1.23-.88,1.82-2.12,1.82H88.72C87.66,12,87,14.66,87,14.66a33.27,33.27,0,0,0,3.85,0l2.36,4.89h4l-2.82-5.82c1.57-.76,2.57-1.79,2.57-3.52Z" transform="translate(-4.9 -1.52)"/><polygon class="cls-1" points="107.89 4.22 98.22 4.22 97.77 4.22 94.65 4.22 94.65 18.05 97.55 18.05 98.22 18.05 107.84 18.05 108.7 15.82 98.22 15.82 98.22 6.45 108.76 6.45 107.89 4.22 107.89 4.22"/><path class="cls-1" d="M105.38,11.57c-1.06,0-1.65,2.23-1.65,2.23h5.86c1.06,0,1.64-2.23,1.64-2.23h-5.85Z" transform="translate(-4.9 -1.52)"/><polygon class="cls-1" points="104.97 0.21 101.37 0.21 100.36 2.42 103.13 2.42 104.97 0.21 104.97 0.21"/><polygon class="cls-1" points="132.15 4.22 128.58 4.22 128.58 18.05 132.15 18.05 132.15 4.22 132.15 4.22"/><path class="cls-1" d="M152.86,8c1.06,0,1.65-2.23,1.65-2.23H141C140,5.74,139.37,8,139.37,8h5.8v11.6h3.57V8Z" transform="translate(-4.9 -1.52)"/><path class="cls-1" d="M124.45,5.74h-8.39V19.57h10.25c2.77-.56,4.92-3.51,4.92-6.91a7.21,7.21,0,0,0-6.78-6.91Zm-.81,11.6h-4V8h4c2.22,0,4,2.09,4,4.68s-1.8,4.69-4,4.69Z" transform="translate(-4.9 -1.52)"/><path class="cls-1" d="M179.83,29.8c-1.06,0-1.65,2.23-1.65,2.23h6c1.06,0,1.64-2.23,1.64-2.23h-6Z" transform="translate(-4.9 -1.52)"/><polygon class="cls-1" points="172.89 36.29 182.57 36.29 183.43 34.06 172.89 34.06 172.89 24.69 183.04 24.69 182.18 22.46 172.89 22.46 172.06 22.46 169.32 22.46 169.32 36.29 172.28 36.29 172.89 36.29 172.89 36.29"/><polygon class="cls-1" points="159.95 36.29 166.67 36.29 167.54 34.06 159.95 34.06 159.95 22.45 156.38 22.45 156.38 36.29 158.06 36.29 159.95 36.29 159.95 36.29"/><path class="cls-1" d="M150.38,23.53c-4.77,0-8.63,3.19-8.63,7.13s3.86,7.14,8.63,7.14S159,34.61,159,30.66s-3.87-7.13-8.64-7.13Zm0,12.06a4.93,4.93,0,1,1,4.7-4.93,4.81,4.81,0,0,1-4.7,4.93Z" transform="translate(-4.9 -1.52)"/><path class="cls-1" d="M139.9,37.14V34.08c-.67.66-10.12,2.91-10.29-3.41-.14-5.53,8.67-4.86,10.36-3.49V24.27c-4.2-1.13-13.79-2.14-14,6.4-.17,8.36,9.82,7.58,13.89,6.47Z" transform="translate(-4.9 -1.52)"/><polygon class="cls-1" points="118.46 22.46 114.89 22.46 114.89 36.29 118.46 36.29 118.46 22.46 118.46 22.46"/><path class="cls-1" d="M106.41,26.21h4.91a2.25,2.25,0,0,1,2.23,2.25c0,1.23-.89,1.83-2.12,1.83l-2.46,0c-1.06,0-1.76,2.63-1.76,2.63a31.93,31.93,0,0,0,3.85,0l2.36,4.9h4L114.59,32c1.57-.76,2.57-1.79,2.57-3.52A4.58,4.58,0,0,0,113.5,24H102.84V37.8h3.57V26.21Z" transform="translate(-4.9 -1.52)"/><path class="cls-1" d="M71.28,34.68H75.4c1.06,0,1.65-2.23,1.65-2.23H72.37l2.56-5.29,5.14,10.65h4L77.36,24H72.5L65.8,37.81h4l1.52-3.13Z" transform="translate(-4.9 -1.52)"/><path class="cls-1" d="M99.7,37.33V29.77H93.83c-1,0-1.64,2.23-1.64,2.23h4.46v3.48c-3.07.29-8.7.64-8.83-4.34-.15-5.52,7.77-6.25,11.41-3.49V24.74c-5.26-1.13-14.85-2.13-15,6.4C84,39.5,95.35,38.89,99.7,37.33Z" transform="translate(-4.9 -1.52)"/><polygon class="cls-1" points="49.99 36.97 49.99 32.81 0 32.81 0 36.97 49.99 36.97 49.99 36.97"/><path class="cls-1" d="M33.4,4.43h8.08l11.7,26.76s-7.33.84-8.38-1.33-7.68-19.34-7.68-19.34l-4.89,9.71s-2,3.14-9.07,3.14L33.4,4.43Z" transform="translate(-4.9 -1.52)"/><path class="cls-2" d="M28.67,9.13S29.3,2.21,22.46,4c0,0-9.77,1.68-15.22,9.63A9.69,9.69,0,0,0,5.08,20.3C5.15,22,5.33,32,21.83,31.19,32,30.7,52.55,18.76,58.76,14.85V8.78S40.4,18.55,37.12,20.16,22.74,26.79,15.9,26.23c0,0-5.8-.07-6.78-3.35S15,13.73,17.64,12.34c3.62-1.91,6.22-3.35,11-3.21Z" transform="translate(-4.9 -1.52)"/><path class="cls-3" d="M58.69,1.52V6.26l-9,5s-3.21,2.1-4.47-3.35a22.54,22.54,0,0,0,3.91-1.33l9.56-5Z" transform="translate(-4.9 -1.52)"/></svg>