<svg id="Warstwa_1" data-name="Warstwa 1" xmlns="http://www.w3.org/2000/svg" viewBox="0 0 116.84 28.83"><defs><style>.cls-1{fill:#24b24c;}.cls-2{fill:#fff;}</style></defs><title>GetIn Bank</title><polygon class="cls-1" points="58.95 23.24 0 23.24 0 5.74 58.95 5.74 58.95 0 78.39 14.49 58.92 28.83 58.95 23.24"/><path class="cls-2" d="M65.22,18.94h-1.8a7.67,7.67,0,0,1-.17-.83,3.13,3.13,0,0,1-2.67,1c-2.8,0-4.22-2.12-4.22-4.66,0-2.8,1.64-4.85,4.69-4.85,2.76,0,4,1.58,4.2,3H62.59A1.42,1.42,0,0,0,61,11.51c-1.53,0-1.9,1.4-1.9,2.87s.43,2.84,1.91,2.84a1.46,1.46,0,0,0,1.59-1.59v-.06H61V13.69h4.27Z" transform="translate(-33.59 0.04)"/><path class="cls-2" d="M73.71,15.24H69.54V17h4.65v2H67V9.79h7.1v2H69.54v1.47h4.17Z" transform="translate(-33.59 0.04)"/><path class="cls-2" d="M77.79,11.78H75.17v-2h7.9v2h-2.6v7.16H77.79Z" transform="translate(-33.59 0.04)"/><path class="cls-2" d="M89.51,9.79v9.15H86.82V9.79Z" transform="translate(-33.59 0.04)"/><path class="cls-2" d="M90.82,18.94V9.79H94c1,2.06,2.36,4.85,2.74,6h0c-.1-.95-.12-2.56-.12-4v-2h2.44v9.15h-3c-.78-1.66-2.43-5.09-2.86-6.3h0c.08.86.09,2.63.09,4.25v2.05Z" transform="translate(-33.59 0.04)"/><path class="cls-1" d="M115.18,9.73h4.58c2.22,0,3.2,1.1,3.2,2.39a2,2,0,0,1-1.25,2,2.17,2.17,0,0,1,1.51,2.08c0,1.51-1.13,2.75-3.43,2.75h-4.61Zm4.12,3.55c.75,0,1-.38,1-.88s-.42-.85-1.07-.85H117.8v1.73Zm-1.5,3.85h1.38c.88,0,1.26-.39,1.26-1.05s-.36-1-1.21-1H117.8Z" transform="translate(-33.59 0.04)"/><path class="cls-1" d="M126.09,17.15l-.53,1.79h-2.63l2.91-9.21h3.49l3,9.21h-2.82L129,17.15Zm2.42-2c-.44-1.45-.79-2.74-1-3.64h0c-.21,1-.56,2.31-.94,3.64Z" transform="translate(-33.59 0.04)"/><path class="cls-1" d="M132.45,18.94V9.73h3.23c1,2.07,2.38,4.88,2.76,6h.05c-.1-1-.13-2.58-.13-4.05v-2h2.46v9.21h-3.07c-.79-1.67-2.45-5.13-2.88-6.34h0c.08.87.09,2.65.09,4.27v2.07Z" transform="translate(-33.59 0.04)"/><path class="cls-1" d="M141.56,9.73h2.69v3.74c.6-.84,2-2.53,2.87-3.74h3.19l-3.38,3.77,3.5,5.44h-3.16l-2.21-3.7-.81.84v2.86h-2.69Z" transform="translate(-33.59 0.04)"/></svg>