<svg id="Warstwa_1" data-name="Warstwa 1" xmlns="http://www.w3.org/2000/svg" viewBox="0 0 62.68 40.13"><defs><style>.cls-1{fill:#606469;}.cls-2{fill:#fff;}.cls-3{fill:#557ebf;}.cls-4{fill:#36a852;}.cls-5{fill:#f8bb16;}.cls-6{fill:#e94335;}</style></defs><title>229</title><path class="cls-1" d="M115.92.94H63.28a7.83,7.83,0,0,0-1.18.1A4.09,4.09,0,0,0,61,1.42a3.79,3.79,0,0,0-.95.69,3.7,3.7,0,0,0-.7,1A3.88,3.88,0,0,0,59,4.19a7.72,7.72,0,0,0-.1,1.18c0,.18,0,.36,0,.54V36.09c0,.18,0,.36,0,.55a7.7,7.7,0,0,0,.1,1.17,3.88,3.88,0,0,0,.37,1.12,3.7,3.7,0,0,0,.7,1,3.79,3.79,0,0,0,.95.69A4.09,4.09,0,0,0,62.1,41a7.83,7.83,0,0,0,1.18.1H117.1a7.72,7.72,0,0,0,1.18-.1,4,4,0,0,0,1.12-.37,3.84,3.84,0,0,0,1-.69,3.67,3.67,0,0,0,.69-1,3.88,3.88,0,0,0,.37-1.12,7.7,7.7,0,0,0,.1-1.17c0-.19,0-.37,0-.55V5.91c0-.18,0-.36,0-.54a7.72,7.72,0,0,0-.1-1.18,3.88,3.88,0,0,0-.37-1.12,3.67,3.67,0,0,0-.69-1,3.84,3.84,0,0,0-1-.69,4,4,0,0,0-1.12-.37A7.72,7.72,0,0,0,117.1,1h-1.18Z" transform="translate(-58.85 -0.94)"/><path class="cls-2" d="M115.92,2.27h1.15a6.61,6.61,0,0,1,1,.09,2.51,2.51,0,0,1,.76.24,2.54,2.54,0,0,1,1.06,1.06,2.87,2.87,0,0,1,.24.75,5.63,5.63,0,0,1,.08,1c0,.17,0,.34,0,.52V36.09c0,.17,0,.34,0,.51a5.63,5.63,0,0,1-.08,1,2.87,2.87,0,0,1-.24.75,2.67,2.67,0,0,1-.45.61,2.52,2.52,0,0,1-.62.45,2.38,2.38,0,0,1-.74.24,7.28,7.28,0,0,1-1,.09H63.32a7,7,0,0,1-1-.09,2.45,2.45,0,0,1-.75-.24,2.52,2.52,0,0,1-.62-.45,2.47,2.47,0,0,1-.45-.61,2.87,2.87,0,0,1-.24-.75,5.63,5.63,0,0,1-.08-1c0-.17,0-.34,0-.51V5.92c0-.18,0-.35,0-.52a5.63,5.63,0,0,1,.08-1,2.55,2.55,0,0,1,.25-.75A2.37,2.37,0,0,1,61,3.06a2.52,2.52,0,0,1,.62-.45,2.36,2.36,0,0,1,.75-.24,6.74,6.74,0,0,1,1-.09h52.6" transform="translate(-58.85 -0.94)"/><g id="GPay-Light-themed-buttons"><g id="GPAY---SVGs"><g id="GPay-Brand-Mark"><g id="GPay"><g id="Pay"><path id="Fill-1" class="cls-1" d="M88.72,13.86v5.46h3.36a2.77,2.77,0,0,0,2.8-2.73,2.8,2.8,0,0,0-2.8-2.73Zm0,7.38v6.33h-2V11.94H92a4.77,4.77,0,0,1,3.45,1.36,4.49,4.49,0,0,1,0,6.61A4.79,4.79,0,0,1,92,21.24Z" transform="translate(-58.85 -0.94)"/><path id="Fill-3" class="cls-1" d="M99,24.3a1.62,1.62,0,0,0,.66,1.31,2.47,2.47,0,0,0,1.57.52,3.19,3.19,0,0,0,2.26-.94,2.93,2.93,0,0,0,1-2.2,4.09,4.09,0,0,0-2.62-.74,3.33,3.33,0,0,0-2,.59A1.74,1.74,0,0,0,99,24.3m2.6-7.77a5,5,0,0,1,3.52,1.19A4.21,4.21,0,0,1,106.38,21v6.59h-1.93V26.09h-.08a3.84,3.84,0,0,1-3.32,1.83,4.39,4.39,0,0,1-3-1,3.38,3.38,0,0,1-1.19-2.63,3.19,3.19,0,0,1,1.26-2.64,5.32,5.32,0,0,1,3.35-1,5.88,5.88,0,0,1,3,.66v-.46a2.27,2.27,0,0,0-.83-1.78,2.82,2.82,0,0,0-1.94-.73A3.09,3.09,0,0,0,99,19.74l-1.77-1.12a4.93,4.93,0,0,1,4.33-2.09" transform="translate(-58.85 -0.94)"/><g id="Group-7"><polygon id="Fill-5" class="cls-1" points="58.56 15.94 51.85 31.35 49.78 31.35 52.27 25.96 47.85 15.94 50.04 15.94 53.23 23.62 53.27 23.62 56.38 15.94 58.56 15.94"/></g></g><g id="G"><path id="Fill-8" class="cls-3" d="M80.59,19.88a10.85,10.85,0,0,0-.15-1.83H72v3.46h4.86A4.15,4.15,0,0,1,75,24.24v2.25h2.9a8.79,8.79,0,0,0,2.67-6.61" transform="translate(-58.85 -0.94)"/><path id="Fill-10" class="cls-4" d="M72,28.66a8.62,8.62,0,0,0,6-2.17L75,24.24A5.46,5.46,0,0,1,72,25.1a5.37,5.37,0,0,1-5-3.71h-3v2.32a9,9,0,0,0,8,4.95" transform="translate(-58.85 -0.94)"/><path id="Fill-12" class="cls-5" d="M66.91,21.39a5.44,5.44,0,0,1-.28-1.72A5.53,5.53,0,0,1,66.91,18V15.64h-3a9,9,0,0,0,0,8.07Z" transform="translate(-58.85 -0.94)"/><path id="Fill-14" class="cls-6" d="M72,14.25a4.9,4.9,0,0,1,3.45,1.34h0L78,13a8.67,8.67,0,0,0-6-2.34,9,9,0,0,0-8,5l3,2.31a5.36,5.36,0,0,1,5-3.7" transform="translate(-58.85 -0.94)"/></g></g></g></g></g></svg>