<svg id="Warstwa_1" data-name="Warstwa 1" xmlns="http://www.w3.org/2000/svg" xmlns:xlink="http://www.w3.org/1999/xlink" viewBox="0 0 122.04 37.23"><defs><style>.cls-1{fill:url(#Gradient_bez_nazwy_14);}.cls-2{fill:#3595d2;}.cls-3{fill:#231f20;}</style><linearGradient id="Gradient_bez_nazwy_14" x1="70.35" y1="21.42" x2="153.39" y2="21.42" gradientUnits="userSpaceOnUse"><stop offset="0" stop-color="#3595d2"/><stop offset="0.19" stop-color="#277cb1"/><stop offset="0.34" stop-color="#1c6895"/><stop offset="0.72" stop-color="#09364e"/><stop offset="1"/></linearGradient></defs><title>161</title><path class="cls-1" d="M70.35,4.22h6.74V38H70.35Zm27.5,30.51-.1,0a8.35,8.35,0,0,1-3.31,3,10,10,0,0,1-4.19.89,9.4,9.4,0,0,1-4.39-1,10.58,10.58,0,0,1-3.39-2.69A12.68,12.68,0,0,1,80.27,31a13.67,13.67,0,0,1-.79-4.62,14.26,14.26,0,0,1,.74-4.6,12.55,12.55,0,0,1,2.11-3.86,10.13,10.13,0,0,1,3.35-2.67,9.88,9.88,0,0,1,4.49-1,8.22,8.22,0,0,1,7.32,3.77h.09V4.22H104V38H97.85Zm0-8.23A8.82,8.82,0,0,0,97.44,24a6.44,6.44,0,0,0-1.1-2.15,5.6,5.6,0,0,0-1.84-1.5,5.77,5.77,0,0,0-2.63-.56,4.92,4.92,0,0,0-2.44.58,5.44,5.44,0,0,0-1.78,1.52,6.84,6.84,0,0,0-1.08,2.18,9.5,9.5,0,0,0-.36,2.54,8.37,8.37,0,0,0,.39,2.57,6.62,6.62,0,0,0,1.12,2.18,5.53,5.53,0,0,0,1.82,1.5,5.87,5.87,0,0,0,5,0,5.41,5.41,0,0,0,1.79-1.47,7,7,0,0,0,1.13-2.2A9.4,9.4,0,0,0,97.8,26.5Zm14.94,1.78a7.3,7.3,0,0,0,.48,2,5.84,5.84,0,0,0,1,1.71,5.17,5.17,0,0,0,1.62,1.21,5.06,5.06,0,0,0,2.27.48,5.4,5.4,0,0,0,2.72-.7,4.59,4.59,0,0,0,1.9-2l6.28.49a9.5,9.5,0,0,1-4.14,5.37,13.45,13.45,0,0,1-7.08,1.81,12.93,12.93,0,0,1-4.77-.86,10.23,10.23,0,0,1-3.73-2.43,11.66,11.66,0,0,1-2.43-3.82,13.64,13.64,0,0,1-.87-5,14,14,0,0,1,.87-5,11.44,11.44,0,0,1,2.43-3.86A10.25,10.25,0,0,1,113,15.14a13.71,13.71,0,0,1,9.56,0,10.4,10.4,0,0,1,3.72,2.43,11.16,11.16,0,0,1,2.42,3.87,13.74,13.74,0,0,1,.88,5v1.8Zm10.41-4.13a5.48,5.48,0,0,0-.45-1.72,5.26,5.26,0,0,0-1-1.6,5,5,0,0,0-1.52-1.17,4.77,4.77,0,0,0-2.07-.45,5.54,5.54,0,0,0-2.2.41,5.25,5.25,0,0,0-1.62,1.07,5.41,5.41,0,0,0-1.06,1.58,7.91,7.91,0,0,0-.51,1.88Zm24,10.81-.1,0a8.22,8.22,0,0,1-3.75,2.86,12.21,12.21,0,0,1-4.15.76,11.41,11.41,0,0,1-2.78-.36,7.7,7.7,0,0,1-2.62-1.19,6.17,6.17,0,0,1-1.94-2.17,6.89,6.89,0,0,1-.73-3.33,9.23,9.23,0,0,1,.26-2.09,4.85,4.85,0,0,1,1.26-2.18,8.41,8.41,0,0,1,3-1.82,18.13,18.13,0,0,1,5.33-1l6-.36V23A3.81,3.81,0,0,0,145.69,20a5,5,0,0,0-3.35-1,4.7,4.7,0,0,0-3.13.93A3.29,3.29,0,0,0,138,22.38h-6.2a9.27,9.27,0,0,1,.65-2.77A7.16,7.16,0,0,1,134.27,17a9.92,9.92,0,0,1,3.28-2,14.44,14.44,0,0,1,5.07-.76,18,18,0,0,1,4,.43A10.26,10.26,0,0,1,150,16a6.36,6.36,0,0,1,2.27,2.31,6.53,6.53,0,0,1,.84,3.39V35.09a14.31,14.31,0,0,0,.08,1.58c.07.45.14.89.22,1.31h-6.23Zm-.28-7-5.39.49a6.17,6.17,0,0,0-3.09.91,2.29,2.29,0,0,0-.85,1.92,2.24,2.24,0,0,0,.33,1.28,2.65,2.65,0,0,0,.87.83,3.52,3.52,0,0,0,1.29.45,8.56,8.56,0,0,0,1.54.14,7.53,7.53,0,0,0,1.68-.22A6.41,6.41,0,0,0,145,33a4.51,4.51,0,0,0,1.36-1.21,3,3,0,0,0,.53-1.78Z" transform="translate(-31.53 -1.39)"/><path class="cls-2" d="M66.57,11.22a7.9,7.9,0,1,0-7.9,7.9,7.9,7.9,0,0,0,7.9-7.9" transform="translate(-31.53 -1.39)"/><path class="cls-2" d="M47.35,30.45a7.91,7.91,0,1,0-7.91,7.91,7.91,7.91,0,0,0,7.91-7.91" transform="translate(-31.53 -1.39)"/><path class="cls-2" d="M66.57,30.45a7.9,7.9,0,0,0-7.9-7.9c-1.42,0-4.49.4-5.65.13a58.81,58.81,0,0,1-5.31-4.91C46.39,16,49.3,10.27,45.1,6.53c-1.16-1-5.86-3.84-10.37-.36-3.07,2.37-4.1,8.35-.6,11.09,5.31,4.17,9.07,1.16,10.59,2.55.35.32,5.32,4.44,6.05,6,.21.45-.15,2.77,0,4.68.34,4.35,3.54,7.91,7.9,7.91a7.91,7.91,0,0,0,7.9-7.91" transform="translate(-31.53 -1.39)"/><path class="cls-3" d="M115.11,7.89a5.67,5.67,0,0,1-.19,1.55,3.33,3.33,0,0,1-.57,1.18,2.4,2.4,0,0,1-.92.75,3,3,0,0,1-1.26.26,2.38,2.38,0,0,1-.55-.06,2,2,0,0,1-.47-.16,3.14,3.14,0,0,1-.46-.28,5.09,5.09,0,0,1-.47-.39v3a.18.18,0,0,1,0,.13A.27.27,0,0,1,110,14a1.37,1.37,0,0,1-.29.07l-.46,0-.47,0a1.54,1.54,0,0,1-.29-.07.27.27,0,0,1-.15-.09.24.24,0,0,1,0-.13v-9a.2.2,0,0,1,0-.13.36.36,0,0,1,.13-.09,1.22,1.22,0,0,1,.25,0l.39,0,.38,0a1.09,1.09,0,0,1,.25,0,.42.42,0,0,1,.14.09.28.28,0,0,1,0,.13v.76c.2-.19.4-.36.58-.51a3.75,3.75,0,0,1,.58-.37,2.79,2.79,0,0,1,.61-.22,2.93,2.93,0,0,1,.67-.07,2.74,2.74,0,0,1,1.27.27,2.42,2.42,0,0,1,.85.77A3.3,3.3,0,0,1,115,6.52,6.06,6.06,0,0,1,115.11,7.89Zm-2,.13a4.07,4.07,0,0,0-.07-.79,2.09,2.09,0,0,0-.22-.68,1.31,1.31,0,0,0-.4-.47,1.08,1.08,0,0,0-.64-.18,1.19,1.19,0,0,0-.37.06,1.27,1.27,0,0,0-.38.17,3.5,3.5,0,0,0-.4.32,4.53,4.53,0,0,0-.43.49V9.07a4.45,4.45,0,0,0,.77.75,1.29,1.29,0,0,0,.75.26,1.07,1.07,0,0,0,.63-.18,1.33,1.33,0,0,0,.43-.48,2.16,2.16,0,0,0,.25-.66A3.65,3.65,0,0,0,113.13,8Z" transform="translate(-31.53 -1.39)"/><path class="cls-3" d="M122.39,11.24a.21.21,0,0,1-.08.16.76.76,0,0,1-.23.08,3.19,3.19,0,0,1-.49,0,3.12,3.12,0,0,1-.49,0,.53.53,0,0,1-.22-.08.23.23,0,0,1-.06-.16v-.52a3,3,0,0,1-1,.67,2.83,2.83,0,0,1-1.18.24,3.43,3.43,0,0,1-1-.14,2.38,2.38,0,0,1-.78-.39,1.84,1.84,0,0,1-.51-.66,2.14,2.14,0,0,1-.18-.91,2,2,0,0,1,.23-1,1.76,1.76,0,0,1,.69-.69,3.53,3.53,0,0,1,1.14-.4,8.2,8.2,0,0,1,1.58-.13h.66V6.94a2,2,0,0,0-.06-.53.89.89,0,0,0-.22-.38.85.85,0,0,0-.39-.23,2.13,2.13,0,0,0-.61-.07,3.15,3.15,0,0,0-.85.1,4.21,4.21,0,0,0-.66.23,4.88,4.88,0,0,0-.49.22.65.65,0,0,1-.31.1.3.3,0,0,1-.15,0,.28.28,0,0,1-.1-.15,1,1,0,0,1-.07-.23,2.66,2.66,0,0,1,0-.3,1.08,1.08,0,0,1,0-.35.49.49,0,0,1,.14-.24,1.25,1.25,0,0,1,.37-.23,4,4,0,0,1,.62-.24,5.62,5.62,0,0,1,.78-.17,4.94,4.94,0,0,1,.87-.07,5.24,5.24,0,0,1,1.35.15,2.25,2.25,0,0,1,.93.45,1.73,1.73,0,0,1,.53.79,3.62,3.62,0,0,1,.17,1.15Zm-1.87-2.77h-.73a3.62,3.62,0,0,0-.79.07,1.57,1.57,0,0,0-.52.19.76.76,0,0,0-.3.32.91.91,0,0,0,.17,1.06,1.14,1.14,0,0,0,.75.23,1.43,1.43,0,0,0,.73-.2,2.89,2.89,0,0,0,.69-.57Z" transform="translate(-31.53 -1.39)"/><path class="cls-3" d="M127.93,11.46l-.82,2.29a.49.49,0,0,1-.37.26,3.9,3.9,0,0,1-.89.08,3,3,0,0,1-.48,0,.62.62,0,0,1-.28-.08.17.17,0,0,1-.09-.14.49.49,0,0,1,0-.22l.9-2.16a.52.52,0,0,1-.17-.13.5.5,0,0,1-.12-.19L123.32,5.2a1.38,1.38,0,0,1-.1-.39.24.24,0,0,1,.1-.21.62.62,0,0,1,.3-.1,4.45,4.45,0,0,1,.57,0h.52a1.05,1.05,0,0,1,.3.06.27.27,0,0,1,.15.13,1.35,1.35,0,0,1,.11.26l1.59,4.32h0l1.46-4.41a.53.53,0,0,1,.11-.25.55.55,0,0,1,.24-.09,3.89,3.89,0,0,1,.59,0,4.16,4.16,0,0,1,.54,0,.56.56,0,0,1,.31.11.25.25,0,0,1,.11.21,1,1,0,0,1-.06.32Z" transform="translate(-31.53 -1.39)"/><path class="cls-3" d="M133.27,11.21a.21.21,0,0,1-.05.13.27.27,0,0,1-.16.09,1.45,1.45,0,0,1-.29.06h-.92a1.45,1.45,0,0,1-.29-.06.27.27,0,0,1-.16-.09.2.2,0,0,1,0-.13V1.7a.2.2,0,0,1,0-.13.34.34,0,0,1,.16-.1,1,1,0,0,1,.29-.06,5.3,5.3,0,0,1,.92,0,1,1,0,0,1,.29.06.34.34,0,0,1,.16.1.21.21,0,0,1,.05.13Z" transform="translate(-31.53 -1.39)"/><path class="cls-3" d="M137.22,2.57a1,1,0,0,1-.24.76,1.31,1.31,0,0,1-.87.21,1.27,1.27,0,0,1-.86-.2,1,1,0,0,1-.23-.73,1,1,0,0,1,.23-.76,1.87,1.87,0,0,1,1.74,0A1,1,0,0,1,137.22,2.57Zm-.15,8.64a.2.2,0,0,1,0,.13.27.27,0,0,1-.16.09,1.45,1.45,0,0,1-.29.06h-.92a1.76,1.76,0,0,1-.3-.06.27.27,0,0,1-.15-.09.2.2,0,0,1,0-.13V4.77a.17.17,0,0,1,0-.12.36.36,0,0,1,.15-.1l.3-.06.46,0,.46,0,.29.06a.34.34,0,0,1,.16.1.17.17,0,0,1,0,.12Z" transform="translate(-31.53 -1.39)"/><path class="cls-3" d="M145.43,11.21a.21.21,0,0,1-.05.13.27.27,0,0,1-.15.09,1.45,1.45,0,0,1-.29.06H144a1.45,1.45,0,0,1-.29-.06.27.27,0,0,1-.15-.09.2.2,0,0,1,0-.13V7.53a2.87,2.87,0,0,0-.08-.74,1.14,1.14,0,0,0-.21-.46.84.84,0,0,0-.35-.29,1.12,1.12,0,0,0-.5-.11,1.34,1.34,0,0,0-.73.25,4,4,0,0,0-.78.74v4.29a.2.2,0,0,1,0,.13.27.27,0,0,1-.16.09,1.45,1.45,0,0,1-.29.06h-.92a1.76,1.76,0,0,1-.3-.06.27.27,0,0,1-.15-.09.21.21,0,0,1-.05-.13V4.76a.28.28,0,0,1,0-.13.42.42,0,0,1,.14-.09l.25,0,.39,0,.4,0a1.09,1.09,0,0,1,.25,0,.48.48,0,0,1,.13.09.28.28,0,0,1,0,.13v.75a4.32,4.32,0,0,1,1.14-.87A2.6,2.6,0,0,1,143,4.35a2.83,2.83,0,0,1,1.16.21,2.2,2.2,0,0,1,.77.59,2.48,2.48,0,0,1,.42.88,5.12,5.12,0,0,1,.13,1.2Z" transform="translate(-31.53 -1.39)"/><path class="cls-3" d="M153.57,11.22a.2.2,0,0,1,0,.13s-.07.06-.15.09l-.3.05h-1a2,2,0,0,1-.32-.05.42.42,0,0,1-.19-.09.64.64,0,0,1-.13-.15l-2.24-3.4v3.41a.21.21,0,0,1-.05.13.27.27,0,0,1-.16.09,1.45,1.45,0,0,1-.29.06h-.92a1.45,1.45,0,0,1-.29-.06.31.31,0,0,1-.16-.09.2.2,0,0,1,0-.13V1.7a.2.2,0,0,1,0-.13.4.4,0,0,1,.16-.1,1,1,0,0,1,.29-.06,5.3,5.3,0,0,1,.92,0,1,1,0,0,1,.29.06.34.34,0,0,1,.16.1.21.21,0,0,1,.05.13V7.36l2-2.56.14-.16a.75.75,0,0,1,.2-.1l.31,0,.48,0,.47,0a1.82,1.82,0,0,1,.31,0,.45.45,0,0,1,.16.09.22.22,0,0,1,0,.14.53.53,0,0,1-.06.23,1.15,1.15,0,0,1-.17.26l-2,2.14,2.28,3.38a1.21,1.21,0,0,1,.13.25A.46.46,0,0,1,153.57,11.22Z" transform="translate(-31.53 -1.39)"/></svg>