<svg id="Warstwa_1" data-name="Warstwa 1" xmlns="http://www.w3.org/2000/svg" viewBox="0 0 144.76 36.68"><defs><style>.cls-1{fill:#f26722;}.cls-2{fill:#212458;}.cls-3{fill:#f26823;}.cls-4{fill:#fffaf7;}.cls-5{fill:#fffaf6;}.cls-6{fill:#fff9f5;}.cls-7{fill:#fff6ef;}.cls-8{fill:#fff7f1;}.cls-9{fill:#fff8f4;}.cls-10{fill:#fff7f2;}.cls-11{fill:#fff5ee;}.cls-12{fill:#fff8f3;}.cls-13{fill:#fff8f2;}.cls-14{fill:#fff4ec;}.cls-15{fill:#fff3ea;}.cls-16{fill:#fbbc91;}.cls-17{fill:#fbb789;}.cls-18{fill:#f36c25;}.cls-19{fill:#f26923;}.cls-20{fill:#f47b33;}.cls-21{fill:#f36d26;}</style></defs><title>ING</title><path class="cls-1" d="M127.32,2.51c.52.28,1.05.56,1.56.86.22.12.39,0,.58-.06s.46-.36.65-.19-.05.45-.1.68a2.85,2.85,0,0,0-.1.94,4.93,4.93,0,0,0,.64-.84c.56-1.15.71-1.24,1.95-1-.05.06-.08.13-.12.18a.46.46,0,0,0-.06.53c.13.17.34,0,.51,0,.95-.35,1-.35,1.63.09-.21.23-.59.25-.77.64a6,6,0,0,0,1.38-.14.74.74,0,0,1,.84.24,7.25,7.25,0,0,1,1.71,3.06c-.17.14-.29-.05-.43,0a.41.41,0,0,0,.17.53c.81.4,1.22,1.24,2,1.71a2.83,2.83,0,0,1,1.09,1.73c.24.84.41,1.7.63,2.6l-1-.3c.1.47.3.86.72,1,.82.19,1,.81,1.16,1.48.05.2.07.4.12.65l-.76-.3a1.22,1.22,0,0,0,.54,1.05.74.74,0,0,1,.36.81,1.16,1.16,0,0,0,.67,1.22,5.65,5.65,0,0,0,5.65.28.64.64,0,0,0,.44-.63,1.92,1.92,0,0,1,1.73-1.72,4.18,4.18,0,0,1,3.45,1.38,14.47,14.47,0,0,1,4,7.18,17.73,17.73,0,0,1,.06,8.1c-.09.42,0,.58.41.66a5,5,0,0,0,4.67-1.4,10.12,10.12,0,0,0,3.2-7,14.47,14.47,0,0,0-5.9-12.91,4.4,4.4,0,0,0-3.89-.92,4.12,4.12,0,0,1-3.93-1.49,4.76,4.76,0,0,1,1.36.26c-.08-1.14,1-.42,1.36-.87-.21-.34-.92-.55-1.89-.52-.13.18.19.41,0,.54s-.4-.09-.59-.07c-.69.1-1-.33-1.18-.85a3.26,3.26,0,0,0-.46-.7,7.81,7.81,0,0,0-.65-.6,19,19,0,0,1,3.74-1,2.87,2.87,0,0,1,1,0c.27.06.48.12.15.39-.14.11-.12.2,0,.3a1.56,1.56,0,0,0,1.26.47c.07-.26-.18-.41-.16-.72a2.57,2.57,0,0,1,1.33,1.08,12.11,12.11,0,0,0,3.7,3.67,13.69,13.69,0,0,1,4.48,5.41,16.41,16.41,0,0,1,1.43,12.75,11,11,0,0,1-4.06,5.68,8.07,8.07,0,0,1-5.76,1.52,1.38,1.38,0,0,0-.89.17,3.14,3.14,0,0,1-1.59.33c-1.87,0-3.73,0-5.6,0-.34,0-.52,0-.33-.44s.13-.85.35-1.23c.1-.17.22-.35.41-.35s.19.24.27.38a6.67,6.67,0,0,1,.34.71c.59-.43.72-.87.28-1.32s-.23-.78.13-1.12l.25.23c.22.24.51.35.74.11s-.12-.43-.27-.59c-1.19-1.3-1.45-.84-2.29.29a4.58,4.58,0,0,0-.82,2.81c0,.62-.37.5-.73.54s-.37-.26-.38-.53c0-.49,0-1,0-1.46,0-.23.1-.36.35-.18s.23.35.4.08.35-.38.15-.66a1.58,1.58,0,0,0-.29-.34c-.29-.22-.18-.43,0-.68s.25-.28.51-.12.61.24.4-.31c-.1-.25.07-.25.23-.23s.25.06.38.07a.28.28,0,0,0,.32-.17c0-.15-.11-.17-.19-.23a1.59,1.59,0,0,0-2.16.16.45.45,0,0,1-.36.14h-.16c-1.5,0-2,.28-2.56,1.66a2.34,2.34,0,0,0,.17,2c.12.22.26.45.42.72h-11.5a1.86,1.86,0,0,1,.42-.67.39.39,0,0,1,.55-.17,1.34,1.34,0,0,0,1.6-.21c-.39-.17-.75-.35-1.13-.49a.41.41,0,0,1-.3-.56,1.78,1.78,0,0,0,.07-.39c0-.5,0-1-.51-1.27a1.35,1.35,0,0,0-1.58.18,3,3,0,0,0-.29.33,2.38,2.38,0,0,0-.61-.46c-.59-.19-.47-.61-.35-1s.56-.37.91-.32a7.67,7.67,0,0,0,1.46.31,1.63,1.63,0,0,0-1.39-1c-.66-.06-1.42-.33-1.85.5-.05.08-.16.08-.26.07a2,2,0,0,0-2.3,1.17,5.5,5.5,0,0,0-.71,1.58,2.79,2.79,0,0,0,.65,2.35,1.05,1.05,0,0,1-.59.07c-4.58,0-9.16,0-13.74,0a.85.85,0,0,1-.9-.57c-.45-1.05-.63-2.06.28-3,.12-.13.09-.28.11-.42a2,2,0,0,1,2.07-1.71,1.27,1.27,0,0,0,.82-.25,2.33,2.33,0,0,1,2.46-.21c.47.23.58,0,.68-.32a20.24,20.24,0,0,1,1.52-4.22,2.67,2.67,0,0,0,.07-2.43,28.29,28.29,0,0,1-1.16-4.17c0-.24-.1-.49.12-.68a2.73,2.73,0,0,0,.64-1.37c-.49,0-.71.35-1,.79-.09-.61-.17-1.06-.21-1.52a.56.56,0,0,1,.24-.54c.65-.35.49-1,.57-1.57a2.73,2.73,0,0,0-.88.71V15.5c0-.1,0-.21.1-.25.54-.2.4-.65.41-1.05a16.36,16.36,0,0,1,.53-4.46,1.31,1.31,0,0,1,.17-.47,3.34,3.34,0,0,0,.74-2.12c0-.5.63-.55.84-1-.61,0-.43-.36-.21-.67s.35-.49.54-.73c.66-.83,1.39-1.48,2.56-.92a2.72,2.72,0,0,0,.73.12c-.09-.4-.44-.48-.67-.69l.09-.08c1.15-.49,1.15-.49,1.86.51.11.16.19.37.44.47a2,2,0,0,0-.3-1.67Zm-4.4,30.9a.89.89,0,0,0-.48-.1c0-.32.4-.71,0-1a5.67,5.67,0,0,0-1.46-.72c-.52-.12-.7.21-.8.57-.13.52.3.14.45.23a1.58,1.58,0,0,0,.36.14,10,10,0,0,1,1.51.72.35.35,0,0,0,.22.25c.42.51.45,1.23.86,1.79C124,34.07,123.81,33.55,122.92,33.41Zm20.78-3.15c.06-.38.42-.84.15-1.11a1.21,1.21,0,0,1-.4-1.1,1.14,1.14,0,0,0-.29-.81c-.18,0-.2.17-.27.27-.45.62-.44.74.12,1.24.13.12.2.24.11.39s0,.31.07.45a1.83,1.83,0,0,1,.31.78l0,.26A.37.37,0,0,0,143.7,30.26Zm-9.16-18.32a3.38,3.38,0,0,0,.23-2c-.06-.22.16-.21.27-.29.45-.27.93-.55,1.07-1.09a2.6,2.6,0,0,0-.24-2.2,2.26,2.26,0,0,0-3.12-.76A1.8,1.8,0,0,0,132,6.71c-.06.21-.12.33-.37.31a3.66,3.66,0,0,0-1.87.29c-.64.27-1.17-.39-1.81-.29a.52.52,0,0,1-.28,0,.46.46,0,0,1-.29-.16,4.94,4.94,0,0,0-1-1.21,1.92,1.92,0,0,0-2.14-.44c-.23.13-.47.25-.7.36a2.5,2.5,0,0,0-.95,1.79,2.9,2.9,0,0,0,1.39,2,.4.4,0,0,1,.24.57c-.3.86,0,1.74-.08,2.64-.09.61.45,1.2.92,1.68a1.31,1.31,0,0,1,.3.46c.14.35.08.47-.31.46a6.09,6.09,0,0,0-2.92.74c-.45.23-.46.26-.34.81a5.67,5.67,0,0,1,3-1c.19,0,.49-.16.53.22s0,.55-.34.72a11.23,11.23,0,0,0-2.15,1.11.84.84,0,0,0-.39,1.08c.2,0,.3-.17.42-.27a11.89,11.89,0,0,1,2.18-1.4c.37-.19.63-.23.89.15a.51.51,0,0,0,.81.14,3.63,3.63,0,0,1,1.57-.59c.58-.06.9-.38.79-.84a4.85,4.85,0,0,0-.76-1.31s-.07,0-.1,0c-.27.06-.49.06-.55-.28s.12-.48.4-.57a4.46,4.46,0,0,1,2.56,0,.63.63,0,0,1,.43.33c.17.3,0,.75-.3.66s-.46.08-.57.33a.83.83,0,0,1-.4.46c-.32.16-.2.42-.17.64s.08.43.38.48a5.59,5.59,0,0,1,2,.86c.23.16.42.17.54-.09.25-.52.58-.44,1-.21a10.67,10.67,0,0,1,1.46.94l1.21,1a.69.69,0,0,0-.22-.92,10.84,10.84,0,0,0-2.51-1.5c-.36-.14-.37-.37-.31-.66s.35-.19.54-.17a8.72,8.72,0,0,1,3.15,1,.54.54,0,0,0-.36-.76,8.29,8.29,0,0,0-3.08-.82c-.13,0-.29,0-.36-.12s0-.14.12-.2a5.13,5.13,0,0,0,2-3.29C134.9,11.82,134.77,12,134.54,11.94Zm-6.89,7.27c0,.28,0,.51,0,.73s.28.4.52.49.33-.07.47-.25.18-.63.44-.86c.09.37.19.69.25,1s.14.25.3.22c.36-.06.77,0,.77-.6a3,3,0,0,1,.16-.74c.27.21.28.54.56.69a3.55,3.55,0,0,0,.65-1.23c.18-.48,0-.69-.43-.83a7.07,7.07,0,0,0-4.1-.09c-.58.16-.67.51-.57,1C126.82,19.58,127,19.65,127.65,19.21Zm12.26,16,.14,0,.24-.74c0-.12.08-.3-.06-.35-.45-.12-.48-.52-.64-.84a1.25,1.25,0,0,0-.62-.53,4.73,4.73,0,0,0-3.5-.28c-.48.13-1,.31-.94,1a4.9,4.9,0,0,0,1.05-.18c.68-.28,1,.11,1.3.57.13.19.22.43.49.43.48,0,.64.34.7.73s.07.67.11,1c.66-.27.89-1.2.31-1.52s-.49-1.06-1-1.43c.4.07.9-.1,1.07.28C138.91,34,139.84,34.3,139.91,35.21Zm-20,2.23c.23-.3.39-.48.53-.67a7,7,0,0,0,.52-.81,1.07,1.07,0,0,0-.39-1.48c-.21-.16-.52-.24-.2-.62.17-.19-.13-.2-.24-.24a1.83,1.83,0,0,0-1.75.87,5.93,5.93,0,0,0-.5,3.08c.31-.77,1-1.34,1.27-2.11.18-.42.51-.05.77,0s.22.23.19.44A6,6,0,0,0,119.89,37.44ZM117.3,33.3c-.39.13-.79,0-1,.31a5,5,0,0,0-.87,3.63c0,.16,0,.47.21.46a.69.69,0,0,0,.58-.46.86.86,0,0,0,0-.39,3.36,3.36,0,0,1,.18-1.54c.11-.29.28-.33.49-.12s.38.43.57.65a1.11,1.11,0,0,0,.25-.6c.06-.32.11-.77-.19-.87C116.75,34.11,117.17,33.73,117.3,33.3Zm7.35.36c.38-.35.78-.67.53-1.24a4,4,0,0,0-1.1-1.18c-.39-.36-.87-.63-1.27-1-.77-.72-1.52-.67-2,.06-.09.13-.28.24-.13.43s.33,0,.46,0a1,1,0,0,1,1.18.24,2.9,2.9,0,0,0,1.83,1c.17,0,.4.16.3.32C124.09,32.79,124.67,33.17,124.65,33.66Zm14.73-1.61c0-.85-.62-1-1.18-1.27a6.76,6.76,0,0,0-2.27-.3c-1.19-.05-1.79.44-2,1.39a5.41,5.41,0,0,1,1.2-.49c.17,0,.39-.21.52-.05s.39.13.6.09a2.54,2.54,0,0,1,1.86.1A5.2,5.2,0,0,0,139.38,32.05Zm11-6.92c0,.52.21.83.71.74.3-.05.84.09.72-.56a.22.22,0,0,1,.17-.11,4.43,4.43,0,0,0,1.2-.26c.18,0,.35-.05.38.25s1,.87,1.31.79c.08,0,.15,0,.14-.14,0-.3,0-.68-.22-.83s-.57-.57-1-.42a.93.93,0,0,1-.8,0c-.91-.5-1.7.06-2.52.26C150.33,24.9,150.4,25.06,150.39,25.13ZM155,23.87a1.76,1.76,0,0,0-.85-1.17c-.33-.24-.6,0-.87.13s-.29.07-.31-.09c-.11-.6-.47-.4-.84-.3a5.92,5.92,0,0,1-.94.14c-.83.09-1.31.63-1.06,1.22.07.15.14.29.32.14.36-.32.87-.33,1.25-.61a1.16,1.16,0,0,1,1-.18A9.37,9.37,0,0,1,155,23.87Zm-8.07,5.48a4.66,4.66,0,0,0,.26-1.24.78.78,0,0,0-.43-1c-.37-.18-.32-.37,0-.53.13-.06.31-.16.23-.27-.33-.43-.39-1-.93-1.3-.16-.08-.35-.12-.39-.3-.17-.64-.7-.63-1.15-.72A12.91,12.91,0,0,1,146.9,29.35Zm-21.19,2c.05-.61.11-1.05-.24-1.41a11.12,11.12,0,0,0-1.56-1.43,3.66,3.66,0,0,0-1.73-.43c-.29-.05-.34.29-.51.46s-.32.25-.21.41.34,0,.51,0a1.78,1.78,0,0,1,2,.63,1,1,0,0,0,.41.38A2.22,2.22,0,0,1,125.71,31.34Zm13.36-1.14c-.17-.48-.3-1-.78-1.09-.75-.22-1.5-.89-2.29-.07a.23.23,0,0,1-.16.06c-.45-.07-.6.29-.81.56-.06.08-.15.19-.05.31s.23,0,.29,0c.77-.7,1.7,0,2.51-.31.06,0,.18.07.24.14A1.28,1.28,0,0,0,139.07,30.2Zm7.22,0c-.16-.19-.6,0-.49-.43.19-.78-.31-1.5-.15-2.36l-.38.24c-.49.26-.8.57-.36,1.14.1.13.06.36.07.55,0,.37-.2.83.42,1,.12,0,.14.26.14.41v.77A4.58,4.58,0,0,0,146.29,30.24Zm7,2.15c0-.17,0-.25.06-.32.15-.47.26-1-.19-1.29s-1.12-.9-1.9-.49c-.11.07-.24.09-.32.21s-.29.34-.19.56.33.1.5.1a3,3,0,0,1,.9,0c.18.06.4.13.4.33C152.53,32,153,32.09,153.28,32.39Zm.93-4.3a1.82,1.82,0,0,0-1.39-1.75,2.27,2.27,0,0,0-1.47.19c-.14.07-.47-.07-.35.26s.14.63.58.54a7.51,7.51,0,0,1,.82-.19c.31,0,.76-.05.87.23C153.46,27.81,153.85,27.84,154.21,28.09Zm-40.57,8.26v.79a.63.63,0,0,0,.24.49c.09.08.19.21.33.17s.1-.22.1-.34c0-.41,0-.82,0-1.23s.07-.66.54-.39c.24.14.3,0,.29-.2a1.4,1.4,0,0,0-.38-1c-.12-.14-.21-.16-.36,0C113.92,35.11,113.39,35.59,113.64,36.35Zm40.15-6.13c0-.31,0-.49,0-.68,0-.78,0-.82-.78-1a1.36,1.36,0,0,1-.65-.31.65.65,0,0,0-1.06.39c0,.25-.06.51-.09.76C152.37,28.77,152.74,28.88,153.79,30.22Zm-1-10.12c-.22-.54-.43-1-1.07-.87a.39.39,0,0,1-.3-.11c-.22-.47-.59-.42-1-.27a1.15,1.15,0,0,0-.66.92c0,.15,0,.31.17.22A4.19,4.19,0,0,1,152.74,20.1Zm-19.25,6.58c-.9-1-1.41-1.38-2.24-1.48-.1,0-.25-.09-.31,0a.26.26,0,0,0,.13.34,2,2,0,0,1,.69.72C132.29,27.05,132.59,27.12,133.49,26.68Zm16.18,6c.52-.15,1.08-.53,1.23.34,0,0,.16.07.25.1a5,5,0,0,0,.68.26c.18,0,.37.4.56.11s-.1-.45-.26-.63a.71.71,0,0,0-.43-.25c-.23,0-.3-.12-.31-.36s-.83-.65-1.09-.45A2.17,2.17,0,0,0,149.67,32.72ZM134,25.13c.75.8,2.16,1.44,2.94.88a7.8,7.8,0,0,0-.79-.44c-.3-.13-.41-.42-.6-.64s-.24-.09-.37-.06Zm18.65-3.47a1.48,1.48,0,0,0-1.59-.92,1.68,1.68,0,0,0-.93.68.5.5,0,0,0,0,.58c.14.15.36,0,.5-.1a1.73,1.73,0,0,1,1.37-.32Zm-14.14,3.28a6,6,0,0,1-1.08-1.26c-.12-.24-1.07-.16-1.21.07,0,.08,0,.14,0,.2A2.55,2.55,0,0,0,138.49,24.94Zm-13.56-2.39c.07-.25-.08-.42-.18-.62-.21-.41-.6-.71-.73-1.18-.07-.21-.26-.31-.43-.42s-.19-.16-.3-.1-.07.2-.07.3A2.29,2.29,0,0,0,124.93,22.55Zm8.53-1.47a2.53,2.53,0,0,0-.39,1.4c0,1,.61,1.35,1.61.89C133.55,23,133.83,21.92,133.46,21.08Zm-3.72,5c-.45.09-.94-.08-1.14.27-.33.58-.79,1.06-1.16,1.64A2.76,2.76,0,0,0,129.74,26.07Zm10.65,4.44c.18.68.37,1.24.48,1.83s-.14,1.18.47,1.57A3.27,3.27,0,0,0,140.39,30.51ZM134.25,20.2c-.11,1.32.84,2.25,1.6,2-.2-.26-.51-.45-.52-.79C135.33,20.66,134.8,20.44,134.25,20.2Zm-6.44,5.12c-.24,0-.54-.13-.71,0-.49.47-1,.87-1.62,1.33A1.82,1.82,0,0,0,127.81,25.32Zm-5.75-13.89c-1.09.26-1.29,1.29-.57,2.65C121.8,13.25,121.69,12.3,122.06,11.43Zm1.2,15.21c1.81.14,1.46,0,2-1.63-.38-.06-.41-.07-.51.13A4.29,4.29,0,0,1,123.26,26.64Zm22.41-4.14-.09.13,2,2.18c0-.5.11-.87-.14-1.13A8,8,0,0,0,145.67,22.5Zm-4.87,1a2,2,0,0,0-2.38-.65A3.07,3.07,0,0,0,140.8,23.49ZM135,34.12c.75.47,1.63.73,1.51,1.81a.64.64,0,0,0,.39-.87c-.07-.3-.17-.54-.54-.51a.25.25,0,0,1-.26-.17C136,33.89,135.61,33.81,135,34.12Zm20.09.5c.17-.22.37-.39.22-.55s-.17-.47-.15-.76a.78.78,0,0,0-.54-.73c-.28-.1-.24.29-.37.45s0,.32.12.44A4.51,4.51,0,0,1,155.13,34.62Zm-11.37-8.71a.78.78,0,0,0,.19.68c.1.15.08.52.42.35a.46.46,0,0,0,.2-.71,2,2,0,0,1-.29-.84c0-.2-.14-.33-.33-.3s-.11.2-.13.32S143.78,25.78,143.76,25.91Zm-15.57,3.25c.19.26.33.46.48.64s.66.22,1,.1.09-.26.08-.42c-.06-.5-.4-.32-.68-.32Zm9.9-13.43a1.18,1.18,0,0,0,.69,1.58c.11.05.25.13.36,0s0-.23,0-.35C139,16.36,138.41,16.16,138.09,15.73Zm-15.17,9.68a3,3,0,0,0,1-1.21c.06-.13.29-.38,0-.46s-.65-.18-.77.2A4.05,4.05,0,0,0,122.92,25.41Zm35-14.64c-.25-1.3-.7-1.67-1.68-1.24A12.77,12.77,0,0,0,157.93,10.77Zm-2.86-1.88c-.77-.8-1.17-.8-2.25,0A10,10,0,0,0,155.07,8.89ZM139.82,19.73c-.23-.25-.44-.5-.69-.73s-.57-.08-.85,0c-.12,0-.11.13-.08.22a.63.63,0,0,0,.6.51Zm-7.92,2.36c-.33.39-.83.57-.72,1s.6.55,1.06.7A7.69,7.69,0,0,1,131.9,22.09Zm16.53,6.27c0-.49,0-.8.06-1.12a.85.85,0,0,0-.3-.69.44.44,0,0,0-.61,0c-.21.15,0,.29.07.42C147.87,27.37,148.11,27.79,148.43,28.36ZM136.25,13.89c1-.28,1.08-1,.33-1.9Zm-6.77,10.26a1.6,1.6,0,0,0,.59-1.68C129.14,23.33,129.14,23.33,129.48,24.15Zm-7.88-.6c.25-.54.74-.76,1.07-1.18-.37-.16-.65-.39-1-.07S121.47,23.06,121.6,23.55Zm34.27,9a2.24,2.24,0,0,0,.17-1.33.33.33,0,0,0-.19-.26c-.17,0-.22.09-.29.2C155.2,31.77,155.24,32,155.87,32.58ZM127,22.27a2.59,2.59,0,0,0,1.06,1.45C128,22.44,128,22.28,127,22.27Zm5.53,7.38c-.15-.34-.28-.61-.39-.88s-.28-.27-.5-.22-.31-.06-.34.1a.59.59,0,0,0,.2.55A1.72,1.72,0,0,0,132.54,29.65ZM126,22.22c.3-1,.23-1.21-.66-1.59A3.73,3.73,0,0,0,126,22.22Zm12.06-1.14a3,3,0,0,0-.69-.65c-.17-.18-.31,0-.44.05s-.3.15-.28.32.23.22.38.27A2.93,2.93,0,0,0,138.1,21.08ZM143,25.14a.9.9,0,0,0-.09-1.29c-.14-.12-.27-.22-.3.06C142.54,24.37,142.47,24.85,143,25.14ZM142.06,22c-1-.7-1-.7-1.5-.18A2,2,0,0,0,142.06,22ZM121.38,10.15c.73-.33.75-.39.55-1.23A1.16,1.16,0,0,0,121.38,10.15Z" transform="translate(-23.62 -2.51)"/><path class="cls-2" d="M23.62,11.54H36.73c.19,0,.48-.13.54.12a2.22,2.22,0,0,1,0,.89c0,.17-.22.1-.34.1a11,11,0,0,0-1.4.08,2.27,2.27,0,0,0-2.08,2.17,10.85,10.85,0,0,0-.1,1.4V33.67c0,.43,0,.87.07,1.3a2.35,2.35,0,0,0,2.41,2.4c.28,0,.56,0,.85.06.59,0,.78.34.62.93-.06.19-.18.16-.3.17H24.24c-.21,0-.41,0-.62,0v-1l1.52-.12a2.3,2.3,0,0,0,2.37-2.18,7,7,0,0,0,.08-1.29V16.25a9.15,9.15,0,0,0-.12-1.57,2.2,2.2,0,0,0-1.93-1.92,11.24,11.24,0,0,0-1.92-.1Z" transform="translate(-23.62 -2.51)"/><path class="cls-2" d="M68.1,29C67.84,25,68,20.8,68,16.59c0-.39,0-.79,0-1.18a2.58,2.58,0,0,0-2.89-2.75c-.47,0-.65-.09-.63-.62s.14-.51.54-.51q4.25,0,8.48,0c.35,0,.58,0,.54.46s0,.72-.53.66a2.64,2.64,0,0,0-.79.06,2.5,2.5,0,0,0-2.34,2.47,15.39,15.39,0,0,0-.11,1.8q0,10.36,0,20.75c0,.28.17.63-.13.83a2,2,0,0,1-1.47-.28c-1-1.08-2.08-2.17-3.13-3.25L48.84,17.67a1.84,1.84,0,0,0-.39-.4c0,.77.14,1.47.14,2.2q0,7.41,0,14.83a5.44,5.44,0,0,0,.22,1.5,1.94,1.94,0,0,0,1.88,1.58,5.76,5.76,0,0,0,1,.06c.58-.07.46.3.49.63s-.12.51-.51.5H42.76c-.38,0-.55-.06-.52-.48s-.06-.66.52-.67c2.1,0,2.89-.38,3.13-3.1.07-.84.1-1.69.1-2.53q0-7.68,0-15.35a6.52,6.52,0,0,0-.1-1.17c-.33-1.65-1.41-2.5-3.27-2.61-.18,0-.46.11-.51-.09a2.47,2.47,0,0,1,0-.9c0-.16.22-.1.34-.1H50.9c.32,0,.47.2.65.38q7.39,7.77,14.81,15.52C66.93,28.06,67.59,28.57,68.1,29Z" transform="translate(-23.62 -2.51)"/><path class="cls-2" d="M101.06,24.53c1.79,0,3.58,0,5.37,0,.32,0,.68-.12.65.46s-.08.71-.61.65a3.47,3.47,0,0,0-.9.08,1.71,1.71,0,0,0-1.67,1.78c-.14,1.3-.08,2.6-.09,3.89,0,1.47,0,2.94,0,4.4a.71.71,0,0,1-.45.73,21,21,0,0,1-12.89,2.56A15.42,15.42,0,0,1,80,34.14a12,12,0,0,1-3.19-9.58c.6-7.4,6.31-12.53,13.34-13.38a18.78,18.78,0,0,1,9.29,1.26l.32.12c1.24.48,1.65.27,1.82-1.05.09-.63.47-.44.8-.48s.36.27.38.51c.23,2.74.46,5.47.68,8.21,0,.15.22.48-.17.45s-.72.25-.9-.27a12.18,12.18,0,0,0-.58-1.52,9.06,9.06,0,0,0-5.36-4.55,9.37,9.37,0,0,0-9.55,1.21A9.72,9.72,0,0,0,83.41,21a15.93,15.93,0,0,0,.71,10.11,9.89,9.89,0,0,0,10.24,6,9.36,9.36,0,0,0,4.14-1.66.4.4,0,0,0,.19-.38c0-2.46.1-4.92-.08-7.38a1.78,1.78,0,0,0-1.76-1.85,10.39,10.39,0,0,0-1.46-.12c-.54,0-.35-.37-.38-.63s0-.49.4-.48C97.29,24.54,99.18,24.53,101.06,24.53Z" transform="translate(-23.62 -2.51)"/><path class="cls-3" d="M128.8,35.15c.2-.67.2-.67,1.27-.9a5.94,5.94,0,0,0,.38,4.09s0,0-.07,0c-.36,0-.93.18-1.06-.08-.29-.63-.82-1.19-.77-2,0-.33.31-.33.5-.45s.5-.23.41-.52S129.1,35.11,128.8,35.15Z" transform="translate(-23.62 -2.51)"/><path class="cls-3" d="M132.14,36.36c0,.57,0,1.13-.07,1.69,0,.16,0,.4-.23.33s-.58.24-.7-.22a12.43,12.43,0,0,1-.4-2.09,1.32,1.32,0,0,1,.37-.86.16.16,0,0,1,.19-.07A1.76,1.76,0,0,1,132.14,36.36Z" transform="translate(-23.62 -2.51)"/><path class="cls-3" d="M145.78,35.7c.14,0,.17.18.23.26s.13.39.31.36.22-.28.23-.46a1.2,1.2,0,0,0,0-.5c-.34-.79.28-.51.74-.65-.63,1.11-.31,2.17-.24,3.22,0,.15.19.42-.11.44s-.66.19-.83-.12a4.39,4.39,0,0,1-.59-2A.85.85,0,0,1,145.78,35.7Z" transform="translate(-23.62 -2.51)"/><path class="cls-3" d="M133.16,38.39c-.33.06-.48,0-.42-.41.1-.65.14-1.3.24-1.95s.42-.78.83-.69.56.41.39,1-.37,1.13-.53,1.71C133.6,38.33,133.46,38.45,133.16,38.39Z" transform="translate(-23.62 -2.51)"/><path class="cls-4" d="M138.49,24.94a2.55,2.55,0,0,1-2.25-1c0-.06-.09-.12,0-.2.14-.23,1.09-.31,1.21-.07A6,6,0,0,0,138.49,24.94Z" transform="translate(-23.62 -2.51)"/><path class="cls-5" d="M133.46,21.08c.37.84.09,1.9,1.22,2.29-1,.46-1.59.09-1.61-.89A2.53,2.53,0,0,1,133.46,21.08Z" transform="translate(-23.62 -2.51)"/><path class="cls-5" d="M140.39,30.51a3.27,3.27,0,0,1,1,3.4c-.61-.39-.37-1-.47-1.57S140.57,31.19,140.39,30.51Z" transform="translate(-23.62 -2.51)"/><path class="cls-5" d="M134.25,20.2c.55.24,1.08.46,1.08,1.19,0,.34.32.53.52.79C135.09,22.45,134.14,21.52,134.25,20.2Z" transform="translate(-23.62 -2.51)"/><path class="cls-6" d="M122.06,11.43c-.37.87-.26,1.82-.57,2.65C120.77,12.72,121,11.69,122.06,11.43Z" transform="translate(-23.62 -2.51)"/><path class="cls-4" d="M145.67,22.5a8,8,0,0,1,1.77,1.18c.25.26.13.63.14,1.13l-2-2.18Z" transform="translate(-23.62 -2.51)"/><path class="cls-7" d="M135,34.12c.57-.31.91-.23,1.1.26a.25.25,0,0,0,.26.17c.37,0,.47.21.54.51a.64.64,0,0,1-.39.87C136.67,34.85,135.79,34.59,135,34.12Z" transform="translate(-23.62 -2.51)"/><path class="cls-6" d="M155.13,34.62a4.51,4.51,0,0,0-.72-1.15c-.09-.12-.26-.26-.12-.44s.09-.55.37-.45a.78.78,0,0,1,.54.73c0,.29-.09.52.15.76S155.3,34.4,155.13,34.62Z" transform="translate(-23.62 -2.51)"/><path class="cls-5" d="M122.92,33.41c.89.14,1.06.66.61,1.93-.41-.56-.44-1.28-.86-1.79C122.7,33.42,122.83,33.45,122.92,33.41Z" transform="translate(-23.62 -2.51)"/><path class="cls-5" d="M143.76,25.91c0-.13,0-.32.06-.5s-.06-.3.13-.32.31.1.33.3a2,2,0,0,0,.29.84.46.46,0,0,1-.2.71c-.34.17-.32-.2-.42-.35A.78.78,0,0,1,143.76,25.91Z" transform="translate(-23.62 -2.51)"/><path class="cls-7" d="M128.19,29.16h.87c.28,0,.62-.18.68.32,0,.16.16.34-.08.42s-.7.22-1-.1S128.38,29.42,128.19,29.16Z" transform="translate(-23.62 -2.51)"/><path class="cls-8" d="M138.09,15.73c.32.43.9.63,1,1.24,0,.12.16.23,0,.35s-.25,0-.36,0A1.18,1.18,0,0,1,138.09,15.73Z" transform="translate(-23.62 -2.51)"/><path class="cls-6" d="M122.92,25.41a4.05,4.05,0,0,1,.22-1.47c.12-.38.51-.28.77-.2s0,.33,0,.46A3,3,0,0,1,122.92,25.41Z" transform="translate(-23.62 -2.51)"/><path class="cls-9" d="M157.93,10.77a12.77,12.77,0,0,1-1.68-1.24C157.23,9.1,157.68,9.47,157.93,10.77Z" transform="translate(-23.62 -2.51)"/><path class="cls-10" d="M155.07,8.89a10,10,0,0,1-2.25,0C153.9,8.09,154.3,8.09,155.07,8.89Z" transform="translate(-23.62 -2.51)"/><path class="cls-11" d="M139.82,19.73h-1a.63.63,0,0,1-.6-.51c0-.09,0-.19.08-.22.28-.08.58-.25.85,0S139.59,19.48,139.82,19.73Z" transform="translate(-23.62 -2.51)"/><path class="cls-6" d="M131.9,22.09a7.69,7.69,0,0,0,.34,1.73c-.46-.15-1-.23-1.06-.7S131.57,22.48,131.9,22.09Z" transform="translate(-23.62 -2.51)"/><path class="cls-12" d="M148.43,28.36c-.32-.57-.56-1-.78-1.41-.06-.13-.28-.27-.07-.42a.44.44,0,0,1,.61,0,.85.85,0,0,1,.3.69C148.47,27.56,148.45,27.87,148.43,28.36Z" transform="translate(-23.62 -2.51)"/><path class="cls-10" d="M136.25,13.89l.33-1.9C137.33,12.93,137.22,13.61,136.25,13.89Z" transform="translate(-23.62 -2.51)"/><path class="cls-8" d="M129.48,24.15c-.34-.82-.34-.82.59-1.68A1.6,1.6,0,0,1,129.48,24.15Z" transform="translate(-23.62 -2.51)"/><path class="cls-13" d="M121.6,23.55c-.13-.49-.4-.87.05-1.25s.65-.09,1,.07C122.34,22.79,121.85,23,121.6,23.55Z" transform="translate(-23.62 -2.51)"/><path class="cls-9" d="M155.87,32.58c-.63-.6-.67-.81-.31-1.39.07-.11.12-.25.29-.2a.33.33,0,0,1,.19.26A2.24,2.24,0,0,1,155.87,32.58Z" transform="translate(-23.62 -2.51)"/><path class="cls-8" d="M127,22.27c1,0,1,.17,1.06,1.45A2.59,2.59,0,0,1,127,22.27Z" transform="translate(-23.62 -2.51)"/><path class="cls-12" d="M132.54,29.65a1.72,1.72,0,0,1-1-.45.59.59,0,0,1-.2-.55c0-.16.22-.07.34-.1s.4,0,.5.22S132.39,29.31,132.54,29.65Z" transform="translate(-23.62 -2.51)"/><path class="cls-8" d="M126,22.22a3.73,3.73,0,0,1-.66-1.59C126.27,21,126.34,21.18,126,22.22Z" transform="translate(-23.62 -2.51)"/><path class="cls-14" d="M138.1,21.08a2.93,2.93,0,0,1-1,0c-.15-.05-.36-.07-.38-.27s.17-.23.28-.32.27-.23.44-.05A3,3,0,0,1,138.1,21.08Z" transform="translate(-23.62 -2.51)"/><path class="cls-5" d="M143,25.14c-.51-.29-.44-.77-.39-1.23,0-.28.16-.18.3-.06A.9.9,0,0,1,143,25.14Z" transform="translate(-23.62 -2.51)"/><path class="cls-8" d="M142.06,22a2,2,0,0,1-1.5-.18C141.1,21.3,141.1,21.3,142.06,22Z" transform="translate(-23.62 -2.51)"/><path class="cls-15" d="M121.38,10.15a1.16,1.16,0,0,1,.55-1.23C122.13,9.76,122.11,9.82,121.38,10.15Z" transform="translate(-23.62 -2.51)"/><path class="cls-16" d="M143.5,30.37l.2-.11a.37.37,0,0,1-.17.37Z" transform="translate(-23.62 -2.51)"/><path class="cls-17" d="M122.92,33.41c-.09,0-.22,0-.25.14a.35.35,0,0,1-.22-.25h0A.89.89,0,0,1,122.92,33.41Z" transform="translate(-23.62 -2.51)"/><path class="cls-3" d="M131.15,11.08c.06.52-.05,1.09.19,1.38s.59,1.06,1.28,1.22.62.31.25.79c-.13.16-.19.16-.39.07-.68-.3-1-.94-1.58-1.38-.13-.11-.11-.27-.12-.42-.07-.59-.11-1.19-.18-1.78a.55.55,0,0,1,.48-.65,8.12,8.12,0,0,1,2.41-.06c.07,0,.15,0,.16.12a.23.23,0,0,1-.16.21,2.27,2.27,0,0,0-.8.68C132.43,11.6,131.72,11.5,131.15,11.08Z" transform="translate(-23.62 -2.51)"/><path class="cls-1" d="M135.49,8c0,.42,0,.91-.8,1-.17,0-.27.12-.38-.1a3.55,3.55,0,0,0-1.44-1.46c-.11-.07-.21-.1-.19-.29a1.26,1.26,0,0,1,1.74-.91C135.36,6.72,135.5,6.92,135.49,8Z" transform="translate(-23.62 -2.51)"/><path class="cls-1" d="M123.36,7.56a3.89,3.89,0,0,1,.4-1.12A1,1,0,0,1,125.1,6a2.72,2.72,0,0,1,1.24.74c.24.3.35.57-.16.76a6.86,6.86,0,0,0-1,.56c-.19.1-.33.44-.53.34-.37-.18-.81-.19-1.12-.49A.46.46,0,0,1,123.36,7.56Z" transform="translate(-23.62 -2.51)"/><path class="cls-3" d="M127.17,11.23c-.65.32-1,.26-1.37-.29-.18-.3-.58-.36-.69-.74a11.81,11.81,0,0,1,2.3,0,.56.56,0,0,1,.55.7c-.1.74-.21,1.49-.31,2.23,0,0,0,.09,0,.11-.54.37-.82,1.05-1.51,1.24-.22.06-.23-.09-.24-.21a.78.78,0,0,1,.43-.85C127.37,13,127.43,12.19,127.17,11.23Z" transform="translate(-23.62 -2.51)"/><path class="cls-18" d="M130.22,8.42A1.62,1.62,0,0,1,132,9c0,.07,0,.14,0,.2s-1,.07-1-.15A.91.91,0,0,0,130.22,8.42Z" transform="translate(-23.62 -2.51)"/><path class="cls-19" d="M128.62,8.38c-.33.79-.82,1.17-1.65.86A1.69,1.69,0,0,1,128.62,8.38Z" transform="translate(-23.62 -2.51)"/><path class="cls-20" d="M127.19,15.74l-.76.33c-.14.06-.29.17-.35-.07s0-.36.19-.37A1.48,1.48,0,0,1,127.19,15.74Z" transform="translate(-23.62 -2.51)"/><path class="cls-21" d="M131.44,15.8h.78c.24,0,.21.16.18.3s-.14.18-.28.11l-.7-.3Z" transform="translate(-23.62 -2.51)"/></svg>