<svg id="Warstwa_1" data-name="Warstwa 1" xmlns="http://www.w3.org/2000/svg" viewBox="0 0 1894.7 639.04"><defs><style>.cls-1,.cls-2{fill:#d13239;}.cls-1,.cls-3{fill-rule:evenodd;}.cls-3{fill:#b3b2b1;}</style></defs><title>logo-przelewy-24</title><polygon class="cls-1" points="396.9 368.31 553.3 368.11 547.6 403.71 416.8 528.61 526.6 528.41 520.2 566.81 358.5 566.91 365.3 527.21 490.7 407.11 390.6 407.11 396.9 368.31"/><path class="cls-1" d="M238.5,324c-3.4-3.6-8.3-6.4-13.7-8.6a99.55,99.55,0,0,0-18.2-4.9,153.91,153.91,0,0,0-20.8-2.2c-5-.2-8.2-.2-8.2-.2H58.3L12.7,583.5H55.3l16.8-102,82.6.4s32.2,1.3,55-10.8,28.9-39.6,28.9-39.6,2.5-10.2,4.6-22.6c2.3-13.7,4.6-30.1,5.8-38.8.5-3.8.8-6.2.8-6.2a37.86,37.86,0,0,0,.6-7.2,49.2,49.2,0,0,0-5.6-24.1A39.53,39.53,0,0,0,238.5,324Zm-32.8,48.6c0,.5-3.8,22.6-8.8,48.8-1.9,10-9.6,15.4-18.4,17.3-14.6,3.1-30.3,2.5-30.3,2.5l-69-.2,15.2-91.5,62.5.2s4.2-.1,10.1,0a203.68,203.68,0,0,1,22.9,1.4c6.3.8,11.3,2.1,12.9,4.1a17,17,0,0,1,3.2,9A37.53,37.53,0,0,1,205.7,372.6Z" transform="translate(-12.7 -16.59)"/><polygon class="cls-1" points="765.4 291.51 806.4 291.51 760.5 566.91 719.4 566.81 765.4 291.51"/><polygon class="cls-1" points="984.2 368.31 1023.5 368.21 1037.4 508.01 1097.9 368.01 1146.4 368.11 1160.7 508.51 1221.1 368.21 1261.9 368.21 1175.3 566.71 1126.9 566.71 1112.9 427.71 1051.8 566.71 1004.2 566.91 984.2 368.31"/><path class="cls-2" d="M702.4,386.5c-11.5-3.7-31.4-4.5-48.3-4.3-16.3.2-23.8,1-29.9,2.3,0,0-29,4.2-45.5,24.6s-21.4,65-21.4,65-9.8,49.3-6.9,65.8,8,31.7,26.6,38.8a98.57,98.57,0,0,0,34.4,6.8s33.2,2.6,58.2-3.3a71.34,71.34,0,0,0,38.2-23.5,99,99,0,0,0,10.1-16.6,79.4,79.4,0,0,0,5.7-16.1l2.6-10.7-42.5.1s-2.3,28.1-25.3,30.7-35.2,1.6-39.7,1.4-29,.9-27-19.7a7.17,7.17,0,0,1,.1-1.3c1.1-23.4,3.7-29.5,3.7-29.5l133.5-.4,5.7-33C741.3,426.2,736.6,397.7,702.4,386.5Zm-8.9,72.4-91.5-.1,3.6-14.5s3.2-11.4,9.5-16.2,14.5-5.7,22.1-6.4,27.9-2.2,44.4,1.2c5.5,1.1,10.7,4.2,12.1,8.8C696.9,442.5,693.5,458.9,693.5,458.9Z" transform="translate(-12.7 -16.59)"/><path class="cls-2" d="M592,526.9c0,.3-.1.6-.1.9C591.8,529.4,592,526.8,592,526.9Z" transform="translate(-12.7 -16.59)"/><path class="cls-2" d="M843.8,527c0,.3-.1.6-.1.9C843.7,529.5,843.8,526.9,843.8,527Z" transform="translate(-12.7 -16.59)"/><path class="cls-2" d="M954.3,386.6c-11.5-3.7-31.4-4.5-48.3-4.3-16.3.2-23.8,1-29.9,2.3,0,0-29,4.2-45.5,24.6s-21.4,65-21.4,65-9.8,49.3-6.9,65.8,8,31.7,26.6,38.8a98.57,98.57,0,0,0,34.4,6.8s33.2,2.6,58.2-3.3a71.34,71.34,0,0,0,38.2-23.5,99,99,0,0,0,10.1-16.6,79.4,79.4,0,0,0,5.7-16.1l2.6-10.7-42.5.1s-2.3,28.1-25.3,30.7a231.1,231.1,0,0,1-39.7,1.5c-4.4-.2-29,.8-27-19.7a7.17,7.17,0,0,1,.1-1.3c1.1-23.4,3.7-29.5,3.7-29.5l133.5-.4,5.7-33C993.2,426.3,988.5,397.7,954.3,386.6ZM945,458.9l-91.5-.1,3.6-14.5s3.2-11.4,9.5-16.2,14.5-5.7,22.1-6.4,27.9-2.2,44.4,1.2c5.5,1.1,10.7,4.2,12.1,8.8C948.4,442.4,945,458.9,945,458.9Z" transform="translate(-12.7 -16.59)"/><path class="cls-1" d="M1321.8,384.9l26.3,145.2,74.3-145.3,41.8.4L1357.1,592.7s-19.4,37.6-31.4,47.1-19.4,13.8-29.2,14.8-13.8,1.7-23.2,0l-10-1.8,6.2-37.1s16.6,3.1,26.4-.8,17.8-20.7,17.8-20.7l5-8.4-38.7-201,41.8.1Z" transform="translate(-12.7 -16.59)"/><path class="cls-3" d="M1479.4,404.6l43.1.1,2.6-16.7s4.6-30.2,14.9-36c3.3-1.9,8.6-3.6,14.7-4.7,11.3-2,25.6-2.2,37.3-1.8,17.9.6,24.7.8,42.9,2.9s13.6,19.7,13.6,19.7l-3.6,26.3s-1.6,11.8-5.8,19.1c-3.7,6.5-13.9,10.9-19.8,12.8-14.2,4.6-62.8,17-62.8,17l-38.2,11s-23.5,6.8-36.6,21.3a87.6,87.6,0,0,0-20.2,39.7c-1.8,8.6-11.9,68.1-11.9,68.1l206.2.1,6.9-41.2-163.1.2,2.9-16.8s1.9-17.3,8.9-23c2.2-1.8,3.3-4.2,16.3-8.8,7.8-2.8,34.4-9.9,34.4-9.9l61.5-16.8s33.6-8.6,46.8-27,18.3-53.4,18.3-53.4,3.6-34.1.8-44.8-12.8-23.5-25.1-29-25.1-8.7-62.2-8.2-55.5,2.2-74.3,9.2-29.7,19.5-36.6,37.3c-7.5,16.9-11.9,53.3-11.9,53.3Z" transform="translate(-12.7 -16.59)"/><path class="cls-3" d="M1867.6,481.2,1896.5,308h-51.2L1685.9,479.2l-7.2,43.4h139.4l-10.2,60.8,42.8.1,10.1-60.9,39.5.1,7.1-41.5Zm-42.6.1-90.1-.1,109.7-116.9Z" transform="translate(-12.7 -16.59)"/><path class="cls-3" d="M328.9,330.8H460.2s29.4-23.8,50.3-39.1,58.9-39.4,58.9-39.4l-74.2-34.7s-62.7,38.8-89.3,57.1c-25.8,16.9-77,56.1-77,56.1Z" transform="translate(-12.7 -16.59)"/><path class="cls-3" d="M611.1,227.8l-60.9-41a1151.24,1151.24,0,0,1,128.4-60.5c73.2-29.2,112.3-41.4,112.3-41.4L803.3,143s-70.5,23.6-110.9,42.7c-41.8,17.8-81.3,42.1-81.3,42.1Z" transform="translate(-12.7 -16.59)"/><path class="cls-3" d="M848.3,130.3,837.7,70.8s75.2-20,144-32.8,160.2-18.9,160.2-18.9L1111.7,111s-80.3-11-155.7-.7a873.8,873.8,0,0,0-107.7,20Z" transform="translate(-12.7 -16.59)"/><path class="cls-3" d="M1159.5,118.8l50.8-102.1s111.3-2.2,207.3,12.7S1601.4,67,1599.5,68L1356.1,195.3s-56.9-36-127.5-58.1c-40-11.8-69.1-18.4-69.1-18.4Z" transform="translate(-12.7 -16.59)"/><path class="cls-3" d="M1399.7,223l53.5,40.6h439.7s-.9-14.2-12.6-34.4c-7.3-12.6-20.6-26-34.5-39.9-5.1-5-25.3-20.8-40.5-30.7-38.8-25.2-60.5-34.9-100.8-53.2L1399.7,223Z" transform="translate(-12.7 -16.59)"/><path class="cls-2" d="M357.4,384.7c-16.5,0-32.1,6.5-45.4,13.8l2.3-13.8H270.6l-35,197.7h43.8l19.4-109.5c4-22.2,20.6-49.7,53-49.7l22.6-.1,6.8-38.4Z" transform="translate(-12.7 -16.59)"/></svg>