<svg id="Warstwa_1" data-name="Warstwa 1" xmlns="http://www.w3.org/2000/svg" viewBox="0 0 65.24 40.26">
  <defs>
    <style>
      .cls-1 {
        fill: #ec2528;
      }

      .cls-2 {
        fill: #f36b24;
      }

      .cls-3 {
        fill: #f9a020;
      }
    </style>
  </defs>
  <path class="cls-1" d="M86.88,20.89a20,20,0,0,1,7.7-15.77,20.11,20.11,0,1,0,0,31.54A20,20,0,0,1,86.88,20.89Z" transform="translate(-61.98 -0.74)"/>
  <path class="cls-2" d="M94.58,5.09c3.8-1.84,7.7,7.05,7.7,15.77s-4,17.94-7.7,15.77c-3.3-2-7.79-7.07-7.7-15.77S92.05,6.29,94.58,5.09Z" transform="translate(-61.98 -0.74)"/>
  <path class="cls-3" d="M125.78,31.74v-.58h-.23V31h.64v.17H126v.58Zm1.26,0v-.52l-.17.45h-.18l-.17-.45v.52h-.17V31h.25l.18.48L127,31h.27v.75Z" transform="translate(-61.98 -0.74)"/>
  <path class="cls-3" d="M107,.74A20,20,0,0,0,94.58,5.09,20,20,0,0,1,98,33.19l-.09.13a19.93,19.93,0,0,1-3.31,3.31A20.11,20.11,0,1,0,107,.74Z" transform="translate(-61.98 -0.74)"/>
</svg>
