<svg id="Warstwa_1" data-name="Warstwa 1" xmlns="http://www.w3.org/2000/svg" xmlns:xlink="http://www.w3.org/1999/xlink" viewBox="0 0 109.11 41.96"><defs><style>.cls-1{fill:#23aa4a;}.cls-2{fill:#cf1e29;}.cls-3{fill:#f7941d;}.cls-4{fill:#ee3124;}.cls-5{fill:#1a1817;}.cls-6{fill:#047bc1;}.cls-7{fill:#fff;}</style><symbol id="logo_mBank_MASS" data-name="logo mBank MASS" viewBox="0 0 737.01 283.46"><rect class="cls-1" x="556.84" width="180.17" height="283.46"/><rect class="cls-2" x="414.9" width="121.33" height="283.46"/><rect class="cls-3" x="238.26" width="176.64" height="283.46"/><rect class="cls-4" width="208.07" height="283.46"/><rect class="cls-5" x="208.07" width="30.2" height="283.46"/><rect class="cls-6" x="536.23" width="20.6" height="283.46"/><path class="cls-7" d="M391.69,208.45c-20.6,0-33.4-12-33.4-31.3,0-20,13.77-31.88,36.84-31.88A61.9,61.9,0,0,1,412.9,148l.38.12v-1.69c0-6.53-.91-9.88-3.49-12.8-2.8-3.17-7.86-4.77-15-4.77a61.61,61.61,0,0,0-27.43,6.81l-.83.42V117.6l.34-.15c8.7-4,20-6.16,31.93-6.16,14.93,0,25.61,3.24,32.65,9.89,5.73,5.34,8.39,13,8.39,24.09v39.52c0,3.67,1.11,5.16,3.82,5.16a15.28,15.28,0,0,0,7.11-2.37l1-.73-1,16-.21.15c-4.3,3-10.94,4.88-17.32,4.88-7.95,0-13.94-3.19-16.44-8.76l-.18-.4-.29.32C411,204.94,401.81,208.45,391.69,208.45Zm9-47.54c-10,0-15.67,5.5-15.67,15.09s5.08,14.91,13.94,14.91a14.48,14.48,0,0,0,10.67-4.21c2.39-2.59,3.67-6.48,3.67-11.27V163l-.19-.07A41.11,41.11,0,0,0,400.67,160.91Zm-178.74,47c-7.83,0-13.45-2.26-16.69-6.72-2.36-3.28-3.56-8.4-3.56-15.23v-36.3c0-5.9-.19-9.74-2.76-13.23-2.4-3.13-6.47-4.92-11.2-4.92a14.94,14.94,0,0,0-12,5.51c-2.63,3.5-3.7,8-3.7,15.69v54H145.54V149.66c0-5.91-.19-9.74-2.76-13.23-2.39-3.13-6.47-4.92-11.18-4.92a14.92,14.92,0,0,0-12,5.51c-2.63,3.5-3.7,8-3.7,15.69v54H89.41V132.08H78.33V113h27.11l4.34,11.21.31-.39c6.13-8,16.61-12.54,28.76-12.54,12.79,0,22.11,4,27.71,11.91l.21.3.23-.28c3.78-4.45,12.43-11.93,28-11.93,12.59,0,22.45,4.22,27.76,11.89,3.81,5.42,5.44,12.2,5.44,22.66v39c0,4.55,2.05,5.16,4.05,5.16a14.5,14.5,0,0,0,6.91-2.36l1-.73-.84,16L239,203A31.63,31.63,0,0,1,221.93,207.91Zm420.47,0c-10.13,0-16.36-3.88-22.25-13.83l-17-28.56H595v41.25H568.52V94.09H557.45V75H595v70.65h9.23L623.17,113h26.51l-24.38,41.8,18.15,30.07c2.31,3.84,4,5.07,7.16,5.07a12.74,12.74,0,0,0,7.11-2.37l1-.7-.84,16.52-.21.16C654.15,206.23,648.31,207.88,642.4,207.88Zm-119.69-1.14V149.66c0-5.79-.49-9.82-3-13.23-2.46-3.22-6.46-4.92-11.57-4.92-5.31,0-9.64,2-12.54,5.7-3.07,4-3.7,9.27-3.7,15.88v53.65H465.43V132.08H454.35V113h27.11l4.37,11.26.3-.37c6.65-8.13,17-12.61,29.13-12.61,11.08,0,20,3.16,25.8,9.15,5.64,6,8.16,13.79,8.16,25.21v61.09Zm-269.18,0V104.59H241.88V84.75h55.17c17.31,0,27.21,2.53,34.17,8.73,6.12,5.51,9.35,13.19,9.35,22.19,0,11-5.16,20.1-14.14,24.92l-.61.32.67.19c14,4.15,21.33,14.43,21.33,29.75,0,14.69-5.65,24.65-17.3,30.48-7.3,3.74-17.21,5.41-32.13,5.41Zm27.66-20h14.72c16.56,0,22.72-4.66,22.72-17.2,0-5.86-1.43-10-4.38-12.55-3.77-3.2-8.85-4.45-18.16-4.45h-14.9Zm0-51h12c8.06,0,12.6-1.18,15.65-4,2.65-2.47,3.83-6.18,3.83-12,0-3.43-.73-8.16-4.2-11.22-2.92-2.75-7.58-3.87-16.05-3.87H281.19Z"/></symbol></defs><title>203</title><use width="737.01" height="283.46" transform="translate(0 0) scale(0.15)" xlink:href="#logo_mBank_MASS"/></svg>