<svg id="Warstwa_1" data-name="Warstwa 1" xmlns="http://www.w3.org/2000/svg" viewBox="0 0 175.75 40.79"><defs><style>.cls-1{fill:#ee255f;}.cls-1,.cls-2{fill-rule:evenodd;}.cls-2,.cls-3{fill:#fff;}</style></defs><title>22</title><polygon class="cls-1" points="0 28.09 0 40.79 175.75 40.79 175.75 28.09 0 28.09 0 28.09"/><polygon class="cls-1" points="175.75 27.29 175.75 0.06 0 0.06 0 27.29 175.75 27.29 175.75 27.29"/><path class="cls-2" d="M126.58,37.47a2.25,2.25,0,0,0,1.16.3,2.39,2.39,0,0,0,2.54-2.59,2.13,2.13,0,0,0-2-2.41,3.66,3.66,0,0,0-1.24.28l.72-1.29a5.24,5.24,0,0,1,.76-.07,3.08,3.08,0,0,1,3.19,3.36c0,2.25-1.57,3.75-4.18,3.75a13.49,13.49,0,0,1-2.24-.24V28.67h1.32v8.8Z" transform="translate(-8.13 -0.61)"/><path class="cls-2" d="M57.73,7.64A1.79,1.79,0,0,0,56,5.8a1.82,1.82,0,0,0-1.87,1.75,1.89,1.89,0,0,0,1.87,2,1.82,1.82,0,0,0,1.72-1.87Z" transform="translate(-8.13 -0.61)"/><path class="cls-2" d="M54.79,11.29s0,1.9,0,3.27v7.09c0,1.37,0,3.3,0,3.3h2.63V11.29H54.79Z" transform="translate(-8.13 -0.61)"/><path class="cls-2" d="M61.63,5.4s0,1.93,0,3.3V25h2.74s0-1.94,0-3.3V5.4H61.63Z" transform="translate(-8.13 -0.61)"/><path class="cls-2" d="M68.37,5.37s0,1.94,0,3.3v13c0,1.37,0,3.3,0,3.3h2.73s0-1.93,0-3.3V5.37H68.37Z" transform="translate(-8.13 -0.61)"/><path class="cls-2" d="M39,19.89l-5.55-13c-1.73-4-4.16-5.64-6.09-6.1A13.27,13.27,0,0,0,24,.67a6.36,6.36,0,0,1,2.91.88c1.45,1,2.35,3.16,2,6.15l-1.76,13c-.24,1.59-.71,4.22-.71,4.22h2.53s.16-2,.39-3.81L31,8.43,36.6,21.75a7.13,7.13,0,0,0,2.6,3.57L45.81,8.4l1.68,14.24c.1,1,.17,2.3.17,2.3h3.28s-.29-1.71-.46-3.1L48.53,7.34c-.06-.68-.14-1.83-.14-1.83H44.33v0a5.1,5.1,0,0,1-.44,1.83L39,19.89Z" transform="translate(-8.13 -0.61)"/><path class="cls-2" d="M88.25,17.52a6.37,6.37,0,0,0-6.68-6.75c-4.43,0-7.43,3-7.43,7.13s3.48,7.31,8.53,7.31a10.79,10.79,0,0,0,4.1-.74l1.48-2.79h-.09a7.82,7.82,0,0,1-4.87,1.57,5.55,5.55,0,0,1-5.94-5.73ZM77.47,15.79a3.69,3.69,0,0,1,3.83-3.06c2.14,0,3.51,1,3.83,3.06Z" transform="translate(-8.13 -0.61)"/><path class="cls-2" d="M125.26,7.66a1.79,1.79,0,1,0-3.58-.09,1.88,1.88,0,0,0,1.86,2,1.82,1.82,0,0,0,1.72-1.87Z" transform="translate(-8.13 -0.61)"/><path class="cls-2" d="M122.32,11.31s0,1.9,0,3.27v7.09c0,1.37,0,3.29,0,3.29h2.63V11.31h-2.62Z" transform="translate(-8.13 -0.61)"/><path class="cls-2" d="M90.75,11.28s0,1.94,0,3.3V25H93.5s0-1.91,0-3.27V16.43c0-1.76.45-3.57,3.15-3.57s3.6,1.63,3.6,4.81v4c0,1.33,0,3.27,0,3.27H103s0-1.91,0-3.27V17.38c0-1.4.09-3.24-.74-4.43a5.53,5.53,0,0,0-4.52-2,4.83,4.83,0,0,0-4.19,2.29V11.27H90.75Z" transform="translate(-8.13 -0.61)"/><path class="cls-2" d="M138,11.24v7.91c0,2.29-1.42,3.89-3.38,3.89-2.59,0-3.36-1.69-3.36-4.43V11.25h-2.73s0,1.94,0,3.3v4.58c0,4.19,1.67,6.18,5.17,6.18A4.47,4.47,0,0,0,138,23v1.93h2.71V11.25H138Z" transform="translate(-8.13 -0.61)"/><path class="cls-2" d="M106.18,11.27s0,1.93,0,3.3v7.07c0,1.37,0,3.3,0,3.3h2.72s0-1.9,0-3.27V16.41c0-1.75.44-3.56,3.15-3.56s3.59,1.63,3.59,4.81v7.28h2.73s0-1.9,0-3.27V17.36c0-1.39.09-3.24-.75-4.42a5.52,5.52,0,0,0-4.51-2.06,4.86,4.86,0,0,0-4.19,2.29V11.26h-2.73Z" transform="translate(-8.13 -0.61)"/><path class="cls-2" d="M144.5,11.28s0,1.9,0,3.27v7.1c0,1.37,0,3.3,0,3.3h2.71V17.1c0-2.85,1.1-4.24,3.36-4.24,1.84,0,3.39,1.57,3.39,4.69V25h2.7V17.34c0-2.79.75-4.48,3.42-4.48,2.38,0,3.33,1.93,3.33,5v3.83c0,1.37,0,3.3,0,3.3h2.74s0-2,0-3.3V17.08c0-3.78-1.1-6.19-5.32-6.19a5.46,5.46,0,0,0-4.75,2.59,5,5,0,0,0-4.64-2.59,4.48,4.48,0,0,0-4.19,2.35v-2H144.5Z" transform="translate(-8.13 -0.61)"/><path class="cls-2" d="M141.44,37.77c-1.27-.14-1.3-.6-1.3-1.8v-2.3c0-1.85-1.27-2.32-2.92-2.32l-1,.09-1,1.53a4.77,4.77,0,0,1,2.08-.61c.57,0,1.47.24,1.47,1,0,1.67-4.57.36-4.57,3.2a2.37,2.37,0,0,0,2.61,2.25,4.34,4.34,0,0,0,.8-.08l.9-1.14a4.27,4.27,0,0,1-1.1.21c-.81,0-1.67-.31-1.67-1.25s.83-1.11,1.56-1.27a6.85,6.85,0,0,0,1.47-.48v2.42c0,1.22,1,1.53,2,1.59l.67-1Z" transform="translate(-8.13 -0.61)"/><path class="cls-2" d="M143.93,31.55v.05c.69.39.59,1,.59,1.69V37c0,.72.1,1.3-.59,1.69v.05h2.62v-.05c-.69-.39-.6-1-.6-1.68V34.27c0-.93.24-1.89,1.67-1.89s1.9.87,1.9,2.55v2.12c0,.71.09,1.29-.6,1.68v.05h2.63v-.05c-.69-.39-.6-1-.6-1.68V34.77a4.23,4.23,0,0,0-.39-2.34,2.93,2.93,0,0,0-2.39-1.08A2.56,2.56,0,0,0,146,32.56V31.35h0a2.18,2.18,0,0,1-1.06.2Z" transform="translate(-8.13 -0.61)"/><path class="cls-3" d="M155.66,35.58v.86a7.8,7.8,0,0,0,.11,1.92c.07.14.3.22.68.22h.41V39l-.37,0-1.28,0-1.81,0v-.39h.4c.35,0,.55-.07.62-.2a9.81,9.81,0,0,0,.09-1.93V32.4a14.71,14.71,0,0,0-.1-2.52c0-.11-.22-.16-.53-.16h-.57v-.39a7.33,7.33,0,0,0,1.63-.28l.68-.22c.07,0,.11.05.11.14l0,.68c0,.17,0,1.11,0,2.83V35.2l.08,0c.41-.3.76-.58,1-.82s.49-.44,1-1l1-.91h1.37V33h-.25a1.26,1.26,0,0,0-.61.22A24.36,24.36,0,0,0,156.86,35c.85.88,1.37,1.41,1.56,1.58.9.84,1.45,1.33,1.63,1.47a.94.94,0,0,0,.29.19,1.21,1.21,0,0,0,.35.08v.3a8.14,8.14,0,0,1-1.29.44c-.27-.22-.9-.82-1.89-1.82-.73-.72-1.32-1.29-1.77-1.68Z" transform="translate(-8.13 -0.61)"/></svg>