<svg id="Warstwa_1" data-name="Warstwa 1" xmlns="http://www.w3.org/2000/svg" viewBox="0 0 37.29 37.63"><defs><style>.cls-1{fill:#4e2623;}</style></defs><title>222 Nest Bank PBL</title><path class="cls-1" d="M44.85,30.85l.64-.44,1.12,1.19h.83l-1.5-1.51,1.36-.91h-.86l-1.59,1.11V29.14h-.6V31.6h.6Zm-21-17a1.64,1.64,0,0,0,2-.84A17.39,17.39,0,0,1,39.76,2.88c.49,0,.84-.15.84-.53s-.36-.52-.75-.52A18.82,18.82,0,0,0,23.37,11.91,1.5,1.5,0,0,0,23.87,13.8Zm28.8,12.31c5.13,0,5.95-5.14,5.95-7.45,0-3.92-2.22-7.65-3.78-9.62a14.5,14.5,0,0,0-11.27-5.7c-2.08,0-3.72.27-4.76,1.09-1.25,1,.13,2.75,1.54,2a7.89,7.89,0,0,1,4.29-.92c4,0,7.06,2.25,9.16,4.3a13.29,13.29,0,0,1,3.84,8.61,8.31,8.31,0,0,1-1.1,4.24,3.79,3.79,0,0,1-3.9,1.95,1.84,1.84,0,0,1-1.38-2.18c.43-1.48.92-3.15,1.15-3.88h1.7a.7.7,0,0,0,.69-.5.72.72,0,0,0-.11-.62.73.73,0,0,0-.57-.29H52.84c.35-1.16.92-3.11,1-3.43.31-.92-.42-1.07-1-.87a4.34,4.34,0,0,1-3.46.12,4,4,0,0,0-2.69,0,3.11,3.11,0,0,0-1.9,2.8,2.57,2.57,0,0,0,.31,1.3,3,3,0,0,0-.43.12A2.36,2.36,0,0,0,43.15,20a2.49,2.49,0,0,0,.56,1.08L45,22.55l.31.35a1.48,1.48,0,0,1,.42,1,1,1,0,0,1-.28.75.71.71,0,0,1-.48.19c-1.4,0-1.18-2.23-2.45-2.38a1.24,1.24,0,0,0-1,.31,6,6,0,0,1-3.59,1.64.7.7,0,0,1-.67-.62c2.91-1.53,4.78-3.6,4.78-4.9A1.73,1.73,0,0,0,40.5,17h-.39c-3.07,0-5.43,4.1-5.29,6.6-.33.2-1.3.72-1.58.42a.47.47,0,0,1,0-.43,23.63,23.63,0,0,0,1.24-5,1.67,1.67,0,0,0-1.74-1.58h-.09a3.94,3.94,0,0,0-2.75,1.3,3.8,3.8,0,0,0-3.19-2.07c-3.44-.11-5.38,2.49-5.38,5.88,0,8,7.59,17.4,18.65,17.4a18.91,18.91,0,0,0,15.49-8.11c.33-.51.79-1.83-.11-2.41s-2.15.28-2.44.79a14.93,14.93,0,0,1-13,7.74c-8.09,0-17.4-7-17.4-15.44,0-3.57,2.17-4.58,3.67-4.58a1.45,1.45,0,0,1,1.6,1.27,1.32,1.32,0,0,1,0,.56c-.26,1.33-.79,3.17-1.31,5a1.22,1.22,0,0,0,.67,1.6,1.3,1.3,0,0,0,.34.08h0a1.11,1.11,0,0,0,1.1-.78c.67-2.39.86-3,1.12-4.13a11.68,11.68,0,0,0,.26-1.76c1.17-1,2.09-.65,2,.08A43.87,43.87,0,0,1,30.79,24a1.51,1.51,0,0,0,1.06,1.87,1.36,1.36,0,0,0,.36.05c1,0,1.75-.61,3-1.24a2.12,2.12,0,0,0,1.94,1.24,6.09,6.09,0,0,0,4.11-1.74,3.91,3.91,0,0,0,3.1,1.74c1.83,0,3.45-.85,3.67-2.61s-1.32-2.83-2.29-3.95c-.17-.19-.49-.65-.21-1.05a.56.56,0,0,1,.8-.07h0l.11.09a2,2,0,0,0,1.37.67c.7,0,1.17-.36,1.22-.91A1,1,0,0,0,48.05,17h-.16a5.91,5.91,0,0,0-1,0h-.11a.54.54,0,0,1-.07-.13,1.67,1.67,0,0,1,.49-1.93,3.11,3.11,0,0,1,2.37-.47l1.62.1c0,.17-1.95,6.42-2.09,7A3.66,3.66,0,0,0,51.64,26,3.59,3.59,0,0,0,52.67,26.11Zm-13-7.78c.14,0,.19.06.2.19.19,1.08-1.31,2.8-2.59,3.66C37.37,21.32,38.27,18.6,39.64,18.33Zm2.83,12.56h0c-.26-.27-.52-.55-.79-.81s-.55-.59-.83-.87a0,0,0,0,0,0,0h-.68V31.6h.6V29.84h0l1.63,1.68a.11.11,0,0,0,.08,0h.65V29.14h-.6v1.74Zm-7.18-1.4a.92.92,0,0,0-.7-.35H32.45V31.6h2.34a.84.84,0,0,0,.5-.19.6.6,0,0,0,.24-.63.55.55,0,0,0-.29-.39l-.08-.05h0a.56.56,0,0,0,.19-.77A.21.21,0,0,0,35.29,29.49Zm-2.24.12H34.5a.39.39,0,0,1,.21,0,.23.23,0,0,1,.09.25.24.24,0,0,1-.22.19H33.05ZM34.7,31.1H33.05v-.54h1.57a.29.29,0,0,1,.29.17.26.26,0,0,1-.1.34A.2.2,0,0,1,34.7,31.1Zm3.41-2h-.67a0,0,0,0,0,0,0l-1.12,2.07-.18.33h.58l.24-.46h1.63l.26.47h.59v-.06l-1.27-2.35Zm-.91,1.45.54-1,.54,1Z" transform="translate(-21.33 -1.83)"/></svg>