<svg id="svg966" xmlns="http://www.w3.org/2000/svg" viewBox="0 0 283.47 174.52"><defs><style>.cls-1{fill:#a38054;fill-rule:evenodd;}</style></defs><title>158 Noble Bank</title><g id="g825"><path id="path827" class="cls-1" d="M162.57,7l1.88-1.14,1.13,1.88-1.87,1.14ZM65.8,91.49l.09,0,.08,0,.07,0,0-.06,0-.08,0-.08,0-.11,0-.11v-.66l.28,0,.3,4.25-.29,0h0v-.18l0-.17,0-.15,0-.14,0-.11,0-.1,0-.09,0-.07,0,0-.06,0-.09,0h-.89l-6.48.46h-.2l-.18,0-.15,0-.13,0-.12,0-.09,0-.08,0-.07,0,0,.07,0,.06,0,.09,0,.11v.11l0,.15v.5h0l-.28,0-.32-4.64,0-.39V89.8l0-.34,0-.32.08-.3.09-.27.12-.26.14-.22.15-.21.18-.18.19-.16.22-.13.23-.11.26-.08.27-.06.29,0h.5l.24,0,.22,0,.23.08.21.09.2.11.19.13.19.16.17.16.16.19.15.2.14.22.12.23L62,89l.09.27,0,.16,0,.17,0,.19,0,.22,0,.22,0,.26,0,.27,0,.21-.2,0,0-.16,0-.21-.06-.2-.07-.17-.08-.17L61.77,90l-.1-.12-.11-.12-.19-.18-.22-.14-.24-.12-.26-.1-.28-.07-.3,0h-.65l-.27,0-.24,0-.24,0-.21.08-.2.08-.18.11-.17.12-.15.13-.12.15-.12.16-.09.18-.07.19,0,.2,0,.22,0,.22v.24l.06.85L65,91.59h.2l.17,0h.16l.13,0Zm1.13-17.62h.12l-.17,1.94v.07l0,.07,0,.07,0,.07-.06.07-.08.07-.1.08-.11.07-.13.08-.17.09-.19.09-.23.11-.27.12-.3.13-.33.14-.36.15-2.11.87-.1,1.15,2.76.25h.88l.09,0,.07,0,0-.05,0-.07,0-.08,0-.1,0-.12,0-.13,0-.15,0-.17v-.18l.28,0-.37,4.25-.28,0v-.65l0-.11,0-.11,0-.09,0-.08,0,0-.06,0-.08,0-.1,0-.11,0-.13,0-.16,0-.17,0h-.2l-6.48-.57-.2,0h-.58l-.1,0-.08,0-.08,0-.06.06,0,.06,0,.08,0,.1,0,.12,0,.13,0,.15,0,.18v.17h0l-.28,0,.42-4.84,0-.33.06-.31.08-.29.09-.28.11-.25.13-.23.15-.2.17-.19.18-.16.2-.15.2-.11.22-.09L59,74.4l.25,0h.53l.22,0,.22.05.2,0,.2.08.19.09.18.11.17.12.17.14.16.16.14.16.13.18.12.19.11.2.1.22.09.23.09.34,2.41-1.28L65,75.2l.37-.22.35-.21.31-.2.27-.19.24-.19.2-.17Zm-5.08,5.42.09-1.05v-.4l-.09-.36-.17-.31-.25-.27-.33-.22-.41-.16-.48-.13-.56-.07h-.49l-.43,0-.37.1-.32.16-.26.22-.19.28-.13.34-.08.39-.08,1Zm6.48-12.41.06-.1,0-.13.06-.15,0-.16h0v-.16h0l.27.07-1,4.13-.28-.07h0v-.17l0-.17,0-.16v-.45l0-.08,0-.07-.06,0-.07,0-.09,0L67.27,69l-.13,0-.16,0-.16-.05-.19,0-6.31-1.58-.19,0-.17,0-.15,0-.14,0h-.31l-.07,0-.06,0-.06.06-.06.08,0,.08-.06.11-.06.13,0,.15-.06.16V68l0,0v.07h0L58.5,68l1-4.14.27.07h0v.17l0,.18,0,.15v.46l0,.07,0,.07.05.06.08,0,.09,0,.11,0,.13.06.14,0,.18,0,.19,0L67.07,67l.2,0,.16,0,.16,0,.13,0H68l.08,0,.06,0,.06-.06,0-.08Zm1.9-10.2-4.77-4.5-.07-.07-.07-.06-.07,0-.06,0-.07-.05-.06,0-.06,0-.06,0-.18-.06-.18,0-.17,0-.16.08-.14.11L64,52.1l-.12.19-.07.16-.26-.11,1.12-2.74.25.1,0,.16,0,.23v.21l0,.21.06.21.1.18.12.19.16.16,6.59,6.2-.42,1-7.89-.34h-.7l-.21,0-.2,0-.17,0-.16,0-.16.05-.14.06-.13.07-.12.08-.11.09-.1.1-.09.11-.09.11,0,.07-.26-.1L62.48,55l.25.1,0,.15,0,.2v.36l.06.16.09.12.13.11.15.08.06,0,.06,0h.12l.07,0h.2Zm4.36-11.93-1.77,3.06L74,49.17l0,0,0,0,0,0,0,0,0,0,0,0,0,0,0,0,.14.07.14,0h.14l.13,0,.13-.06.12-.09.11-.12.06-.08.24.14-1.28,2.23L74,51.4l0-.06,0-.13,0-.14,0-.13v-.13l0-.13v-.14l0-.12,0-.14L74,50.14,73.9,50l-.1-.17-.11-.17-.12-.18-.14-.19-.16-.2-.76-.92-4.45-5.5.4-.69,6.29,1.09.61.11.55.09.48.07.42.07.36,0,.3,0,.24,0H78l.14,0,.14,0,.12,0,.12-.07.12-.09.1-.1.1-.12v0l.24.15-1.87,3.25L77,46.23v0l0-.11,0-.08,0-.09v-.34l0-.06,0-.06,0,0,0-.05,0,0-.07,0-.07-.05,0,0,0,0,0,0,0,0-.07,0h-.06l-.07,0h-.07ZM72.51,47.4l1.59-2.75-4.58-.87ZM83.13,36.16l.12.08.12.08.1.06.09,0,.09,0h.14l.08,0,.08,0,.09-.06.09-.08.11-.09.11-.11.12-.12h0l0,0v0l0,0,0,0,0,0h0l.22.18-2.68,3.31-.22-.18,0,0v0l0,0v0l0,0v0l.09-.14.09-.13.07-.12,0-.11,0-.1,0-.08,0-.09,0-.08,0-.07L82.32,38l-.06-.08-.07-.09-.1-.09L82,37.58l-.13-.12-.15-.12-6-4.85-.79,1-.1.13-.09.13-.07.13-.07.12,0,.13,0,.12,0,.13v.39l0,.15,0,.17,0,.17,0,.18.07.2.07.2.1.27-.14.18-1.32-1.52,5.19-6.41,1.75,1-.14.18-.28,0-.21,0-.21,0h-.68l-.14,0-.13,0-.12,0-.12.05-.11.06-.12.08-.11.09-.11.1-.1.1-.11.13-.8,1,6,4.84.15.13Zm5.54-14.91-.18-.1-.16-.1L88.16,21,88,20.91l-.15,0-.14,0h-.27l-.14,0-.13,0-.13.05-.13.07-.12.08-.14.09-1.49,1.26,2.6,3.1,1-.83.23-.22.17-.23.11-.24,0-.24,0-.26-.07-.25L89.11,23l-.15-.2.19-.16,2,2.39L91,25.2l-.08-.08L90.75,25l-.13-.1-.12-.09-.13-.07-.13-.06-.11,0-.13,0h-.24l-.12,0-.13,0-.12.06-.13.07-.13.09L89,25l-1,.83,2.1,2.5.11.12.1.1.11.09.12.08.1.05.11,0,.11,0h.23l.12,0,.13-.05.13-.06.14-.08.14-.1.15-.11.16-.13.23-.19.21-.2.18-.19.15-.18.14-.17.11-.16.09-.17.06-.16.05-.17,0-.18v-.42l0-.23,0-.26,0-.26L93.12,25l-.05-.22.18-.15,1.22,2.07L88.8,31.5l-.18-.22h0l0,0,0,0,0,0,0,0h0l0,0,.12-.12.1-.11.09-.11.07-.1.07-.09,0-.08,0-.07v-.16l0-.08,0-.09L89.13,30l-.08-.11L89,29.8l-.11-.14-.12-.15-4.18-5-.13-.15-.12-.13-.11-.11L84.1,24,84,24l-.09-.06-.07,0-.08,0h-.14l-.1,0-.1,0-.11.06-.11.07-.14.08-.14.1h0l0,0h0v0l0,0,0,0h0l-.17-.22,5.21-4.39,1.35,1.61-.18.15-.14-.1Zm21-7.95.18.24.16.28.13.29.1.28.06.28,0,.28v.27l0,.27-.07.27-.12.27-.13.26-.18.24-.2.25-.24.23-.27.23-.3.22-.33.2-.37.2L104,20l-.13-.25h0l0,0,0,0h0l0,0h0l.15-.09.13-.09.11-.08.09-.08.08-.07.06-.07,0-.07,0-.07v-.17l0-.1,0-.11-.06-.13,0-.14-.08-.16-.09-.18-3-5.79-.09-.17-.08-.16-.09-.13-.07-.12-.07-.09-.07-.08-.06-.06-.06,0-.06,0h-.19l-.11,0-.12,0-.13,0-.14.05-.16.06h-.11l0,0h0l-.13-.24,3.9-2,.69-.31.62-.2.56-.1h.5l.43.1.37.21.32.32.27.42.15.36.08.37v.36l-.07.36-.15.37L107,12l-.72.88.89-.22.22-.05.21,0,.19,0h.33l.32,0,.28.07.27.11.24.13.22.18Zm-5.23.92,1.32,2.58.1.2.1.17.1.15.1.14.1.12.1.09.11.09.1,0,.1.05.12,0H107l.14,0,.13,0,.15,0,.15-.07.19-.11.17-.11.15-.13.13-.14.11-.15.1-.16.08-.18,0-.18,0-.19V16l0-.21,0-.21-.06-.22-.09-.22-.11-.22-.13-.24-.14-.21-.15-.19-.15-.17-.17-.15-.18-.12-.19-.1-.19-.08-.2-.06-.21,0h-.43l-.22,0-.23.06-.23.09-.23.1Zm-.17-.33.79-.4.36-.22.28-.26.2-.29.12-.32,0-.36,0-.39-.12-.41-.2-.45-.23-.38-.24-.3L105,9.88l-.3-.14-.33-.08-.35,0-.37.08-.39.17-.76.39ZM119.42,10l-3.36,1.09L116,13v.33l0,.05v0l.06.14.08.12.1.1.12.07.13,0h.31l.1,0,.09.27-2.44.8-.09-.28.06,0,.12-.06.12-.08.1-.08.1-.1.08-.11.07-.11.06-.12,0-.13,0-.15,0-.17,0-.18,0-.2,0-.22,0-.24v-.26l.06-1.18L116,4.13l.77-.25,3.94,5,.38.48.35.43.31.38.27.33.24.28.19.23.17.17.14.13.11.09.12.08.12.06.14,0,.13,0h.29l.15,0h0l.08.27L120.32,13l-.09-.27,0,0,.1,0,.08-.05.07,0,.07,0,.06,0,0,0,0-.05,0-.06,0,0,0-.06v-.21l0-.08,0-.08v0l0,0,0-.05,0-.05,0-.06,0-.06,0-.05,0-.06Zm-3.32.59,3-1L116.3,5.93ZM128.24,3,129,8.8l0,.26,0,.23,0,.21.06.18.05.15.06.12.07.11.08.08.1.06.12,0,.14,0,.16,0h.41l.24,0h.18l0,.28-3.36.41,0-.28.12,0,.18,0,.16-.05.14-.06.12-.06.1-.07.09-.09.06-.08,0-.1,0-.12,0-.14,0-.15V9.33l0-.22,0-.24-.76-6.17-.12-.15-.12-.12-.11-.12-.11-.1-.11-.09L127,2,126.87,2l-.11-.05-.11,0-.12,0-.13,0-.12,0h-.53l0-.27,3.08-.38,6.81,6.63L135,2.34l0-.21,0-.18,0-.18,0-.16,0-.14,0-.12,0-.11-.06-.09L134.55,1,134.43,1l-.15-.06-.19-.05-.2,0h-.51l-.21,0,0-.27,3.36-.41,0,.27-.12,0-.18,0-.15.06-.14.06-.12.07-.1.07-.08.08-.07.08-.05.1,0,.12,0,.14V2l0,.23.93,7.62-.93.11ZM145.3,4.78l.34-.17.09-.06.09-.07.08-.08.08-.09L149.13.47,151,.6l0,.28h-.29l-.12,0-.11,0-.1,0-.1,0-.11,0-.09.05-.09,0-.1.07-.09.06-.1.09-.1.08-.1.1-.09.09-2.67,2.85.69,1,.26.38.26.38.25.35.24.35.23.34.24.32.23.31.21.3.22.28.21.28L150,9l.19.25.19.24.19.22.17.22.15.17v.12l-1.79-.12H149l-.08,0-.06,0-.08,0-.06,0-.07,0-.06,0-.05,0-.07-.06-.06-.09-.08-.1-.08-.12-.1-.12-.1-.15-.1-.17-.12-.19Zm-.13-.22h0l-.26,3.71,0,.2v.58l0,.11,0,.08,0,.07.05,0,.06.05.09,0,.1,0,.12,0,.13,0,.15,0,.17,0H146l0,.28-4.25-.3,0-.28h.51l.14,0,.12,0,.1,0,.09,0,.08,0,0,0,0-.07L143,9l0-.1,0-.12,0-.13,0-.16,0-.17,0-.2.45-6.48V.87l0-.1V.69l0-.06-.05-.06-.08-.06-.08,0-.11,0-.11,0-.14,0-.15,0-.17,0h-.18l0-.28,4.25.3,0,.28h-.5l-.13,0-.11,0h-.11l-.09,0-.07,0-.06.06,0,.05,0,.07,0,.08,0,.1,0,.11,0,.13v.3l0,.18ZM174,16.4h0l.16.07.15.05.12,0,.12,0,.11,0h.17l.08,0,.06-.05.06-.06.08-.07.06-.1.07-.12.09-.13.08-.15.09-.18L178.48,10l.09-.18.08-.16.06-.14,0-.13,0-.11,0-.1V9l0-.07,0-.07-.07-.08-.08-.07-.09-.08-.11-.08-.13-.09-.14-.09h0l0,0h0l0,0h0l.13-.24,3.79,1.93-.12.24h0l0,0h-.11l-.15-.07L181.3,10l-.13,0-.12,0-.1,0h-.19l-.07,0-.06,0-.06.06-.07.07-.06.1-.08.12-.08.13-.08.16-.1.17-3,5.88-.06.13-.05.13,0,.13v.35l0,.11,0,.09.06.1.08.1.1.09.11.1.13.09.15.1.17.09.19.1.28.13.25.12.25.1.23.07.22.06.2,0h.34l.17,0,.18-.07.2-.08.21-.11.23-.14.25-.16.26-.19.25-.19.2.11L180.33,20l-6.6-3.36.13-.26,0,0H174Zm18.46,9.27.19.14-1.36,1.12-.05,0,0,0-.05,0h-.29l-.14,0-.15,0-.16-.05-.17-.07-.18-.07-.18-.08-.19-.09-.2-.09-.2-.11-.19-.1-.18-.1-.17-.11-.16-.1-.16-.1-.14-.11-.14-.09-.47-.4-.41-.4-.37-.41-.32-.41-.26-.43-.2-.43-.16-.45-.1-.44,0-.23,0-.23v-.48l0-.24,0-.24.06-.25.06-.24.08-.25.09-.25.1-.24.11-.22.12-.23.14-.23.14-.22.16-.21.35-.41.38-.37.39-.32.41-.27.42-.22.45-.18.48-.13.49-.09.24,0h.5l.25,0,.27,0,.27.06.27.07.28.09.28.09.27.11.27.13.26.13.26.14.24.16.25.16.25.18.14.13.14.12.16.14.15.14.14.15.15.16.15.16.15.17.15.17.12.16.11.15.1.14.09.13.06.11,0,.11,0,.1v.05l0,.06v.09l0,.05v0l0,.05,0,0-1.05,1.36-.19-.15.18-.47.12-.5,0-.48-.06-.46-.14-.44L195,19l-.31-.39-.4-.36L193.9,18l-.34-.19-.35-.16-.35-.1-.35-.07h-.36l-.37,0-.37.07-.37.11-.36.16-.36.19-.35.24-.35.28-.34.33-.34.36-.33.4-.32.43-.28.43-.23.42-.2.41-.15.41-.1.4-.08.4,0,.39,0,.38.06.36.1.35.14.34.19.31L188,25l.27.28.31.27.21.16.22.13.22.12.21.09.22.07.23.06.23,0,.23,0h.23l.25,0,.25,0,.27-.06.28-.09.29-.09.29-.12Zm14,12.16.21-.17,2.81,3.47-.21.18-.09-.09-.13-.13-.12-.11-.11-.09-.1-.08-.09-.06-.08,0-.07,0h-.15l-.09,0-.09,0-.09,0-.1.06-.11.07-.11.09-.23.19-1.94,1.57-.36-.23-.4-.27-.37-.28L204,41.7l-.34-.3-.32-.31-.3-.33-.29-.33-.36-.48-.31-.48-.26-.48-.21-.49-.15-.48-.1-.48,0-.49v-.48l.06-.47.1-.46.16-.44.2-.44.26-.4.3-.39.36-.38.41-.36.46-.34.46-.28.47-.22.48-.17.49-.12.49-.05h.5l.51.05.51.1.5.16.48.21.47.26.45.32.44.36.43.42.41.47.21.28.2.29.19.28.16.29.15.3.13.3.11.29.1.3,0,.11,0,.1v.16l0,.07,0,.06,0,.05,0,0-1.34,1.07-.15-.18.13-.2.15-.24.13-.24.1-.24.08-.24,0-.23,0-.23v-.46l-.05-.23-.06-.23-.07-.23-.11-.23-.13-.22-.15-.24-.18-.23-.26-.29-.28-.25-.3-.22-.31-.18-.32-.14-.35-.09-.35-.06h-.38l-.38,0-.38.07-.39.1-.39.15-.38.18-.4.22-.39.27-.4.3-.39.34-.36.35-.31.35-.29.36-.24.37-.2.38-.16.38-.13.39-.08.39,0,.38v.37l0,.36.1.34.13.34L203,40l.23.32.14.16.14.14.15.12.14.11.14.08.16.06.15,0,.14,0h.16l.16,0,.16,0,.17-.06.17-.09.19-.11.19-.13.18-.15.67-.54.14-.12.13-.1.11-.11.1-.09.08-.08.06-.09,0-.07,0-.08V39l0-.09,0-.08,0-.09-.05-.09-.06-.11-.06-.1-.27-.38ZM211,53.73l0-.06,0-.07v-.27l0-.1,0-.12.05-.11.07-.14.09-.16.11-.2.14-.21.16-.25.17-.27.2-.3.22-.32,1.31-1.88-.55-1-2.45,1.3-.17.09-.15.09-.14.09-.12.07-.09.07-.07.07-.06.07,0,.06,0,.07v.18l0,.1,0,.12,0,.13,0,.15.07.15v.14l0,0-.25.13-2-3.76.25-.13h0l0,0,0,0,0,0v0l0,0v0l.09.15.09.13.09.1.08.1.07.08.08,0,.06.05.08,0h.16l.1,0,.11,0,.12,0,.15-.07.16-.07.17-.09,5.74-3.06.18-.09.15-.09.13-.08.11-.07.1-.08.07-.06.07-.07,0-.06,0-.07v-.09l0-.09,0-.11,0-.12-.05-.13,0-.15-.07-.16h0v-.08l0,0v0l.25-.13,2.28,4.29.15.3.12.29.09.29.07.27,0,.28,0,.26v.26l0,.24-.07.24-.08.22-.11.21-.14.2-.16.18-.18.16-.21.15-.24.14-.2.1-.21.08-.2.06-.21.06-.21,0h-.42l-.22,0-.22-.06-.21,0-.21-.08-.2-.1-.2-.11-.2-.13-.19-.14-.27-.23-1.32,2.38-.23.41-.19.39-.18.36-.15.34-.12.3-.1.29-.08.26,0,.2-.11,0Zm2.32-5.65.5.93.21.34.27.25.31.17.36.09h.39l.44-.09.47-.15.51-.25.42-.25.34-.27.26-.29.18-.3.09-.33,0-.34-.08-.35-.16-.37-.49-.93Zm10.74,13,.11.48.07.47,0,.47,0,.46-.07.45-.12.45-.17.43-.22.44-.25.41-.28.38-.31.33-.34.31-.38.26-.4.23-.44.19-.47.16-.3.08-.3.06-.31,0-.3,0H219l-.31,0-.29,0-.29-.07-.29-.07-.28-.09-.27-.12L217,66.6l-.25-.15-.26-.16-.24-.18-.34-.28-.3-.3-.29-.33-.25-.34-.22-.36-.2-.38-.16-.4-.14-.43-.1-.4-.06-.41,0-.4v-.4l0-.4.08-.4.12-.39.15-.39.24-.5.28-.44.33-.4.38-.36.42-.31.48-.28.51-.23.56-.19.51-.13.51-.06.49,0,.49,0,.48.08.47.14.47.18.46.23.44.29.4.31.36.35.33.37.28.42.25.45.2.48Zm-.46-.27-.11-.3-.14-.28-.16-.26L223,59.7l-.22-.2-.25-.17-.28-.15-.3-.12-.33-.09-.34-.06-.37,0h-.37l-.4,0-.41.06-.43.09-.44.11-.53.16-.49.19-.47.21-.42.21-.4.25-.36.26-.33.28-.3.3-.26.31-.21.32L215,62l-.12.33-.07.33,0,.34,0,.34.07.34L215,64l.13.27.17.25.21.21.23.2.26.16.3.14.33.11.35.08.37.05.39,0h.4l.43,0,.44-.06.47-.1.49-.13.49-.15.46-.18.43-.19.39-.21.37-.23.33-.25.31-.27.27-.29.23-.31.19-.3.15-.32.11-.32.06-.32v-.33l0-.34Zm-3.91,14.46-.29.11-.27.12-.23.14-.21.15-.19.17-.15.2-.13.2-.09.22-.08.25,0,.25,0,.28v.3l0,.3.13.61.23.52.32.42.41.33.5.23.59.12.67,0,.76-.07,3.81-.53.24,0,.22-.05.18,0,.18,0,.14-.05.13-.06.11-.06.08-.08.07-.07,0-.11.05-.11,0-.14,0-.15v-.48l.28,0,.43,3.08-.28,0,0-.12,0-.18-.06-.16-.06-.14-.07-.12-.08-.1-.07-.08-.09-.07-.1,0-.12,0-.13,0H226l-.23,0-.24,0-3.95.56-.45,0-.43,0-.41,0-.38-.06-.36-.09-.34-.13-.3-.16-.3-.19-.27-.23-.23-.26-.22-.29-.18-.32-.16-.36-.13-.38-.11-.42-.08-.45,0-.47v-.44l0-.42.07-.4.11-.37.14-.35.19-.31.22-.3.21-.22.25-.2.28-.17.32-.16.34-.14.39-.12.42-.09.45-.08,4.29-.6.19,0,.18,0,.15,0,.13,0,.12,0,.09,0,.08,0,.06,0,0-.05,0-.09,0-.09,0-.1v-.77l.27,0,.59,4.22-.28,0h0v-.1l0,0v0l0-.16,0-.14,0-.13,0-.12,0-.09,0-.08-.05-.07-.06,0-.07,0-.07,0h-.58l-.16,0-.18,0-4.39.61-.38.06-.34.08Zm-1.4,14.4,0,.06-.05.06,0,.08,0,.1,0,.12,0,.14,0,.15,0,.17h0v.16h0l-.29,0,.29-4.25.29,0v.51l0,.14,0,.12,0,.1,0,.09,0,.08.06,0,.06,0,.07,0,.1,0,.11,0,.14,0,.16,0h.17l.2,0,6.49.45h.88l.08,0,.07,0,.06-.06,0-.06,0-.08,0-.1,0-.12,0-.13,0-.16,0-.17h0v-.17l.28,0-.33,4.64,0,.38-.06.36-.07.34-.09.31-.12.28-.13.26-.16.23-.16.21-.18.18-.21.16-.21.12-.23.11-.25.07-.26,0h-.58l-.25,0-.24,0-.23-.07-.21-.08-.21-.11-.2-.12L223,94.2l-.18-.15-.16-.18-.15-.19-.13-.2-.12-.22-.11-.24-.09-.25L222,92.5l-.06-.28,0-.16,0-.18V90.71l0-.22.19,0,0,.16v.21l0,.21.05.19,0,.17.07.16.07.13.09.13.17.2.2.18.22.15.25.13.26.11.29.08.32.06.33,0h.51l.24,0,.22,0,.21-.06.2-.07.18-.1.16-.11.15-.13.13-.15.13-.16.09-.18.08-.19.06-.21,0-.22,0-.24.07-.84-7.69-.54h-.79l-.09,0-.09,0Z" transform="translate(0 0)"/></g><g id="g837"><path id="path839" class="cls-1" d="M136.21,101.57c-1.28-4.06-10-7.17-13.93-8a23.31,23.31,0,0,0-4-.28,37.3,37.3,0,0,0-9.27,1c-1.31.3-6,1.62-6.44.74-2.66-1.91-1.3,3.54-3.32,2.46-1.81-1-2.63,1.15-4.34-.67-2-.9-3.1,2.29-3.64.43-.62-2.34-1.07,1.62-2.81.58-.88-.26-4.33-.31-2.12-.86-1-1.72-.18-.06.41-.93.1-1.89-1.68-.31-1.68-.36.09-1.44-1.93-.2-.87.52-3.62,1.55-3.92-5-1.32-4.15,1.54.48-.84-2.58,2-2,.75-.22.09-.81.63-.9,1.74,1.21.42-2.68,2.06-.57,2.2,1.88.5-4.2-1-2-.17-.29.8-.57.15-1.06-1.24-.37-3.87.82-1.3,1.16-.76,1.13-4.3-.84-3.91-1.82,1.95-2.88-.73-4.72,3.77-5.54,1.55-1.89-4.53-1.24-3-3.29,1.11-1.44-.65-1.86.45-4,.87-.53,4,1.89,3.23.25-1.19-2-.76-5.6,2.31-5.69,5.82,3.28,4.94-2.11,2.81-1-.88.29-1-1.1-1-1.52-.38-2.11,4.57-4.68.9-6.28-.78.94.57-2.16.67-2.9.13-2.3,4.52,1,3.21-.94-2.16-2.76,1.91-1.17,1.1-3.11-.56-1.39.9.09.68-1.18-.6-1.34.82-1.76,1.7-.88,1.82,1.72,3.77,2.65,2.71-.15-.84-2,2.42-1.07,3.54-2.19.47.6,1.28,2.9,2,1.2.3-1.36-.64-3.57.65-3.65,2.25-1.86.92.09,1.12-1.91,2,1.86-.38-5.31,2.54-5,.53-.06,1.74-2.65,2.08-1.19.13.16,5.38.49,2.63-1.1.4-1.29,1.54-2.57,1.1-3.71,3.28-1.59,3.16-2.25,6,.62,1.53,1.18-.43,2.06,1.71,2.66-.85.89,1.13.11,1.58.41,1.08.77-.67,3.3,1.1,1,1.46-1.89-4.38-3.84.24-5.27,1.12.34,2.29,4.62,3,1.39.57-.32.38-2.55.94-3.67A1.45,1.45,0,0,0,133,27.9c1.58.69.15,1.14,1,1.42,1-.23.71-1.4.89-1.77.89-.21,3.11,1.15,3.49,2.41-2.16.71.26,2.6.87.93,2.92,0-.39-2.54,2-2.61,1.92.4,1.89-1.56,3.45-.93.82.28,2.88-.59,4.2-.42,0,.7.59,1,.59,1.61-.79.35-1.32.79,0,1.64.45.16,4.94-1.57,3.52.7.6,1.66,2.46-.61,2.88,3.05,1.34-.63,2.81-3.73,3.48-1.58.57.1,1.31-1.7,1.62-.34.34,1.2,1.73-.51.94,1.05.21.48.8.41.35.77-1.19,1.27,5.27,4.15,4.28,1.65,1.8.46.48-1,1.83-.78-.89,1.07.62,2.17,1.28.76.58.3,2,1.75,2.33.57,0,0,1.16,5.09,2.9,3.43.11-.57-.49-1.77-1.16-1.6-.06-2.94,2.92.12,2,.37.4,1.63,3.19,2.31,1.7,3.56-1.18,1.15.66,2.43.5,1,2,.11,2.7,1.45,2.82,3.54,0,.51-3.28,2.74-.66,2.65,2-.49,1.25-1.1,2.17.78-.65.44.1,1.78-1.38.65-1.93-1.06-.82,2.61,0,1.84.58-1.07,2.49,0,2.19-1.51-1.26-3.51,6.17,1.16,6.38,1.28,0-.26.05-.53.06-.8,2.83.55,0,3.31,2.07,4.11,1.57.64-1.54,2.35-2,2-2.17-1.09-.58,2.92.41,1.18.68,0,.37.55.79.71a3.8,3.8,0,0,0-.21.41c1.62.92,1.91-1.32,1.77.56.06.48,1.88.45.55,1.27-2.38,1.27,3.18,1,.18,2.5-.73.55,1,2.46-.4,2.25-.94-.22-2.67-1.84-3,.09.86,1.65,1.43.37,2.32,1.17-3.65.33,1.59,1.93,3.28,1.08h0l.12,0a1.28,1.28,0,0,0,.16.74v0c0,.09,1.34.6,1.7,1.59-1.39,1.78.08.21.38,1.71-.47.17-1.13.44-.62,1l0,0a.86.86,0,0,0,.21.6c-.5.22-1-.22-1.1.67-1.31-1.26-3,1.55-1,.83,1.18-.43,2.3,2.81,3.36-.32,1.25,1.06-.53,3,.27,3.19,2.82-.07,1.72,3.33,2.83,3.39h0c.05,0,.09,0,.12.08a1.18,1.18,0,0,0-.54,1.59,8.72,8.72,0,0,1-3.76,2.11c1.11,1.09-2.06,2.12-2.65,3.13.5.72,4.09-.14,5.33.2a4.26,4.26,0,0,1,.11.42c-1.43.64,2.13,2.93,2.47,3.18-.33.53-.62,1-1,1.52-1.32-2.41-2.24,0-1.47.25,1.56.47.46,1.25,0,.84-.7-1.09-2.48-.54-1.22.63-1.16.79-1.13-1.56-1.18-1.61a5.35,5.35,0,0,0-3-.53c2.46,1.55-2.56,1.93-.79.12-.73.19-1.26.58-1.27,1.21l-.17,0,.06.06h0a3.16,3.16,0,0,0-1.09-.18c-1.06.86.46-3.9-2.4-2-3.33.83.87.71.33,1.18s.6,2-1,1.6-1.29.39-1-.92a.77.77,0,0,0-1.18-.31c.2-1.82-2.77.41-3.95.67l0-.08s-.82-.42-1.08-.29h0a2.34,2.34,0,0,0-.44.4c-.14-.08-.25-.26-.42-.34-.51-.26-.26-.71-.92-.71l0-.11a9.11,9.11,0,0,0-2,.29c-3.73.2-8.51.3-12.13-.6-5.22-.79-17.42,3.13-18.86,9-3.4,18.37,22.72,15,32.82,15.93,1.06.1,5,1.81,3.61,1.88-27.7.13-82.67,0-82.67,0s2.45-1.83,3.47-2c10.6-1.42,36.79,2.1,32.57-16.82m50.31-25.12c2.15-.83.35-2.33-.91-.73.22.46.44.52.91.73m-94,.23c1.36,0-1-2.89-1.82-1.37a2.11,2.11,0,0,0,1.82,1.37m102.83,1.17c1.94-.66,1.61-1.32-.36-2-.7.9-.49,1.34.36,2m-2.11-.09c2.42-1,.3-.77-.08-1.78-.77-2-2.15,2.53.08,1.78m-86.68,3.11c1-.91-1.26-2.81-1.49-1a2.64,2.64,0,0,0,1.49,1m5.12,2.91c3.13-.27-1.78-2.79-.35-.41Zm1.12,1.68c1-.15,1.48-1.28.13-1.47-1,.3-.76.9-.13,1.47m9.8,1.49c.67.83,2.84,1.84,2.84,0-1.35-.21-2.23.54-1.35-1.34-.67.26-1.76.44-1.49,1.35m-22.7,4.89c1-.23-.46-2.14-1.24-.85.21.57.69.72,1.24.85M94,94.2c.18-.46-1.6-1.1-.6.51a1.43,1.43,0,0,0,.6-.51m.84,1.43c1.43-.5-.24-2.13-.88-1a2.17,2.17,0,0,0,.88,1m-2.39,0c1.42,1.29,1.48-1.73.2-.63-.21.21-.31.33-.2.63m-3.48.5c1.31-.64-.78-2.32-.74-.63.06.47.32.54.74.63m1.18-19.57c-.85-.94-1.06-2.15-.65.06.24.67,1.43,1.07,2,1.74,2.27-1.22-.63-1.25-1.36-1.8m-2,1.63c-.13,1.16-1,1.6.89,1.38,2.64-.45-.34-.44-.14-1.93-.14-1.12,1.11-1.72-.79-.73-1.11.48-.89-1.29-1.62.29-.5,1.9,1.6.18,1.66,1m14.67-20c-2.4,1.64,1.06,2.67.74-.35-.25.11-.49.22-.74.35m5.84,2.23c2.27-.2-.88-2.12.19-2.21,2.37-.33,2-.76.76-2.26-2.21,2.21-5.43,3.11-1,4.47m-2.31-2.15.55-.45c-4.52-.55-1.31,2-2.68,2.3-2,.19.28,1.2.51,1.11,3-1.14-.48-1.31,1.62-3m-6.72,1.68c-1.27-1.17-2.07-.79-3.27.4,2.65-.31,2,.63,4.09,1.78a7.26,7.26,0,0,0-.82-2.18M96.07,65.7c1.81-.38-.44-.86-.53-1.74-.2-2.88-3.78,1.28-1.25.9.67-.3,1,1,1.78.84m20.86-.1c-1.36,1.17.32,1.13,1,1,1.48-.3-.52-1.17-1-1m-4.73,1.07c1.1.58,1.37-1.65-.72-1.53-.65.54.23,1.26.72,1.53m-1,1.34c-2.38.63,1.52,2.21.35.87.54-.45.33-1-.35-.87M117,69c1.1,1.16,1.41,1.23.73-.3,2.81.8.55-1.7-1.17-1.89,1.48,1.22-1,.55.44,2.19m-26.56-.31c-2.37-1.82-1.59,3.18.41.33ZM113,70.64c2.46-1-.45-1.67-.78-.56.17.35.44.42.78.56m2-1.94c-.08,2,2.2,2.08,3.63,2.08-1.12-1.09-2.36-2.09-3.54-3.1ZM110,80.33c.09-1,1-2.65-.31-.75-.66.93-1.28,2.16.12,2.28,1.35-.08.27-1.18.19-1.53m76.38-1.93c.76.67,1.56-2-.49-.87,0,.46.14.61.49.87m4.38,1c1.39.7,1.06-.23.76-1.28-.6.26-1.81.64-.76,1.28m8.2.83c.87.16,1.41-1.26-.46-.78.09.33.11.65.46.78m-6.66-.35c-.52.2-2,.75-.64,1.07.63-.09.56-.52.64-1.07m7,2.47c-.33-.53-.57,0-.44-.83-1.93,1.31.37,1.62.44.83m-19.57,5.5c2.49-1.55-.7-2.06-.37-.19.13.2.12.19.37.19m.38.44c-1.11.87-1.26.83,0,1.29.53.22,1.51-2.43,0-1.29m18.18,2.9c.81-.37.22-1.61-.6-.93,0,.41.33.64.6.93m-3.49-.28c.61.45,1.89-1.19.45-.7-.75.18-1.35,0-.45.7m-1.42,2.66c-.2-.72-.26-2.31-1.52-1.44-.25.62,1.21,2.58,1.52,1.44M144.84,28c-1.53,1.6,4,.67,1.27-.25a1.1,1.1,0,0,0-1.27.25m1.66,2.38c1.38,2.74,2.11-2.89,0-.8a.66.66,0,0,0,0,.8m-9.87,1.22c-.07-1.15-2.28-1.19-1,0,.66.57,1.11,1.36,1,0m8.44.69c1.79-.3,1.55-2.4-.94-1.27a1.72,1.72,0,0,0,.94,1.27m-28.39.83c.26.34,1.07.87,1.08.08-.16-.88-.61-.61-1.08-.08M140.63,37c-1.23.6-.47.77.45,1.32.12-.44.49-1.67-.45-1.32m-15.28,1.41c0-3.06-4.64,2-1.48.83a3.68,3.68,0,0,0,1.48-.83m42.27,1.52c2.6.64.19-2.6-.29-.16a1.35,1.35,0,0,0,.29.16m-24.79,2.28c1.42,2.61,2-2.49.21-1.94a2.61,2.61,0,0,0-.21,1.94m-18.17,2c1.64-.44-.75-1.85-1.42-2.1-1.1,1.81-.4,1.7,1.42,2.1m50.23-.41a4.75,4.75,0,0,0,.62.56c2.13-1.06-.86-1.76-.62-.56m-56,1c3.36.28-.39-3.49-.59,0Zm-6.37-.82c.33.26.84.85,1.27.82,4.52-.48-4.94-3.18-1.27-.82m65.89.2c-.69,1.56,1.18.89.87.16-.39-.49-.53-.82-.87-.16m-17.79,4.12c.57,0,.62-.67.4-1.08-.59-.44-2.45.48-.4,1.08m-49.83-1c3-.44-1-2.62-.28-.26a.77.77,0,0,0,.28.26M164,48.44c-1.6-.84-.59,2.42-.08.78.79,0,.59-.35.08-.78m-25.79-.64a1.53,1.53,0,0,0,.72.44c3.65,1.22-.83-3.19-.72-.44m17.53,2.43c1.06-.09.59-.9-.09-1.2-1.09-.27-.67,1,.09,1.2M164.66,52c2.58.21-1.91-3-1.21-1a2.6,2.6,0,0,0,1.21,1m15.49,1.17c-1.53-.19-4.83-.86-1,.5,1,.35,1.9.41,2.58-.6a3.68,3.68,0,0,1-1.58.1m-18.28,0c-.88,2.52,2.68,0,1.28-.79a3.53,3.53,0,0,0-1.28.79m15.93.62c-.69,1.3,2.67,1.31.94,0a.93.93,0,0,0-.94,0m-4.67,1.25c-.19.91.79.93,1.45,1,2.16.13,0-3.58-1.45-1m6.25,3.18c-1-.73-.6.57-.56,1.46.13,2.15,1.8-.51.56-1.46m-4.77,3.51c2.71,1.24,3.55-1.86.58-.5a2.3,2.3,0,0,0-.58.5m4.15.51c1-.07,3.13-.19,1.76-1.63-.7-.45-2.06.9-1.76,1.63M190.9,60.5c-2.52,1.14,2.53,3.3,1.28.17a5.34,5.34,0,0,0-1.28-.17m-8.57,1.93c.35.18.68.38,1,.58.33-3-2.51-1.37-1-.58m-2.24,2.69c.62-.09,1.2-.22,1.81-.25,1.29-2.82-3.16-.7-1.81.25m5.71,2.42c2.87,2.2.75-2.6-.94-1,.31.32.61.65.94,1M174,69c1.52.5,1.42-2-.61,0Zm-2.15.3c1,.74,1.4-1.79-.36-.47a1.84,1.84,0,0,0,.36.47m1.43.57c.53.67.81,1.27.78-.32-.33-.93-2.07-.38-.78.32m1.38-.17c-.63.57,1.34,1.8,1,.4-.21-.73-.15-.78-1-.4m-.16,2c1.67-.81-1.27-1.69-.26-.26a3.19,3.19,0,0,0,.26.26m19.14.59c1.54-.66-.84-2.53-1.21-.85a2.65,2.65,0,0,0,1.21.85m-19.49,1.17c.69-.34.76-.36,1-1.15-.92.21-1.69.07-1,1.15m-2.3,0c2.4-.42,2.37-4-.67-2.26a2.6,2.6,0,0,0,.67,2.26M148,85.11c1-1,.29-2.08-.76-.94.17.45.47.59.76.94m1.09.78c1.55-.62,1.82-1.09,1.88-2.63-1.48.25-3,.85-1.88,2.63m13.77,4.26c1.83-.58,4.8-2.64,1.68-3.75-1.51-.23-3.62,4.18-1.68,3.75m11.58-47.9c-.56-1.75-1.84-.79-1-.27s-1.1,0-.47,1.12c1.35,1.44,3.9-1.34,1.6-1.63,0,.22-.16.58-.16.78M136.23,84.07c.55.45,2-.74.37-1.36-.21.1-1.16-.12-1.3,0-1.11.94.88,2.67.93,1.36m-16.49.68c-1-.33-.48-4.82-1.82-2.23-.73,1.72,3.45,2.7,3.74,4.52,1.34-.5.14-1.82-.79-1.9a9.67,9.67,0,0,1-.18-2.71c-.66.55-1.38,1.71-1,2.32m17.41.19c1.13.56.39-2.21-.27-.48-.15.19-.92.4-1.31.73s-.39.65.58,1.15a3.42,3.42,0,0,1,.94.8c.71.77.74,0,.63-.88a3.8,3.8,0,0,0-.57-1.32M98.21,89c-1.57,2.15,5.42,1.27,1.05.22.47-2.07-1.38-.46-1.05-.22m5.63,1.59c1.79.69.55-.78,0-1.54-1.29-1.54-2.39.58-.36.56,0,.83-3.18,2.23,0,2.43,1.13-.08,1-.57.4-1.45M96.6,62.75c-.72-1,1.46-2.78-.78-1.72-2.25.74.82,2.33,1.82,3.16-.07-.09,1.55-1.52,0-1.21.29-1.29-.72-1.25-1.06-.23m18.22,3.63s.63.56,1.46-.2c1.83-2.27-4.42-.75-1.46.2m-6.46,15.48a3.64,3.64,0,0,0-1-.28c-4.7-.73-2.49,1,.7,1.23.58.15,3.47,2,2,0-.69-.5-1.75-1-1.38-2.09.72-2.13-2.21-.75-.38,1.13m90.17,2.53c.69-.34-1.57-1.47.14-.91-1.32-2.15-2.32-.69-1.13-.35,0,1.07-.17.1-.79-.29-1.93-1.1-.59,0-1,1.1-1.06,2.32,2.8.48,2.76.45M191,81.72c.86-.12-.1-.91.13-1.78-1.78.94-1.51,1.29-.13,1.78m.26,1.4c.16.44.06.57-.89.42,1,1-.31,1.37.9,2.23.36-1.42,3.1,2,4.08,1,.91-.39-1.22-.8-1.38-1.81.09-.59,1.46-5,.12-3.84-.63,1.29-.78-.87-1.6,1.49.31,2.4-.38,1.42-1.23.55m5.69,9.1c.55-.57.72-1.25-.25-1.28-2.2.5.39,2,1.34,2.58-.11-.86-.05-1.69-1.09-1.3M119.72,33.73c1-.64,1,0,1.5-1.06,1.61-1.61-1.25-.39-1.81-.45,1,1.88-.42.21-.56.21-1.52-1-.08,1.31-.56,1.37-1.3.39,1.08,1.62.71.37.27-.16,1.31.86.72-.44m23.51,1.46c-1.29-3.82-2.19-.23.38,1.32,1.41,1,2.29-3-.38-1.32m-21.88,4.92c-.49-.19,2.65,1.62,3.21,2,.88.52.43.36.67,1.16.67.56,1.07-1.88,0-1.78-.83.22-4.2-4.15-3.4-1.78-.22.15-.37.2-.49.44m-5,7.15c1,.71,2.9.63.88,1.19-1.38.39-1.69-.28-.88-1.19m.1,1.74c1.19.12,4.6,0,2-1.6a9.45,9.45,0,0,1,2.1-.32c-.69-.4-3-1.91-3.76-1.31-.87,2.86-3.85-.4-3,3.42,2.2-1.9,2,2.24,3.59,1.55a5.15,5.15,0,0,0-.9-1.74m44.37,1.18c.77-.06,2.31,1.48,2.59,0-.94-2.28-2.83-.53-3.38-1.57-1.17-2.36-2.62,1.41-.44,1,1.09-.26.75.87.19.63-2.34-1.22-2.31,1.67-.55.59.85-.33.83,1.62,1.76.3.33-.51-.08-.49-.17-.92M178,64.27a1.67,1.67,0,0,1-.12-1.39c-4-.43,3,4.56,1.08,2.06-.74-.9.51-1.8,1-2.68a25.28,25.28,0,0,0-2,2m5.45,2.84c.19.15.11-.73-.25-1.2-1.4-1.34-1.33,0-.11.93a12.52,12.52,0,0,0-1.67,1.25c1.21,0,1.58.26,2-1M165.57,84.88c1.76-1.41-.48-2.36,0,0-1.2-.49-.42,3.21.74.94a1.29,1.29,0,0,0-.69-.92M108,87.63c-1.66-.89-1.69,3,.83.43-.06,0,2.1-.68.56-1.71-.45,0-1.92.74-1.39,1.28M130.71,91c.84-1.13-1-.95-.26-.11-.52-.15-1.65,1.75-.74-.11.38-.93-3-1-1.28.4,1.4,1.2-1.34.24,0,1.38,1.65,1.17,1.73.56,2.05.08A5.56,5.56,0,0,1,133,90.79c.37-.17.75-.35,1.1-.53.16-.41-.44-.64-1.05-.83a4.57,4.57,0,0,1-.95-.35c.44,1.2,0,2.63-1.38,1.91m-5.13,1.14c2.42-.5-3.58-6.3-3.67-3.89a6.14,6.14,0,0,0,1.23,2.18,5.87,5.87,0,0,0,2.44,1.71m-13.86.2c1.5-.09,2.46-.78,3.94-1.08a9.66,9.66,0,0,0-6-2.87c-.9,2.18-.18,3.45,2.11,4m63.39-2.68c-.74-1.75-2.8-1.89-.62-2.78-1-.67-3.49-1.29-3.16.79,3.51,2.48-4.92-1.23-2.1,1.48,1.09.92-2.58.59-.59,2.49,3,1.61,3.57,1.32,5.63-.55,1.89-.07.81-.67.84-1.43m4.07,1.49c-.07-1.12-.78-.47-1.84-.54.68-1.28.84-1.45-.75-.71-.83.84.6.6-1,1.25-4,2.15,1.47,1.94,2.86,1.87-1.2-2.1.83.09.69-1.87m-44.56,3.69c1.66-.3,1.57-6.33-2-2.73-2,2.25.47,2.19,2,2.73M152,86.24c-.92-1.47-.61-.48-1.73-.37-.5.55,1.14,1.58-.36,1-1.13-.15-3.14,1.5-3.86,2.73-3.2,11.24,9.68,2.46,6-3.39m-36.28.8c.49-.4-2-4-2.11-1.07.34.7,2.53,1.33.8.94-1.3-.16-.45,1.19.51,1-3.71,1.46,9.85,5,4.91-.8-.59-.51-1.5-1.33-2.07-.71-1,1,.67-1.29-.8-1.24a2.79,2.79,0,0,0-1,1.72c1.22-.41.84.89-.28.12m-9.58,3.09c1.56.78,1.71-2.26-.76-.77,0,.09,1.35,2.06.49,1.12s-1.07,2.35.52,1.13c.07-.43.89.07.5.43-2.74,2.7,2.36,1.73,1.77.07-.59-1.39-1.4-1.08-2.52-2m53.71-4.72c.58-1.64-1.28-2.76-1.21-.8.69,1.47.28.63-.54.17-.88-.25,1.69-1.77-1.61-1.9.27,1.26.41,3,1.87,3-1,.71-3.48-1.17-3.72.6.11,1.06.7,1,1.55.74-.09,2.19-1.28,2.11-2.39,3.32-2.64,4.24,3.72,1.15,5.27.54.38-.29,4.74-5.28,2.1-4.52-1.43.92,1-.48,1.26-.85.85-2.44-2.16-.2-2.58-.3M127,91.85a4.52,4.52,0,0,1,.84-2.63c-.54-.92-2.72-1.86-1.88-.27a6,6,0,0,1,.78,2.81Z" transform="translate(0 0)"/></g><g id="g841"><path id="path843" d="M79.33,159.39V168c0,1.79.27,3,.83,3.6s1.67.9,3.33.9q6,0,6-6.23,0-6.83-7.41-6.83Zm0-1.72h2.94q5.72,0,5.71-6.15,0-5.47-6.09-5.47H79.33Zm7.13.39a16.08,16.08,0,0,1,5.21,1.41,6.57,6.57,0,0,1,3.55,6.14,7.39,7.39,0,0,1-3,6.31c-2,1.48-4.84,2.21-8.5,2.21H70.46v-1.41a8,8,0,0,0,3.27-.64c.38-.3.58-1.06.58-2.31V148.66q0-1.87-.6-2.34a7.16,7.16,0,0,0-3.25-.58v-1.42H82.58c3.71,0,6.41.51,8.06,1.53a5.38,5.38,0,0,1,2.5,5,6.07,6.07,0,0,1-1.55,4.33,12.27,12.27,0,0,1-5.13,2.9" transform="translate(0 0)"/></g><g id="g845"><path id="path847" d="M55.28,144a15.3,15.3,0,0,1,11,4.29,14,14,0,0,1,4.49,10.47,14.73,14.73,0,0,1-5,11.2,17.24,17.24,0,0,1-12.12,4.6,15.07,15.07,0,0,1-10.89-4.32,14.21,14.21,0,0,1-4.46-10.58,14.5,14.5,0,0,1,4.91-11.13A17.13,17.13,0,0,1,55.28,144m-1.07,1.83a8.46,8.46,0,0,0-7.07,3.31q-2.58,3.3-2.58,9a17.53,17.53,0,0,0,3,10.48,8.87,8.87,0,0,0,7.5,4.13,8,8,0,0,0,6.86-3.56c1.71-2.37,2.56-5.56,2.56-9.54q0-6.21-2.81-10a8.83,8.83,0,0,0-7.43-3.82" transform="translate(0 0)"/></g><g id="g849"><path id="path851" d="M188.58,164.25c0-5.76-4.14-9.08-12.54-9.95,5.94-1.2,8.89-3.87,8.89-8.18,0-5.78-5.53-8.72-14.36-8.72H155.85v1.25c4.53.11,5.23,1.2,5.23,5v23.88c0,3.74-.7,4.83-5.23,4.94V174l17.74,0c9.92,0,15-3.32,15-9.74m-9.49-17.57c0,5.67-4.16,7.4-11.68,7.4h-.66V140.74c0-1.7.12-2,3.22-2,5.4,0,9.12,2.61,9.12,8m3.11,17.6c0,5.38-3.27,8.09-8.5,8.09h-6.94v-4.47c0-.11,0-.21,0-.33v-12h2c8.4,0,13.43,2.11,13.43,8.75" transform="translate(0 0)"/></g><g id="g853"><path id="path855" d="M195.58,162.68h11.8l-6.06-15.88ZM208,164.56H195l-1.63,4.83a3.66,3.66,0,0,0-.23,1.11c0,1.16.81,1.87,2.4,2V174h-8.43v-.56c2.28-.74,4.14-4.38,4.71-5.9l8.75-23.21h5l9.17,24.5c.47,1.26,1.16,3.2,2.65,3.49a1.92,1.92,0,0,0,2.16-.13,4.23,4.23,0,0,0,1.52-3V154.76a2.09,2.09,0,0,0,0-.25v-5c0-2.89-2.84-3.7-5.32-3.7v-1.47l3.61-.08c3.51,0,5,.52,7,2.8l16,20V150.43c0-1.91-.29-3.13-.87-3.67s-2-.88-4.13-1v-1.41h11.09v0h12.95v1.41c-3.69.08-4.28,1-4.28,4V161.2L271.23,149a3.63,3.63,0,0,0,1-1.63,1.08,1.08,0,0,0-.54-1.21,3.33,3.33,0,0,0-1.86-.41c-.22,0-.44,0-.67,0v-1.56H279v1.56h-.4c-1.42,0-2.33.86-3.83,2.22l-9.56,8.68,10,11.7c1.74,2,5.36,5,8.23,5v1c-4.17.23-9.73.25-14.09-5.6L261.9,160l-4.74,4.27v4.22c0,3.06.59,3.9,4.28,4V174H248.51v-1.59a8.08,8.08,0,0,0,.89-.05h1.08l.08,0h.08l.07,0,.07,0h.08l.07,0,.08,0,.06,0,.06,0h0l.07,0h0l.06,0h0l.06,0,.06,0,.06,0,.06,0,.09,0h0l0,0h0l.05,0,.06,0,0,0a.66.66,0,0,0,.17-.12h0l0,0,0,0,0,0h0l0,0a2.34,2.34,0,0,0,.29-.35h0a.2.2,0,0,0,0-.08h0v-.05l0,0h0a1.8,1.8,0,0,0,.14-.71h0v-.05h0v-.1h0l0-.19a12,12,0,0,0,.09-1.58v-4.59c0-.14,0-.28,0-.42V149a3.08,3.08,0,0,0-1.22-2.73,5,5,0,0,0-2.69-.48v0c-1.39-.05-3,.19-3.49.67-1.1,1.07-1,2.57-1,4l0,23.58h-2.23l-19.14-24v17.82c0,1.89.29,3.12.88,3.69s2,.92,4.12,1.06v1.53L207.55,174v-1.51q2.58,0,2.58-1.8a3.9,3.9,0,0,0-.3-1.44Z" transform="translate(0 0)"/></g><g id="g857"><path id="path859" d="M127.16,160.07h.59c2.61,0,5.58,0,5.76,2.36l1.65-.32c-.08-1.26-.1-1.68-.1-2.91s0-1.09.1-2.38l-1.65-.32c-.2,2.53-3.15,2.21-5.88,2.21l-.47,0V148.21c0-2.42.18-2.42,3.7-2.42,5.84,0,8.42.53,9,5.32h.89v-6.84H118.34v1.43c3.7.09,4.27,1,4.27,4.07V174h20.2l.22-6.86h-.89c-.63,4.41-3.17,5.66-8.43,5.66-5.57,0-6.55-1.16-6.55-5.48v-7.26Z" transform="translate(0 0)"/></g><g id="g861"><path id="path863" d="M120,174l2.63-4.88h-1.49c-2.57,3.05-6.3,3.4-9.52,3.46-6.24.1-7-1-7-5.49V149.85c0-3.07.58-4,4.28-4.06v-1.5H95.75v1.5c3.7.09,4.28,1,4.28,4.06V169c0,3.08-.58,3.7-4.28,3.79v1.25Z" transform="translate(0 0)"/></g><g id="g865"><path id="path867" d="M8.4,146.88V167c0,2.19.34,3.63,1,4.32s2.26,1.12,4.7,1.35V174H1.07v-1.35c1.93-.24,3.2-.72,3.81-1.45s.94-2.14.94-4.21V143.56a6,6,0,0,0-.55-2.85,4,4,0,0,0-2.68-1.63A22.7,22.7,0,0,0,0,138.71v-1.34H4.9a5.25,5.25,0,0,1,4.26,1.88l23.1,26.18V144.37c0-2.19-.34-3.62-1-4.3s-2.25-1.13-4.7-1.34v-1.36H39.73v1.36c-1.94.25-3.23.73-3.84,1.46s-.91,2.12-.91,4.18V174H32.42Z" transform="translate(0 0)"/></g></svg>