<svg id="Warstwa_1" data-name="Warstwa 1" xmlns="http://www.w3.org/2000/svg" viewBox="0 0 137.86 37.75"><defs><style>.cls-1{fill:#a52284;}.cls-2{fill:#36b489;}.cls-3{fill:#fad05b;}.cls-4{fill:#010101;}</style></defs><title>237</title><rect class="cls-1" x="32.58" y="23.46" width="8.02" height="8.09" transform="translate(42.36 -11.13) rotate(90)"/><rect class="cls-2" x="32.51" y="12.61" width="8.09" height="8.09" transform="translate(31.48 -21.95) rotate(90)"/><rect class="cls-3" x="21.73" y="23.39" width="8.09" height="8.09" transform="translate(31.48 -0.39) rotate(90)"/><path class="cls-4" d="M64.74,12.11A10.08,10.08,0,0,1,54.47,22.17h-4.4v9.22H43.36V2.05H54.47A10.09,10.09,0,0,1,64.74,12.11Zm-6.71,0a3.58,3.58,0,0,0-3.56-3.77h-4.4v7.54h4.4A3.58,3.58,0,0,0,58,12.11Z" transform="translate(-21.73 -2.05)"/><path class="cls-4" d="M88.13,9.86V31.38H81.67v-2A8.07,8.07,0,0,1,75.26,32C69.62,32,65,27,65,20.62S69.62,9.26,75.26,9.26a8.1,8.1,0,0,1,6.41,2.62v-2ZM81.67,20.62a5.12,5.12,0,1,0-10.24,0,5.12,5.12,0,1,0,10.24,0Z" transform="translate(-21.73 -2.05)"/><path class="cls-4" d="M112.65,9.86l-7.31,20.73c-2.39,6.79-6.2,9.48-12.18,9.19v-6c3,0,4.4-.94,5.34-3.54L90,9.86h7l4.74,13.08,4-13.08Z" transform="translate(-21.73 -2.05)"/><path class="cls-4" d="M136.54,12.11a10.08,10.08,0,0,1-10.27,10.06h-4.4v9.22h-6.71V2.05h11.11A10.09,10.09,0,0,1,136.54,12.11Zm-6.71,0a3.58,3.58,0,0,0-3.56-3.77h-4.4v7.54h4.4A3.58,3.58,0,0,0,129.83,12.11Z" transform="translate(-21.73 -2.05)"/><path class="cls-4" d="M137.38,20.91A11.11,11.11,0,1,1,148.49,32,11,11,0,0,1,137.38,20.91Zm15.93,0a4.82,4.82,0,1,0-9.64,0,4.82,4.82,0,1,0,9.64,0Z" transform="translate(-21.73 -2.05)"/></svg>