<svg id="Warstwa_1" data-name="Warstwa 1" xmlns="http://www.w3.org/2000/svg" viewBox="0 0 177.11 33.93"><defs><style>.cls-1{fill:#62bb46;}.cls-2{fill:#39b7ea;}.cls-3{fill:#ed1b2f;}</style></defs><title>50</title><path class="cls-1" d="M50.28,13.37V25.93c0,1.27-.74,2.32-2.6,2.38s-2.6-1.11-2.6-2.38V13.37H39.24V25.56c0,4.37,2.77,6.29,8.44,6.29s8.44-1.92,8.44-6.29V13.37Z" transform="translate(-7.45 -4.82)"/><path class="cls-1" d="M16.2,31.75a12,12,0,0,1-2.92-.3v7.3H7.45V14.38A18.55,18.55,0,0,1,15.15,13c6,0,9.92,3.2,9.92,9.3,0,5.82-3.63,9.42-8.87,9.42M15.08,16.13a5.17,5.17,0,0,0-1.8.27v12a4.52,4.52,0,0,0,1.54.24c3.1,0,4.48-2.19,4.48-6.27s-1.12-6.26-4.22-6.26" transform="translate(-7.45 -4.82)"/><rect class="cls-1" x="21.44" y="0.27" width="5.84" height="26.43"/><path class="cls-1" d="M65.24,31.82a12.34,12.34,0,0,1-5.91-1.31l1.5-3.33a6.65,6.65,0,0,0,3.59,1c1.5,0,2.51-.84,2.51-2s-.71-1.88-2.58-2.56c-3.71-1.31-4.53-3.16-4.53-5.05,0-3.09,2.69-5.59,6.73-5.59a11.17,11.17,0,0,1,5.8,1.32l-1.42,3a5.58,5.58,0,0,0-3.07-.94c-1.53,0-2.32.84-2.32,1.89,0,1.21,1,1.88,2.59,2.49C72,22.26,72.91,24,72.91,26.1c0,3.16-2.88,5.72-7.67,5.72" transform="translate(-7.45 -4.82)"/><path class="cls-2" d="M90.85,9.18a2.69,2.69,0,0,0-2,1.07,3.54,3.54,0,0,0-.39.81c-.09.28-.16.56-.23.79-.29.94-.52,1.8-.71,2.61a1,1,0,0,0-.79-.79,4,4,0,0,1-.77-.22c-.17-.07-.29-.13-.47-.19A9,9,0,0,0,83.07,13c-1.36,0-2.81.25-3.4,1.52a4.72,4.72,0,0,0-.45,2c0,.62.25,1,.64,1a3.87,3.87,0,0,0,1.06-.05c.32-.08.62-.17,1-.24a11.5,11.5,0,0,1,4.27.18.92.92,0,0,0,.78-.23c-.08.5-.14,1-.19,1.41a37,37,0,0,0-.16,4.31c0,1.19.18,1.41.88,1.48a1.46,1.46,0,0,0,1.74-1.35,41.57,41.57,0,0,1,3.43-10.95c.61-1.41.82-3.26-1.83-2.93m9,7.82c-.62-.38-.73-.54-1.06-.75a15.12,15.12,0,0,0-2.33-1c-1.33-.51-2.83-.75-3.82.28a4.58,4.58,0,0,0-1.09,1.83c-.17.63-.06,1.08.33,1.26a3,3,0,0,0,1,.3c.34,0,.66,0,1.06.06A10.44,10.44,0,0,1,98.1,20.6c.76.45,1.56-.3,2-1.39s.42-1.79-.29-2.21" transform="translate(-7.45 -4.82)"/><path class="cls-3" d="M93.79,26.55c.49-.36,1-.74,1.39-1.06a7.62,7.62,0,0,0,.86-.72l.23-.24.24-.22a4.62,4.62,0,0,1,.54-.4.51.51,0,0,1,.33-.1c.11,0,.81.42.05,1.49-3.6,5.05-6.09,6.35-9.36,6.51a11,11,0,0,1-10.52-6.75A2.87,2.87,0,0,1,79,21.84c1.27-.57,1.62-.47,1.83.67.65,3.61,4.51,6,7.78,5.73a10.14,10.14,0,0,0,3.65-.74,9.74,9.74,0,0,0,1.51-.95" transform="translate(-7.45 -4.82)"/><path class="cls-2" d="M112.37,31.68a15.75,15.75,0,0,1-7.14-1.39V4.82h6.4v8.56a8,8,0,0,1,3-.54c4.71,0,7.61,3.3,7.61,8.56,0,6.6-3.57,10.28-9.84,10.28M113,16.51a3.29,3.29,0,0,0-1.35.24v11a3.75,3.75,0,0,0,1.15.13c2.12,0,3.13-2,3.13-5.72s-.91-5.6-2.93-5.6" transform="translate(-7.45 -4.82)"/><path class="cls-2" d="M133.6,31.68c-5.59,0-8.49-2-8.49-5.9,0-4.55,4.69-5.9,10.14-6.4V18.7c0-1.38-.94-2-2.73-2a13.17,13.17,0,0,0-5,1.14l-1.35-3.7a20.75,20.75,0,0,1,7.38-1.45c4.68,0,7.71,1.88,7.71,7V30.29a18,18,0,0,1-7.65,1.39m1.65-9.4c-2.93.3-4.17,1.28-4.17,3.23,0,1.79,1,2.63,2.79,2.63a3.11,3.11,0,0,0,1.38-.24Z" transform="translate(-7.45 -4.82)"/><path class="cls-2" d="M155.78,31.27V19.07c0-1.58-.68-2.39-2.33-2.39a4.5,4.5,0,0,0-1.55.24V31.27h-6.4V14.12a21.14,21.14,0,0,1,7.95-1.35c6.13,0,8.73,2.43,8.73,6.37V31.27Z" transform="translate(-7.45 -4.82)"/><polygon class="cls-2" points="169.9 26.45 165.45 17.79 165.38 17.79 165.38 26.45 159.01 26.45 159.01 0 165.38 0 165.38 16.51 165.45 16.51 169.9 8.29 176.6 8.29 171.04 16.75 177.11 26.45 169.9 26.45"/></svg>