<svg id="Warstwa_1" data-name="Warstwa 1" xmlns="http://www.w3.org/2000/svg" xmlns:xlink="http://www.w3.org/1999/xlink" viewBox="0 0 67.59 40.3"><defs><style>.cls-1{fill:none;}.cls-2{fill:#010101;}.cls-3{clip-path:url(#clip-path);}.cls-4{fill:url(#Gradient_bez_nazwy_5);}.cls-5{fill:#e3232d;}</style><clipPath id="clip-path" transform="translate(-60.69 -0.85)"><path class="cls-1" d="M67.45,24c-3.34,0-5.94,2.2-5.94,5V40.75h5.94V24h0"/></clipPath><linearGradient id="Gradient_bez_nazwy_5" x1="1.2" y1="86.63" x2="1.79" y2="86.63" gradientTransform="matrix(0, 28.03, 28.03, 0, -2424.84, -10.36)" gradientUnits="userSpaceOnUse"><stop offset="0" stop-color="#0a4e99"/><stop offset="0.15" stop-color="#0a4b93"/><stop offset="0.34" stop-color="#0b4383"/><stop offset="0.55" stop-color="#0d3568"/><stop offset="0.78" stop-color="#0f2242"/><stop offset="1" stop-color="#110d18"/></linearGradient></defs><title>31</title><path class="cls-2" d="M93.05,13H92V4.89A1,1,0,0,1,92.51,4a3.42,3.42,0,0,1,1.7-.4c1.94,0,2.85,1.23,2.85,3s-1,3.5-2.8,3.5a2,2,0,0,1-1.21-.39V13m1.1-8.76c-.78,0-1.1.28-1.1.8v4.1a1.65,1.65,0,0,0,1.16.43C95.35,9.52,96,8.41,96,6.78,96,5,95.11,4.19,94.15,4.19Z" transform="translate(-60.69 -0.85)"/><path class="cls-2" d="M98.73,10.07V6.16l-.85.54-.07-.11c-.16-.28.07-.54.35-.71l.57-.33V.85h1v4.2l1-.72,0,.13c.12.36,0,.59-.37.8l-.7.45v4.36h-1" transform="translate(-60.69 -0.85)"/><path class="cls-2" d="M106.58,10.06l-.3,0a.49.49,0,0,1-.55-.49l0-.27h-.1a2.21,2.21,0,0,1-1.74.86c-1.36,0-2.29-1.16-2.29-3,0-2.22,1.4-3.54,3-3.54a3,3,0,0,1,1.46.36.94.94,0,0,1,.52.91v5.19m-1-5.05c0-.52-.43-.83-1.06-.83-1,0-1.92.89-1.92,2.81,0,1.62.65,2.44,1.57,2.44a1.79,1.79,0,0,0,1.41-.72Z" transform="translate(-60.69 -0.85)"/><path class="cls-2" d="M107.71,6.92c0-2.25,1.26-3.34,2.65-3.34a2.28,2.28,0,0,1,2.27,1.67,1.13,1.13,0,0,1-.53.14c-.38,0-.59-.23-.81-.62a1.08,1.08,0,0,0-1-.63c-.88,0-1.58.85-1.58,2.65,0,1.63.84,2.61,1.9,2.61a1.81,1.81,0,0,0,1.64-1.06l.32.16a2.24,2.24,0,0,1-2.2,1.69c-1.32,0-2.67-1-2.67-3.27" transform="translate(-60.69 -0.85)"/><path class="cls-2" d="M116.77,10.15a3.58,3.58,0,0,1-.48,0c-1.31,0-2.65-1-2.65-3.29s1.23-3.32,2.62-3.32a2.31,2.31,0,0,1,2.36,2.27c0,.78-.48,1.17-1.29,1.17h-2.68c0,1.14.65,2.38,1.88,2.38a1.83,1.83,0,0,0,1.62-1.06l.33.16a2.77,2.77,0,0,1-1,1.4,2.64,2.64,0,0,0-.93,1.75c0,.44.21.75.59.75a.84.84,0,0,0,.48-.16c.07.09.1.12.1.22,0,.26-.38.54-.79.54a1,1,0,0,1-1.08-1.07,2.66,2.66,0,0,1,.89-1.78m.28-3.7c.44,0,.59-.2.59-.59a1.62,1.62,0,0,0-1.45-1.73c-1,0-1.57,1.26-1.56,2.32Z" transform="translate(-60.69 -0.85)"/><path class="cls-2" d="M126.76,10.07h-4.12V10a3.14,3.14,0,0,1,.58-1.55l2.45-4.12h-2.84v-.6h3.87V3.8a3.2,3.2,0,0,1-.57,1.6l-2.38,4h3v.62" transform="translate(-60.69 -0.85)"/><g class="cls-3"><rect class="cls-4" x="0.82" y="23.19" width="5.93" height="16.71"/></g><path class="cls-5" d="M68.58,19.1a3.95,3.95,0,1,1-3.94-4,3.93,3.93,0,0,1,3.94,4" transform="translate(-60.69 -0.85)"/><path class="cls-2" d="M88.66,24.24c0,4.46-3.08,7.8-8.39,7.8a10.9,10.9,0,0,1-2.72-.26v9H74.66V22c0-4.06,2.36-4.78,5.64-4.78,5.77,0,8.36,3,8.36,7M80.46,19c-2,0-2.91.69-2.91,2.89v8.26a11.59,11.59,0,0,0,2.26.22c4.06,0,5.86-2.62,5.86-6.06C85.67,21.26,84.17,19,80.46,19Z" transform="translate(-60.69 -0.85)"/><path class="cls-2" d="M94.85,29.48V40.76H92V17.62h2.82V28.47l7.44-8.72a5.68,5.68,0,0,1,4.16-2.23,4.79,4.79,0,0,1,1,.13l-7.93,9a6.19,6.19,0,0,1-3.08,2v.66A7,7,0,0,1,100,31.65l8.13,9.08a3.67,3.67,0,0,1-1.08.16,5.66,5.66,0,0,1-4.29-2.23l-7.87-9.18" transform="translate(-60.69 -0.85)"/><path class="cls-2" d="M118.32,41.15c-5.8,0-10-4.65-10-12.16,0-6.78,4.23-11.86,10-11.86s10,5.14,10,11.86c0,7.34-4.2,12.16-10,12.16M118.22,19c-4.13,0-6.78,4.19-6.78,9.63,0,6.36,2.65,10.59,7,10.59,4.13,0,6.82-4.23,6.82-9.93C125.24,23.22,122.55,19,118.22,19Z" transform="translate(-60.69 -0.85)"/></svg>