<?xml version="1.0" encoding="utf-8"?>
<!-- Generator: Adobe Illustrator 23.1.0, SVG Export Plug-In . SVG Version: 6.00 Build 0)  -->
<svg version="1.1" id="Warstwa_1" xmlns="http://www.w3.org/2000/svg" xmlns:xlink="http://www.w3.org/1999/xlink" x="0px" y="0px"
	 viewBox="0 0 192 42" style="enable-background:new 0 0 192 42;" xml:space="preserve">
<style type="text/css">
	.st0{fill:#E11F28;}
</style>
<g id="g28952">
	<path id="path28954" class="st0" d="M28.3,18.4c0-1.2-0.4-2.3-1-3.3l-5.3-9.2c-0.4-0.6-0.7-1.3-0.8-2.1l-0.2,0.4
		c-1.4,2.3-1.4,5.1,0,7.4l4.2,7.4c1.3,2.3,1.3,5.1,0,7.4L25,26.9c-0.2-0.8-0.4-1.5-0.8-2.2l-3.9-7.2l-2.5-4.3
		c-0.4-0.7-0.7-1.4-0.8-2.1l-0.2,0.4c-1.3,2.3-1.3,5.1,0,7.4l0,0l4.2,7.4c1.4,2.3,1.4,5.1,0,7.4l-0.2,0.4c-0.2-0.8-0.4-1.5-0.8-2.2
		l-5.2-9.6c-0.7-1.2-1-2.6-1-4c-5.7,1.5-9.6,4.6-9.6,8.2c0,5,7.6,9.2,16.8,9.2s16.8-4.1,16.8-9.2C37.9,23,34,19.9,28.3,18.4
		 M44.3,34.1c0-1.1,0.2-2.1,0.6-3.1c1.8,0.8,3.8,1.2,5.8,1.2c2.9,0,4.6-0.9,4.6-2.8s-1.2-2.7-4.2-4l-1.6-0.7c-3-1.3-5-3-5-6.3
		s2.5-5.9,7.6-5.9c2,0,3.9,0.3,5.8,0.9c0,1-0.2,2.1-0.5,3.1c-1.7-0.6-3.4-0.9-5.2-0.9c-2.8,0-4,1.1-4,2.8c0,1.7,1.2,2.5,3.5,3.5
		l1.7,0.7c4,1.7,5.7,3.5,5.7,6.6c0,3.6-2.7,6.1-8.1,6.1c-2.2,0.1-4.5-0.3-6.5-1.2 M76,18.9v15.8h-3.1l-0.2-1.9
		c-1,1.5-2.7,2.4-4.5,2.3c-4.2,0-7-3-7-8.3c-0.4-4.4,2.8-8.3,7.2-8.8c0.6-0.1,1.1-0.1,1.7,0C72.1,18,74.1,18.3,76,18.9 M72.5,31.1
		v-9.9C71.7,21,70.9,21,70,21c-3.6,0-5.3,2.2-5.3,5.8s1.3,5.5,4.4,5.5C70.4,32.3,71.6,31.8,72.5,31.1 M93.8,24v10.7h-3.6v-9.9
		c0-2.5-0.8-3.7-4.3-3.7c-0.9,0-1.8,0.1-2.7,0.2v13.5h-3.4V18.9c2.1-0.5,4.2-0.8,6.3-0.9c5.8,0,7.7,2.2,7.7,6.1 M103.5,32.1
		c0.9,0,1.8-0.2,2.7-0.5c-0.1,1-0.2,2-0.4,3c-0.9,0.4-1.9,0.5-2.9,0.5c-2.7,0.3-5.2-1.7-5.5-4.4c0,0,0,0,0,0c0-0.3,0-0.7,0-1V13.1
		c1.1-0.3,2.3-0.5,3.5-0.5v6h5.4c0,1-0.1,2-0.3,3h-5.2v7.8C100.8,31.4,101.8,32.2,103.5,32.1 M122.1,18.9v15.8H119l-0.2-1.9
		c-1,1.5-2.7,2.4-4.5,2.3c-4.2,0-7-3-7-8.3c-0.5-4.4,2.7-8.3,7.1-8.8c0.6-0.1,1.1-0.1,1.7,0C118.2,18,120.2,18.3,122.1,18.9
		 M118.7,31.1v-9.9c-0.8-0.1-1.6-0.2-2.5-0.2c-3.6,0-5.3,2.2-5.3,5.8s1.3,5.5,4.4,5.5C116.5,32.3,117.7,31.8,118.7,31.1 M140,24
		v10.7h-3.6v-9.9c0-2.5-0.8-3.7-4.3-3.7c-0.9,0-1.8,0.1-2.7,0.2v13.5h-3.5V18.9c2.1-0.5,4.2-0.8,6.3-0.9c5.8,0,7.7,2.2,7.7,6.1
		 M157.5,12.6v22.3h-3.2v-2.2c-0.9,1.6-2.7,2.6-4.5,2.5c-4.2,0-7-3-7-8.3c-0.4-4.4,2.8-8.3,7.2-8.7c0.5,0,1.1,0,1.6,0
		c0.9,0,1.7,0.1,2.6,0.2V13c1.1-0.4,2.3-0.5,3.4-0.5 M154.2,31.1v-9.9c-0.9-0.1-1.8-0.2-2.8-0.1c-3.4,0-5.1,2.2-5.1,5.8
		c0,3.2,1.3,5.5,4.4,5.5C152,32.3,153.3,31.9,154.2,31.1 M175.2,28H164c0.2,2.5,2.4,4.4,5,4.2h0.1c1.9,0,3.8-0.5,5.6-1.3
		c0,0.9-0.3,2.1-0.5,3.1c-1.6,0.7-3.4,1-5.1,1c-5.8,0-8.7-3.2-8.7-8.7c0-4.7,2.2-8.4,7.7-8.4c3.6-0.3,6.8,2.4,7.1,6
		c0,0.4,0,0.8,0,1.2c0,0.9-0.1,1.8-0.2,2.7 M164,25h7.7c0.2-1.9-1.1-3.7-3-4h-0.8c-2.5,0-3.8,1.4-4.1,4.1 M187.3,18.2
		c0,1-0.1,1.9-0.3,2.9c-0.9,0-1.8,0-2.6,0c-0.9,0-1.8,0.1-2.7,0.2v13.5h-3.3V18.9c1.9-0.6,3.9-0.9,6-0.9h3"/>
</g>
</svg>
