<svg id="Warstwa_1" data-name="Warstwa 1" xmlns="http://www.w3.org/2000/svg" viewBox="0 0 184.49 28.35"><defs><style>.cls-1{fill:#359d47;}.cls-2{fill:#231f20;}</style></defs><title>58 SGB Spółdzielcza Grupa Bankowa</title><path class="cls-1" d="M16.36,33.18a24,24,0,0,1-8.74-1.51,8.14,8.14,0,0,1-4.4-3.61A7,7,0,0,1,3,21.91a16.58,16.58,0,0,1,3.76-5.56A32,32,0,0,1,15,10.43,60.14,60.14,0,0,1,29.55,5a6.07,6.07,0,0,1,2.51-.13,1.4,1.4,0,0,1,.73.36c.52.5.76,1.23-.08,1.79a4.74,4.74,0,0,1-1.22.54,97.39,97.39,0,0,0-12,4.68,33.85,33.85,0,0,0-7.26,4.53A11.11,11.11,0,0,0,8.88,21.1a6,6,0,0,0,.66,5.69,5.6,5.6,0,0,0,3.39,2.11,17.3,17.3,0,0,0,6.08.45,32.72,32.72,0,0,0,11.48-3,29.91,29.91,0,0,0,9.27-6.43,12.4,12.4,0,0,0,2.81-4.21,4,4,0,0,0,.3-1.54,1.57,1.57,0,0,0-1.29-1.66,7.19,7.19,0,0,0-3.13,0,26.53,26.53,0,0,0-4.63,1.3,1.5,1.5,0,0,1-1.8-.41.68.68,0,0,1,0-.93,1.83,1.83,0,0,1,.79-.58,25.6,25.6,0,0,1,7.46-2.23A7.84,7.84,0,0,1,43.9,10a3.47,3.47,0,0,1,2.41,3.93,12.13,12.13,0,0,1-2.26,5.41A30.15,30.15,0,0,1,29,30.88,37.45,37.45,0,0,1,16.36,33.18Z" transform="translate(-2.4 -4.83)"/><path class="cls-2" d="M54.66,21.68a1.21,1.21,0,0,0,1.37.94c.74,0,1.06-.3,1.06-.77s-.31-.76-1.42-1c-1.76-.42-2.19-1.06-2.19-1.93,0-1.13.84-1.9,2.37-1.9,1.72,0,2.41.93,2.5,1.87H56.94c-.07-.39-.29-.83-1.12-.83-.57,0-.91.24-.91.7s.27.63,1.32.87c1.88.45,2.29,1.15,2.29,2.06,0,1.18-.89,2-2.6,2s-2.51-.81-2.67-2Z" transform="translate(-2.4 -4.83)"/><path class="cls-2" d="M61.07,23.15v2.29H59.73V19.89c0-.39,0-.78,0-1.17H61a5.19,5.19,0,0,1,0,.61,1.53,1.53,0,0,1,1.41-.72c1.09,0,1.94.91,1.94,2.42,0,1.71-1,2.66-2.12,2.66A1.35,1.35,0,0,1,61.07,23.15Zm2-2.07c0-.89-.36-1.39-1-1.39s-1,.49-1,1.47.25,1.46,1,1.46S63.05,22.07,63.05,21.08Z" transform="translate(-2.4 -4.83)"/><path class="cls-2" d="M70.22,21.14a2.4,2.4,0,1,1-4.8,0,2.35,2.35,0,0,1,2.45-2.56A2.3,2.3,0,0,1,70.22,21.14Zm-3.44,0c0,.94.41,1.49,1.06,1.49s1-.55,1-1.48-.37-1.5-1-1.5S66.78,20.12,66.78,21.15Zm3-4.52L68.28,18H67.11l1.08-1.4Z" transform="translate(-2.4 -4.83)"/><path class="cls-2" d="M73.47,18.67v1.09L71,21V20Zm-2,4.91V16.73h1.35v6.85Z" transform="translate(-2.4 -4.83)"/><path class="cls-2" d="M78.87,16.73v5.52c0,.44,0,.89,0,1.33H77.59c0-.14-.06-.4-.07-.51a1.43,1.43,0,0,1-1.37.62c-1.23,0-2-1-2-2.5a2.29,2.29,0,0,1,2.21-2.58c.7,0,1.08.25,1.18.46V16.73Zm-3.35,4.43c0,.94.37,1.46,1,1.46.93,0,1-.78,1-1.47s-.12-1.46-1-1.46C75.87,19.69,75.52,20.24,75.52,21.16Z" transform="translate(-2.4 -4.83)"/><path class="cls-2" d="M80.05,22.57l2.41-2.79H80.17V18.72H84v1.05l-2.36,2.75h2.53L84,23.58H80.05Z" transform="translate(-2.4 -4.83)"/><path class="cls-2" d="M85.23,16.73h1.35v1.2H85.23Zm0,2h1.35v4.86H85.23Z" transform="translate(-2.4 -4.83)"/><path class="cls-2" d="M89.16,21.44c0,.61.3,1.2,1,1.2a.77.77,0,0,0,.85-.52h1.35a2.12,2.12,0,0,1-2.23,1.57,2.24,2.24,0,0,1-2.3-2.47c0-1.52.79-2.61,2.35-2.61A2.14,2.14,0,0,1,92.38,21c0,.16,0,.27,0,.41ZM91,20.61c0-.56-.24-1-.9-1s-.9.45-1,1Z" transform="translate(-2.4 -4.83)"/><path class="cls-2" d="M93.6,23.58V16.73H95v6.85Z" transform="translate(-2.4 -4.83)"/><path class="cls-2" d="M100.66,22a2,2,0,0,1-2.18,1.68,2.22,2.22,0,0,1-2.29-2.5,2.35,2.35,0,0,1,2.35-2.58,1.91,1.91,0,0,1,2.12,1.72H99.35a.76.76,0,0,0-.83-.67c-.62,0-1,.54-1,1.48s.37,1.51,1,1.51a.82.82,0,0,0,.83-.64Z" transform="translate(-2.4 -4.83)"/><path class="cls-2" d="M101.54,22.57,104,19.78h-2.29V18.72h3.81v1.05l-2.36,2.75h2.53l-.16,1.06h-3.94Z" transform="translate(-2.4 -4.83)"/><path class="cls-2" d="M110.8,22.33a10.24,10.24,0,0,0,.07,1.25h-1.29a2.31,2.31,0,0,1-.07-.47c-.17.27-.5.58-1.36.58a1.51,1.51,0,0,1-1.67-1.52c0-1.11.89-1.62,2.32-1.62h.69v-.3c0-.34-.13-.68-.75-.68s-.69.24-.75.59h-1.28c.07-.86.6-1.56,2.08-1.55,1.3,0,2,.52,2,1.67Zm-1.31-1h-.55c-.81,0-1.11.25-1.11.71a.62.62,0,0,0,.7.65c.86,0,1-.59,1-1.23Z" transform="translate(-2.4 -4.83)"/><path class="cls-2" d="M120.7,23.58h-1a3.29,3.29,0,0,1-.11-.64,2.2,2.2,0,0,1-1.89.75c-1.88,0-2.93-1.42-2.93-3.26A3.11,3.11,0,0,1,117.92,17a2.56,2.56,0,0,1,2.8,2h-1.4a1.31,1.31,0,0,0-1.42-.95c-1.33,0-1.71,1.11-1.71,2.25s.43,2.21,1.72,2.21a1.27,1.27,0,0,0,1.41-1.4v-.06H117.9V20h2.8Z" transform="translate(-2.4 -4.83)"/><path class="cls-2" d="M122.21,20c0-.48,0-.91,0-1.32h1.32c0,.11,0,.59,0,.85a1.55,1.55,0,0,1,1.56-1v1.28c-1,0-1.56.24-1.56,1.57v2.12h-1.35Z" transform="translate(-2.4 -4.83)"/><path class="cls-2" d="M130.49,22.17c0,.47,0,1,0,1.41h-1.32c0-.13,0-.39,0-.56a1.39,1.39,0,0,1-1.34.67c-1,0-1.62-.6-1.62-1.8V18.72h1.35v2.9c0,.53.16,1,.74,1s.87-.33.87-1.29V18.72h1.35Z" transform="translate(-2.4 -4.83)"/><path class="cls-2" d="M133.34,23.15v2.29H132V19.89c0-.39,0-.78,0-1.17h1.31c0,.13,0,.43,0,.61a1.53,1.53,0,0,1,1.41-.72c1.09,0,1.94.91,1.94,2.42,0,1.71-.95,2.66-2.12,2.66A1.35,1.35,0,0,1,133.34,23.15Zm2-2.07c0-.89-.36-1.39-1-1.39s-1,.49-1,1.47.25,1.46,1,1.46S135.32,22.07,135.32,21.08Z" transform="translate(-2.4 -4.83)"/><path class="cls-2" d="M141.92,22.33a10.24,10.24,0,0,0,.07,1.25H140.7a2.31,2.31,0,0,1-.07-.47c-.17.27-.5.58-1.36.58a1.51,1.51,0,0,1-1.67-1.52c0-1.11.89-1.62,2.32-1.62h.69v-.3c0-.34-.12-.68-.75-.68s-.69.24-.75.59h-1.28c.07-.86.6-1.56,2.08-1.55,1.3,0,2,.52,2,1.67Zm-1.31-1h-.55c-.81,0-1.11.25-1.11.71a.62.62,0,0,0,.7.65c.86,0,1-.59,1-1.23Z" transform="translate(-2.4 -4.83)"/><path class="cls-2" d="M146.18,17.11H149c1.57,0,2.16.81,2.16,1.65a1.49,1.49,0,0,1-.83,1.41,1.53,1.53,0,0,1,1,1.47,2,2,0,0,1-2.24,1.94h-2.93Zm2.67,2.55c.67,0,.94-.3.94-.75s-.36-.72-.9-.72h-1.33v1.47Zm-1.29,2.84h1.26c.76,0,1.1-.32,1.1-.9s-.34-.86-1.11-.86h-1.25Z" transform="translate(-2.4 -4.83)"/><path class="cls-2" d="M156.69,22.33c0,.46,0,1.13.06,1.25h-1.28a1.78,1.78,0,0,1-.07-.47,1.45,1.45,0,0,1-1.37.58,1.5,1.5,0,0,1-1.66-1.52c0-1.11.89-1.62,2.31-1.62h.7v-.3c0-.34-.13-.68-.75-.68s-.7.24-.76.59h-1.28c.08-.86.61-1.56,2.09-1.55,1.3,0,2,.52,2,1.67Zm-1.31-1h-.55c-.81,0-1.11.25-1.11.71a.62.62,0,0,0,.7.65c.85,0,1-.59,1-1.23Z" transform="translate(-2.4 -4.83)"/><path class="cls-2" d="M158.22,20c0-.42,0-.87,0-1.23h1.3a4,4,0,0,1,.05.62,1.5,1.5,0,0,1,1.41-.73c1,0,1.61.66,1.61,1.88v3.09h-1.34V20.64c0-.55-.18-.94-.78-.94s-.9.31-.9,1.17v2.71h-1.34Z" transform="translate(-2.4 -4.83)"/><path class="cls-2" d="M165.43,20.77c.35-.48,1-1.24,1.67-2.05h1.54L167,20.56l1.85,3h-1.52l-1.23-2.16-.62.6v1.56h-1.35V16.73h1.35Z" transform="translate(-2.4 -4.83)"/><path class="cls-2" d="M174,21.14a2.33,2.33,0,0,1-2.42,2.55,2.31,2.31,0,0,1-2.38-2.52,2.34,2.34,0,0,1,2.45-2.56A2.3,2.3,0,0,1,174,21.14Zm-3.44,0c0,.94.4,1.49,1.05,1.49s1-.55,1-1.48-.38-1.5-1.05-1.5S170.57,20.12,170.57,21.15Z" transform="translate(-2.4 -4.83)"/><path class="cls-2" d="M176.15,18.72c.44,2,.68,3.06.77,3.66h0c.1-.54.24-1.3.83-3.66H179c.55,2.39.71,3.09.78,3.62h0c.1-.5.25-1.23.81-3.62H182l-1.45,4.86h-1.44c-.4-1.84-.63-2.81-.74-3.45h0c-.07.61-.34,1.71-.77,3.45h-1.44l-1.38-4.86Z" transform="translate(-2.4 -4.83)"/><path class="cls-2" d="M186.82,22.33a10.24,10.24,0,0,0,.07,1.25H185.6a3.31,3.31,0,0,1-.07-.47c-.17.27-.5.58-1.36.58a1.51,1.51,0,0,1-1.67-1.52c0-1.11.89-1.62,2.32-1.62h.69v-.3c0-.34-.12-.68-.75-.68s-.69.24-.75.59h-1.28c.07-.86.61-1.56,2.08-1.55,1.3,0,2,.52,2,1.67Zm-1.31-1H185c-.81,0-1.11.25-1.11.71a.62.62,0,0,0,.7.65c.86,0,1-.59,1-1.23Z" transform="translate(-2.4 -4.83)"/><path class="cls-2" d="M15.2,21.06c.17.73.69,1,1.53,1s1.19-.32,1.19-.85-.35-.85-1.59-1.14c-2-.46-2.45-1.18-2.45-2.15,0-1.27.94-2.12,2.65-2.12,1.92,0,2.69,1,2.79,2.09H17.75c-.08-.45-.32-.93-1.26-.93-.63,0-1,.26-1,.78s.31.7,1.48,1c2.11.49,2.57,1.27,2.57,2.3,0,1.32-1,2.22-2.92,2.22s-2.8-.9-3-2.22Z" transform="translate(-2.4 -4.83)"/><path class="cls-2" d="M27.4,21.07a2.23,2.23,0,0,1-1,1.55A4,4,0,0,1,24,23.3c-2.1.06-3.27-1.59-3.27-3.65S22,15.84,24.3,15.84a2.86,2.86,0,0,1,3.13,2.28H25.86a1.46,1.46,0,0,0-1.59-1.05c-1.48,0-1.91,1.24-1.91,2.51s.49,2.48,1.92,2.48a1.43,1.43,0,0,0,1.59-1.58v-.07H24.28V19.13H27.4Z" transform="translate(-2.4 -4.83)"/><path class="cls-2" d="M29.34,15.94H32.5c1.75,0,2.41.91,2.41,1.85A1.64,1.64,0,0,1,34,19.36,1.73,1.73,0,0,1,35.12,21a2.24,2.24,0,0,1-2.51,2.17H29.34Zm3,2.86c.75,0,1-.34,1-.84s-.4-.81-1-.81H30.88V18.8ZM30.88,22h1.41c.84,0,1.23-.35,1.23-1S33.14,20,32.28,20h-1.4Z" transform="translate(-2.4 -4.83)"/></svg>