<svg id="Warstwa_1" data-name="Warstwa 1" xmlns="http://www.w3.org/2000/svg" viewBox="0 0 185.42 25.35"><defs><style>.cls-1,.cls-2{fill:#db0f7e;}.cls-1{fill-rule:evenodd;}</style></defs><title>120</title><path class="cls-1" d="M4,17.62l1.28.24A10.17,10.17,0,0,1,7,12.5,2.61,2.61,0,0,1,7.44,12a4.1,4.1,0,0,1,.46-.43,6.52,6.52,0,0,1,4-1.33c0,.36,0,12.46,0,12.8,0,1.35.06,5.27-.07,6.34s-.36,1.71-1.12,2.09a6.88,6.88,0,0,1-2.83.4v1.36H19.82V31.91A7,7,0,0,1,17,31.52c-.78-.37-1-1-1.15-2.07s-.07-5-.07-6.34c0-4.27,0-8.55,0-12.83a6.91,6.91,0,0,1,2.92.64,5.6,5.6,0,0,1,2,1.58,10.28,10.28,0,0,1,1.77,5.35l1.27-.21-.23-8.51c-.25-.06-9.13,0-9.64,0-.23,0-9.44,0-9.68,0L4,17.62Z" transform="translate(-3.96 -9.1)"/><polygon class="cls-1" points="0 16.01 4.89 16.02 4.89 11.13 0 11.13 0 16.01 0 16.01"/><polygon class="cls-1" points="14.92 16.02 19.81 16.02 19.81 11.14 14.92 11.13 14.92 16.02 14.92 16.02"/><polygon class="cls-1" points="29.59 16.01 34.48 16.02 34.48 11.13 29.59 11.13 29.59 16.01 29.59 16.01"/><polygon class="cls-1" points="44.27 16.02 49.16 16.02 49.16 11.14 44.27 11.13 44.27 16.02 44.27 16.02"/><path class="cls-2" d="M71.78,10V14.8A2.64,2.64,0,0,1,71,16.89a2.65,2.65,0,0,1-1.8.59,2.57,2.57,0,0,1-2-.76,2.79,2.79,0,0,1-.62-1.92V10h1.19v4.79c0,1.15.48,1.72,1.45,1.72s1.45-.57,1.45-1.72V10Z" transform="translate(-3.96 -9.1)"/><path class="cls-2" d="M77.87,11.7,76.72,12c-.18-.81-.59-1.21-1.22-1.21a1.27,1.27,0,0,0-.89.29.9.9,0,0,0-.26.67,1,1,0,0,0,.3.79,2.53,2.53,0,0,0,1,.44l.37.12a3.11,3.11,0,0,1,1.64.92A2,2,0,0,1,78,15.31,2,2,0,0,1,77.27,17a2.67,2.67,0,0,1-1.77.54A2.71,2.71,0,0,1,73.75,17a2.46,2.46,0,0,1-.83-1.37l1.14-.39a1.77,1.77,0,0,0,.55,1,1.31,1.31,0,0,0,.87.3c.87,0,1.31-.35,1.31-1a1,1,0,0,0-.29-.79,2.79,2.79,0,0,0-1-.48l-.35-.11a3.19,3.19,0,0,1-1.57-.93,2.1,2.1,0,0,1-.36-1.29,1.87,1.87,0,0,1,.67-1.49,2.47,2.47,0,0,1,1.62-.51A2.3,2.3,0,0,1,77.87,11.7Z" transform="translate(-3.96 -9.1)"/><path class="cls-2" d="M80.38,10v2.89l.87-.63.24.58-1.11.8v2.68H83.6v1H79.19V14.4l-.63.46-.23-.57.86-.64V10Z" transform="translate(-3.96 -9.1)"/><path class="cls-2" d="M89.88,10V14.8a2.64,2.64,0,0,1-.79,2.09,2.65,2.65,0,0,1-1.8.59,2.57,2.57,0,0,1-2-.76,2.74,2.74,0,0,1-.62-1.92V10h1.19v4.79c0,1.15.48,1.72,1.45,1.72s1.45-.57,1.45-1.72V10Z" transform="translate(-3.96 -9.1)"/><path class="cls-2" d="M96.71,12l-1.16.29c-.17-1-.65-1.46-1.42-1.46a1.45,1.45,0,0,0-1.32.81,4.08,4.08,0,0,0-.42,2,3.8,3.8,0,0,0,.53,2.2,1.41,1.41,0,0,0,1.19.62c.9,0,1.41-.67,1.53-2H94v-1h2.72v3.87H96l-.13-1.07A1.94,1.94,0,0,1,94,17.49a2.51,2.51,0,0,1-2.17-1.12,4.67,4.67,0,0,1-.69-2.68,4.22,4.22,0,0,1,.94-2.95,2.64,2.64,0,0,1,2-.87,2.55,2.55,0,0,1,1.82.66A2.92,2.92,0,0,1,96.71,12Z" transform="translate(-3.96 -9.1)"/><path class="cls-2" d="M99.46,10v7.35h-1.2V10Z" transform="translate(-3.96 -9.1)"/><path class="cls-2" d="M103.62,10h2.45a2.61,2.61,0,0,1,1.88.55,1.67,1.67,0,0,1,.46,1.28,1.53,1.53,0,0,1-.42,1.11,1.62,1.62,0,0,1-.94.49v.06a1.91,1.91,0,0,1,1.22.67,1.73,1.73,0,0,1,.35,1.11,1.89,1.89,0,0,1-.71,1.6,2.77,2.77,0,0,1-1.72.48h-2.57Zm1.17,1V13h1a1.59,1.59,0,0,0,1.1-.33,1,1,0,0,0,.3-.74.87.87,0,0,0-.33-.77,1.66,1.66,0,0,0-1-.22Zm0,3v2.41h1.27a1.44,1.44,0,0,0,1.07-.36,1.22,1.22,0,0,0,.29-.86,1,1,0,0,0-.45-.91,1.78,1.78,0,0,0-1.06-.28Z" transform="translate(-3.96 -9.1)"/><path class="cls-2" d="M112.81,10l2.12,7.35h-1.25l-.58-2.16H111l-.59,2.16h-1.13l2.1-7.35Zm.08,4.24-.41-1.49c0-.21-.18-.81-.4-1.81H112q-.23,1-.42,1.8l-.37,1.5Z" transform="translate(-3.96 -9.1)"/><path class="cls-2" d="M121.21,10v7.35h-1.46l-1.66-3.79c-.35-.81-.68-1.62-1-2.43H117c0,.82.06,1.7.06,2.66v3.56H116V10h1.79l1.43,3.26a26.18,26.18,0,0,1,.91,2.52h.12c-.06-1-.09-1.9-.09-2.69V10Z" transform="translate(-3.96 -9.1)"/><path class="cls-2" d="M128,10l-2.37,2.92,2.58,4.43h-1.36l-2-3.53-.8,1v2.57h-1.17V10H124v3.36L126.61,10Z" transform="translate(-3.96 -9.1)"/><path class="cls-2" d="M131.6,9.87A2.57,2.57,0,0,1,133.83,11a4.56,4.56,0,0,1,.71,2.67,4.29,4.29,0,0,1-.92,2.95,2.61,2.61,0,0,1-2,.88,2.56,2.56,0,0,1-2.22-1.13,4.56,4.56,0,0,1-.71-2.67,4.29,4.29,0,0,1,.92-2.95A2.58,2.58,0,0,1,131.6,9.87Zm0,1a1.39,1.39,0,0,0-1.27.8,4.24,4.24,0,0,0-.41,2,3.78,3.78,0,0,0,.53,2.2,1.35,1.35,0,0,0,1.15.62,1.38,1.38,0,0,0,1.27-.81,4.19,4.19,0,0,0,.4-2,3.79,3.79,0,0,0-.52-2.21A1.33,1.33,0,0,0,131.6,10.85Z" transform="translate(-3.96 -9.1)"/><path class="cls-2" d="M142.72,10l-1.37,7.35h-1.47l-.59-3.42c-.07-.38-.19-1.3-.38-2.76h-.12c-.17,1.3-.3,2.21-.38,2.72l-.56,3.46h-1.47L135.05,10h1.21l.49,3.36c.14,1,.26,1.89.35,2.72h.12c0-.21.07-.51.12-.91.1-.81.18-1.4.25-1.79l.55-3.38h1.53l.57,3.49c.14.88.26,1.75.34,2.59h.13c0-.21.08-.69.18-1.43.06-.48.11-.88.16-1.21l.53-3.44Z" transform="translate(-3.96 -9.1)"/><path class="cls-2" d="M148.27,10v1h-3.34V13H148v1h-3.1v2.37h3.41v1h-4.6V10Z" transform="translate(-3.96 -9.1)"/><path class="cls-2" d="M70.41,25.25v7.39h-.56v-.76a1.58,1.58,0,0,1-1.4.89,1.6,1.6,0,0,1-1.4-.8,3.3,3.3,0,0,1-.47-1.84,3.07,3.07,0,0,1,.59-2,1.56,1.56,0,0,1,1.25-.6,1.61,1.61,0,0,1,1.41.87V25.25Zm-.58,3.83a1.48,1.48,0,0,0-1.32-1,1.14,1.14,0,0,0-1,.6,2.82,2.82,0,0,0-.33,1.46,2.52,2.52,0,0,0,.45,1.62,1.14,1.14,0,0,0,.94.48,1.5,1.5,0,0,0,1.27-1Z" transform="translate(-3.96 -9.1)"/><path class="cls-2" d="M73.93,27.54a1.71,1.71,0,0,1,1.48.79,3.13,3.13,0,0,1,.49,1.8,3,3,0,0,1-.63,2A1.78,1.78,0,0,1,72.43,32,3.14,3.14,0,0,1,72,30.16a3,3,0,0,1,.63-2A1.7,1.7,0,0,1,73.93,27.54Zm0,.51a1.16,1.16,0,0,0-1.06.62,2.86,2.86,0,0,0-.33,1.47A2.72,2.72,0,0,0,73,31.78a1.14,1.14,0,0,0,1,.48A1.17,1.17,0,0,0,75,31.63a3,3,0,0,0,.32-1.49,2.71,2.71,0,0,0-.41-1.61A1.17,1.17,0,0,0,73.93,28.05Z" transform="translate(-3.96 -9.1)"/><path class="cls-2" d="M80.54,28.72l-.56.21a1.1,1.1,0,0,0-1.13-.9,1.2,1.2,0,0,0-.82.25.69.69,0,0,0-.24.55.75.75,0,0,0,.24.61,2,2,0,0,0,.78.31l.37.09a2.35,2.35,0,0,1,1.19.57,1.29,1.29,0,0,1,.29.89,1.33,1.33,0,0,1-.49,1.09,2,2,0,0,1-1.27.38,1.77,1.77,0,0,1-1.84-1.21l.56-.23a1.25,1.25,0,0,0,1.29,1,1.3,1.3,0,0,0,1-.32.81.81,0,0,0,.23-.6.84.84,0,0,0-.24-.67,2.43,2.43,0,0,0-.86-.34l-.38-.09a2.09,2.09,0,0,1-1.12-.56,1.22,1.22,0,0,1-.25-.82,1.18,1.18,0,0,1,.46-1,1.78,1.78,0,0,1,1.16-.35A1.65,1.65,0,0,1,80.54,28.72Z" transform="translate(-3.96 -9.1)"/><path class="cls-2" d="M83,25.88v1.78h1.17v.5H83V31.4c0,.59.23.88.69.88a3.07,3.07,0,0,0,.6-.07l0,.5a3.23,3.23,0,0,1-.66.06c-.78,0-1.17-.42-1.17-1.25V28.16h-.8v-.5h.8V26Z" transform="translate(-3.96 -9.1)"/><path class="cls-2" d="M85.33,28.82a1.75,1.75,0,0,1,1.83-1.28,1.46,1.46,0,0,1,1.65,1.65V31a10.16,10.16,0,0,0,.11,1.69h-.54a7.12,7.12,0,0,1-.11-.87,1.88,1.88,0,0,1-1.67,1,1.41,1.41,0,0,1-1.13-.46,1.49,1.49,0,0,1-.34-1c0-.9.53-1.45,1.57-1.63a11.26,11.26,0,0,1,1.55-.16v-.27a1.36,1.36,0,0,0-.29-1,1.15,1.15,0,0,0-.81-.24,1.22,1.22,0,0,0-1.28,1ZM88.25,30a8.7,8.7,0,0,0-1.42.16c-.75.17-1.12.55-1.12,1.15A1,1,0,0,0,86,32a1,1,0,0,0,.7.24,1.79,1.79,0,0,0,1.55-1.08Z" transform="translate(-3.96 -9.1)"/><path class="cls-2" d="M92.76,27.54l-.05.62a1.23,1.23,0,0,0-.91.45,2.77,2.77,0,0,0-.59,1.12v2.91h-.56v-5h.55V29a2.46,2.46,0,0,1,.73-1.12A1.32,1.32,0,0,1,92.76,27.54Z" transform="translate(-3.96 -9.1)"/><path class="cls-2" d="M97.43,29l-.57.18c-.17-.74-.56-1.1-1.18-1.1a1.16,1.16,0,0,0-1.06.62,2.86,2.86,0,0,0-.32,1.47,2.72,2.72,0,0,0,.42,1.64,1.14,1.14,0,0,0,1,.48c.65,0,1.06-.37,1.23-1.12l.55.2a1.76,1.76,0,0,1-1.78,1.43,1.72,1.72,0,0,1-1.5-.8,3.1,3.1,0,0,1-.48-1.81,3,3,0,0,1,.62-2,1.73,1.73,0,0,1,1.36-.62,1.69,1.69,0,0,1,1.15.41A2,2,0,0,1,97.43,29Z" transform="translate(-3.96 -9.1)"/><path class="cls-2" d="M101.64,27.66v.42L99,32.16h2.74v.48H98.32v-.43L101,28.15H98.46v-.49Z" transform="translate(-3.96 -9.1)"/><path class="cls-2" d="M103,28.82a1.73,1.73,0,0,1,1.82-1.28,1.46,1.46,0,0,1,1.65,1.65V31a11.37,11.37,0,0,0,.11,1.69H106a7.58,7.58,0,0,1-.1-.87,1.9,1.9,0,0,1-1.68,1,1.42,1.42,0,0,1-1.13-.46,1.48,1.48,0,0,1-.33-1c0-.9.52-1.45,1.57-1.63a11.09,11.09,0,0,1,1.54-.16v-.27a1.32,1.32,0,0,0-.29-1,1.15,1.15,0,0,0-.81-.24,1.21,1.21,0,0,0-1.27,1ZM105.88,30a8.82,8.82,0,0,0-1.42.16c-.74.17-1.11.55-1.11,1.15a.92.92,0,0,0,.29.75,1,1,0,0,0,.69.24,1.79,1.79,0,0,0,1.55-1.08Z" transform="translate(-3.96 -9.1)"/><path class="cls-2" d="M108.84,27.66v.93a2.17,2.17,0,0,1,1.7-1.05,1.2,1.2,0,0,1,1,.42,1.49,1.49,0,0,1,.32,1v3.69h-.59V29.2c0-.73-.28-1.1-.86-1.1a2,2,0,0,0-1.53,1v3.5h-.58v-5Z" transform="translate(-3.96 -9.1)"/><path class="cls-2" d="M117.31,30.2h-3.37a2.45,2.45,0,0,0,.47,1.61,1.28,1.28,0,0,0,1,.47,1.3,1.3,0,0,0,1.32-1.07l.54.22a1.85,1.85,0,0,1-1.87,1.34,1.8,1.8,0,0,1-1.54-.8,3.05,3.05,0,0,1-.5-1.81,3,3,0,0,1,.64-2,1.73,1.73,0,0,1,1.35-.62,1.75,1.75,0,0,1,1.47.76,3,3,0,0,1,.48,1.74Zm-.57-.47a2.14,2.14,0,0,0-.48-1.31,1.16,1.16,0,0,0-.89-.38,1.21,1.21,0,0,0-1,.52,2.09,2.09,0,0,0-.39,1.17Z" transform="translate(-3.96 -9.1)"/><path class="cls-2" d="M122.07,27.66v.8a1.63,1.63,0,0,1,1.43-.92,1.59,1.59,0,0,1,1.38.77,3.34,3.34,0,0,1,.46,1.82,3,3,0,0,1-.62,2,1.59,1.59,0,0,1-1.27.62,1.54,1.54,0,0,1-1.37-.91v2.59h-.57V27.66Zm0,1.42v2.19a1.53,1.53,0,0,0,1.29,1,1.15,1.15,0,0,0,1-.62,2.7,2.7,0,0,0,.35-1.48,2.77,2.77,0,0,0-.41-1.62,1.1,1.1,0,0,0-.91-.46A1.54,1.54,0,0,0,122.08,29.08Z" transform="translate(-3.96 -9.1)"/><path class="cls-2" d="M129,27.54l0,.62a1.21,1.21,0,0,0-.9.45,2.55,2.55,0,0,0-.59,1.12v2.91h-.57v-5h.55V29a2.46,2.46,0,0,1,.73-1.12A1.32,1.32,0,0,1,129,27.54Z" transform="translate(-3.96 -9.1)"/><path class="cls-2" d="M133.1,27.66v.42l-2.68,4.08h2.75v.48h-3.4v-.43l2.67-4.06h-2.52v-.49Z" transform="translate(-3.96 -9.1)"/><path class="cls-2" d="M138.19,30.2h-3.37a2.45,2.45,0,0,0,.47,1.61,1.27,1.27,0,0,0,1,.47,1.28,1.28,0,0,0,1.31-1.07l.54.22a1.83,1.83,0,0,1-1.86,1.34,1.8,1.8,0,0,1-1.54-.8,3.05,3.05,0,0,1-.5-1.81,3,3,0,0,1,.64-2,1.73,1.73,0,0,1,1.35-.62,1.75,1.75,0,0,1,1.47.76,3,3,0,0,1,.48,1.74Zm-.58-.47a2.14,2.14,0,0,0-.47-1.31,1.16,1.16,0,0,0-.89-.38,1.21,1.21,0,0,0-1,.52,2.09,2.09,0,0,0-.39,1.17Z" transform="translate(-3.96 -9.1)"/><path class="cls-2" d="M142.56,27.66v.42l-2.68,4.08h2.75v.48h-3.4v-.43l2.67-4.06h-2.53v-.49Z" transform="translate(-3.96 -9.1)"/><path class="cls-2" d="M149.14,25.38l2.24,7.26h-.65L150,30.25h-2.55l-.74,2.39h-.61l2.24-7.26Zm.73,4.34-.56-1.9q-.3-1-.54-1.92h-.09c-.16.65-.33,1.28-.52,1.91l-.56,1.91Z" transform="translate(-3.96 -9.1)"/><path class="cls-2" d="M153.27,25.25v7.39h-.58V25.25Z" transform="translate(-3.96 -9.1)"/><path class="cls-2" d="M155.84,25.66v.93H155v-.93Zm-.14,2v5h-.57v-5Z" transform="translate(-3.96 -9.1)"/><path class="cls-2" d="M159.24,27.54a1.7,1.7,0,0,1,1.48.79,3.06,3.06,0,0,1,.49,1.8,3,3,0,0,1-.63,2,1.77,1.77,0,0,1-2.83-.17,3.15,3.15,0,0,1-.49-1.81,3,3,0,0,1,.63-2A1.73,1.73,0,0,1,159.24,27.54Zm0,.51a1.14,1.14,0,0,0-1.05.62,2.86,2.86,0,0,0-.33,1.47,2.72,2.72,0,0,0,.42,1.64,1.14,1.14,0,0,0,.95.48,1.17,1.17,0,0,0,1.06-.63,2.89,2.89,0,0,0,.33-1.49,2.64,2.64,0,0,0-.42-1.61A1.14,1.14,0,0,0,159.24,28.05Z" transform="translate(-3.96 -9.1)"/><path class="cls-2" d="M164.89,27.54l0,.62a1.23,1.23,0,0,0-.91.45,2.77,2.77,0,0,0-.59,1.12v2.91h-.56v-5h.55V29a2.46,2.46,0,0,1,.73-1.12A1.3,1.3,0,0,1,164.89,27.54Z" transform="translate(-3.96 -9.1)"/><path class="cls-2" d="M168.92,25.38h2.17a2.49,2.49,0,0,1,1.78.52,1.65,1.65,0,0,1,.45,1.25,1.52,1.52,0,0,1-.47,1.14,2,2,0,0,1-1.06.48v.05a2.06,2.06,0,0,1,1.35.65,1.72,1.72,0,0,1,.39,1.15,1.85,1.85,0,0,1-.69,1.56,2.62,2.62,0,0,1-1.62.46h-2.3Zm.61.55v2.6h1.32a2.18,2.18,0,0,0,1.43-.41,1.19,1.19,0,0,0,.41-.93,1.11,1.11,0,0,0-.42-1,2.27,2.27,0,0,0-1.26-.27Zm0,3.15v3h1.6c1.18,0,1.76-.49,1.76-1.49a1.31,1.31,0,0,0-.58-1.15,2.43,2.43,0,0,0-1.43-.37Z" transform="translate(-3.96 -9.1)"/><path class="cls-2" d="M175,28.82a1.73,1.73,0,0,1,1.82-1.28,1.46,1.46,0,0,1,1.65,1.65V31a11.37,11.37,0,0,0,.11,1.69H178a7.12,7.12,0,0,1-.11-.87,1.9,1.9,0,0,1-1.68,1,1.42,1.42,0,0,1-1.13-.46,1.48,1.48,0,0,1-.33-1c0-.9.52-1.45,1.57-1.63a11.09,11.09,0,0,1,1.54-.16v-.27a1.32,1.32,0,0,0-.29-1,1.14,1.14,0,0,0-.8-.24,1.22,1.22,0,0,0-1.28,1ZM177.9,30a8.82,8.82,0,0,0-1.42.16c-.74.17-1.11.55-1.11,1.15a.92.92,0,0,0,.29.75,1,1,0,0,0,.69.24,1.79,1.79,0,0,0,1.55-1.08Z" transform="translate(-3.96 -9.1)"/><path class="cls-2" d="M180.86,27.66v.93a2.17,2.17,0,0,1,1.7-1.05,1.2,1.2,0,0,1,1,.42,1.49,1.49,0,0,1,.32,1v3.69h-.58V29.2c0-.73-.29-1.1-.87-1.1a2,2,0,0,0-1.53,1v3.5h-.58v-5Z" transform="translate(-3.96 -9.1)"/><path class="cls-2" d="M189.23,27.66l-1.64,1.89,1.78,3.09h-.65L187.2,30l-.93,1v1.65h-.58V25.25h.58V30.3l2.26-2.64Z" transform="translate(-3.96 -9.1)"/></svg>