<svg id="Warstwa_1" data-name="Warstwa 1" xmlns="http://www.w3.org/2000/svg" xmlns:xlink="http://www.w3.org/1999/xlink" viewBox="0 0 101.6 33.38"><defs><style>.cls-1,.cls-2,.cls-3{fill-rule:evenodd;}.cls-1{fill:url(#Gradient_bez_nazwy);}.cls-2{fill:url(#Gradient_bez_nazwy_2);}.cls-3{fill:url(#Gradient_bez_nazwy_3);}.cls-4{fill:url(#Gradient_bez_nazwy_4);}</style><linearGradient id="Gradient_bez_nazwy" x1="14.57" y1="1066.24" x2="50.66" y2="1066.24" gradientTransform="translate(-14.57 -1049.03)" gradientUnits="userSpaceOnUse"><stop offset="0" stop-color="#282862"/><stop offset="1" stop-color="#29306f"/></linearGradient><linearGradient id="Gradient_bez_nazwy_2" x1="44.96" y1="1066.24" x2="63.68" y2="1066.24" gradientTransform="translate(-14.57 -1049.03)" gradientUnits="userSpaceOnUse"><stop offset="0" stop-color="#2a306f"/><stop offset="0.66" stop-color="#2a3477"/><stop offset="1" stop-color="#2a377e"/></linearGradient><linearGradient id="Gradient_bez_nazwy_3" x1="85.33" y1="1066.57" x2="116.17" y2="1066.57" gradientTransform="translate(-14.57 -1049.03)" gradientUnits="userSpaceOnUse"><stop offset="0" stop-color="#2a3884"/><stop offset="1" stop-color="#293a8d"/></linearGradient><linearGradient id="Gradient_bez_nazwy_4" x1="59.4" y1="1066.65" x2="89.69" y2="1066.65" gradientTransform="translate(-14.57 -1049.03)" gradientUnits="userSpaceOnUse"><stop offset="0" stop-color="#2a3479"/><stop offset="0.18" stop-color="#2a367c"/><stop offset="1" stop-color="#2a377e"/></linearGradient></defs><title>Visa</title><path id="path3071" class="cls-1" d="M5.72,1.34H0v1H0C4.47,2.48,5.8,4.58,6.29,7L8.93,33.08h8.66L36.09,1.34H27.43L16.31,20.44,14.43,1.34Z" transform="translate(0 -0.93)"/><path id="rect3086" class="cls-2" d="M40.7,1.33h8.41L38.8,33.08H30.43Z" transform="translate(0 -0.93)"/><path id="path3089" class="cls-3" d="M87,2,70.76,33.08h9.12l2.37-4.75H92.83l.37,4.75h8.4L99.22,2Zm4.42,8,1,13.17H84.86Z" transform="translate(0 -0.93)"/><path id="path3105" class="cls-4" d="M51.17,9.41c1.26-5,5.4-8.48,12.45-8.48a19.7,19.7,0,0,1,11.5,4.15l-5,5.24s-3.69-2.89-5.87-2.89c-2.87,0-4.17,1.05-4.44,2.78-.53,3.44,11.73,5.54,11.34,13.56-.26,5.35-5.8,10.54-12.13,10.54-9.5,0-14.19-3.8-14.19-3.8l4.28-6.11s4.32,3.44,8.32,3.25c2.73-.12,4.82-1.17,4.68-3-.32-4.18-13.22-6.1-10.94-15.23Z" transform="translate(0 -0.93)"/></svg>