<?xml version="1.0" encoding="UTF-8"?><svg xmlns="http://www.w3.org/2000/svg" xmlns:xlink="http://www.w3.org/1999/xlink" contentScriptType="text/ecmascript" width="252pt" zoomAndPan="magnify" contentStyleType="text/css" viewBox="0 0 252 143.999998" height="143.999998pt" preserveAspectRatio="xMidYMid meet" version="1.2"><defs><g/><clipPath xml:id="clip1" id="clip1"><path d="M 0 17.394531 L 68.476562 17.394531 L 68.476562 130.644531 L 0 130.644531 Z M 0 17.394531 "/></clipPath></defs><g xml:id="surface1" id="surface1"><g clip-rule="nonzero" clip-path="url(#clip1)"><path style=" stroke:none;fill-rule:nonzero;fill:rgb(45.098877%,45.098877%,45.098877%);fill-opacity:1;" d="M 68.476562 74.019531 L -0.523438 130.597656 L -0.523438 17.4375 L 33.976562 45.730469 Z M 68.476562 74.019531 "/></g><g style="fill:rgb(100%,96.859741%,18.03894%);fill-opacity:1;"><g transform="translate(0.567993, 129.193539)"><path style="stroke:none;" d="M 30.90625 -112.109375 C 39.769531 -112.109375 46.175781 -109.675781 50.125 -104.8125 C 54.082031 -99.957031 56.0625 -93.257812 56.0625 -84.71875 L 56.0625 -71.265625 C 56.0625 -62.296875 53.953125 -55.539062 49.734375 -51 C 45.515625 -46.46875 38.921875 -44.203125 29.953125 -44.203125 L 18.90625 -44.203125 L 18.90625 0 L 6.40625 0 L 6.40625 -112.109375 Z M 29.953125 -55.421875 C 34.648438 -55.421875 38.117188 -56.566406 40.359375 -58.859375 C 42.597656 -61.148438 43.71875 -65.019531 43.71875 -70.46875 L 43.71875 -85.359375 C 43.71875 -90.484375 42.726562 -94.328125 40.75 -96.890625 C 38.78125 -99.453125 35.5 -100.734375 30.90625 -100.734375 L 18.90625 -100.734375 L 18.90625 -55.421875 Z M 29.953125 -55.421875 "/></g></g><g style="fill:rgb(100%,96.859741%,18.03894%);fill-opacity:1;"><g transform="translate(19.81281, 129.193539)"><path style="stroke:none;" d="M 5.453125 -85.046875 C 5.453125 -93.691406 7.554688 -100.550781 11.765625 -105.625 C 15.984375 -110.695312 22.421875 -113.234375 31.078125 -113.234375 C 39.722656 -113.234375 46.179688 -110.695312 50.453125 -105.625 C 54.722656 -100.550781 56.859375 -93.691406 56.859375 -85.046875 L 56.859375 -27.0625 C 56.859375 -18.519531 54.722656 -11.6875 50.453125 -6.5625 C 46.179688 -1.4375 39.722656 1.125 31.078125 1.125 C 22.421875 1.125 15.984375 -1.4375 11.765625 -6.5625 C 7.554688 -11.6875 5.453125 -18.519531 5.453125 -27.0625 Z M 17.78125 -26.421875 C 17.78125 -21.296875 18.875 -17.316406 21.0625 -14.484375 C 23.25 -11.660156 26.585938 -10.25 31.078125 -10.25 C 35.660156 -10.25 39.019531 -11.660156 41.15625 -14.484375 C 43.289062 -17.316406 44.359375 -21.296875 44.359375 -26.421875 L 44.359375 -85.6875 C 44.359375 -90.8125 43.289062 -94.785156 41.15625 -97.609375 C 39.019531 -100.441406 35.660156 -101.859375 31.078125 -101.859375 C 26.585938 -101.859375 23.25 -100.441406 21.0625 -97.609375 C 18.875 -94.785156 17.78125 -90.8125 17.78125 -85.6875 Z M 17.78125 -26.421875 "/></g></g><g style="fill:rgb(100%,96.859741%,18.03894%);fill-opacity:1;"><g transform="translate(84.0483, 130.469819)"><path style="stroke:none;" d="M 2.28125 -35.625 C 2.28125 -39.25 3.160156 -42.125 4.921875 -44.25 C 6.691406 -46.375 9.390625 -47.4375 13.015625 -47.4375 C 16.640625 -47.4375 19.34375 -46.375 21.125 -44.25 C 22.914062 -42.125 23.8125 -39.25 23.8125 -35.625 L 23.8125 -11.34375 C 23.8125 -7.757812 22.914062 -4.894531 21.125 -2.75 C 19.34375 -0.601562 16.640625 0.46875 13.015625 0.46875 C 9.390625 0.46875 6.691406 -0.601562 4.921875 -2.75 C 3.160156 -4.894531 2.28125 -7.757812 2.28125 -11.34375 Z M 7.453125 -11.078125 C 7.453125 -8.921875 7.910156 -7.25 8.828125 -6.0625 C 9.742188 -4.882812 11.140625 -4.296875 13.015625 -4.296875 C 14.941406 -4.296875 16.347656 -4.882812 17.234375 -6.0625 C 18.128906 -7.25 18.578125 -8.921875 18.578125 -11.078125 L 18.578125 -35.890625 C 18.578125 -38.035156 18.128906 -39.703125 17.234375 -40.890625 C 16.347656 -42.078125 14.941406 -42.671875 13.015625 -42.671875 C 11.140625 -42.671875 9.742188 -42.078125 8.828125 -40.890625 C 7.910156 -39.703125 7.453125 -38.035156 7.453125 -35.890625 Z M 7.453125 -11.078125 "/></g></g><g style="fill:rgb(100%,96.859741%,18.03894%);fill-opacity:1;"><g transform="translate(107.059753, 130.469819)"><path style="stroke:none;" d="M 12.546875 -47.4375 C 16.117188 -47.4375 18.753906 -46.375 20.453125 -44.25 C 22.160156 -42.125 23.015625 -39.269531 23.015625 -35.6875 L 23.015625 -34.421875 L 18.046875 -34.421875 L 18.046875 -35.96875 C 18.046875 -38.113281 17.617188 -39.765625 16.765625 -40.921875 C 15.921875 -42.085938 14.5625 -42.671875 12.6875 -42.671875 C 10.800781 -42.671875 9.429688 -42.085938 8.578125 -40.921875 C 7.734375 -39.765625 7.3125 -38.132812 7.3125 -36.03125 C 7.3125 -34.28125 7.703125 -32.753906 8.484375 -31.453125 C 9.265625 -30.160156 10.238281 -28.96875 11.40625 -27.875 C 12.570312 -26.78125 13.835938 -25.707031 15.203125 -24.65625 C 16.566406 -23.601562 17.828125 -22.453125 18.984375 -21.203125 C 20.148438 -19.953125 21.125 -18.53125 21.90625 -16.9375 C 22.6875 -15.351562 23.078125 -13.460938 23.078125 -11.265625 C 23.078125 -7.691406 22.210938 -4.84375 20.484375 -2.71875 C 18.765625 -0.59375 16.097656 0.46875 12.484375 0.46875 C 8.859375 0.46875 6.195312 -0.59375 4.5 -2.71875 C 2.800781 -4.84375 1.953125 -7.691406 1.953125 -11.265625 L 1.953125 -13.953125 L 6.84375 -13.953125 L 6.84375 -11 C 6.84375 -8.851562 7.289062 -7.195312 8.1875 -6.03125 C 9.082031 -4.875 10.46875 -4.296875 12.34375 -4.296875 C 14.21875 -4.296875 15.601562 -4.875 16.5 -6.03125 C 17.394531 -7.195312 17.84375 -8.851562 17.84375 -11 C 17.84375 -12.75 17.453125 -14.257812 16.671875 -15.53125 C 15.890625 -16.800781 14.914062 -17.984375 13.75 -19.078125 C 12.59375 -20.179688 11.34375 -21.257812 10 -22.3125 C 8.65625 -23.363281 7.398438 -24.515625 6.234375 -25.765625 C 5.078125 -27.015625 4.101562 -28.429688 3.3125 -30.015625 C 2.53125 -31.609375 2.140625 -33.5 2.140625 -35.6875 C 2.140625 -39.3125 2.988281 -42.175781 4.6875 -44.28125 C 6.394531 -46.382812 9.015625 -47.4375 12.546875 -47.4375 Z M 12.546875 -47.4375 "/></g></g><g style="fill:rgb(100%,96.859741%,18.03894%);fill-opacity:1;"><g transform="translate(128.930677, 130.469819)"><path style="stroke:none;" d="M 2.28125 -35.625 C 2.28125 -39.25 3.160156 -42.125 4.921875 -44.25 C 6.691406 -46.375 9.390625 -47.4375 13.015625 -47.4375 C 16.640625 -47.4375 19.34375 -46.375 21.125 -44.25 C 22.914062 -42.125 23.8125 -39.25 23.8125 -35.625 L 23.8125 -11.34375 C 23.8125 -7.757812 22.914062 -4.894531 21.125 -2.75 C 19.34375 -0.601562 16.640625 0.46875 13.015625 0.46875 C 9.390625 0.46875 6.691406 -0.601562 4.921875 -2.75 C 3.160156 -4.894531 2.28125 -7.757812 2.28125 -11.34375 Z M 7.453125 -11.078125 C 7.453125 -8.921875 7.910156 -7.25 8.828125 -6.0625 C 9.742188 -4.882812 11.140625 -4.296875 13.015625 -4.296875 C 14.941406 -4.296875 16.347656 -4.882812 17.234375 -6.0625 C 18.128906 -7.25 18.578125 -8.921875 18.578125 -11.078125 L 18.578125 -35.890625 C 18.578125 -38.035156 18.128906 -39.703125 17.234375 -40.890625 C 16.347656 -42.078125 14.941406 -42.671875 13.015625 -42.671875 C 11.140625 -42.671875 9.742188 -42.078125 8.828125 -40.890625 C 7.910156 -39.703125 7.453125 -38.035156 7.453125 -35.890625 Z M 7.453125 -11.078125 "/></g></g><g style="fill:rgb(100%,96.859741%,18.03894%);fill-opacity:1;"><g transform="translate(151.942133, 130.469819)"><path style="stroke:none;" d="M 13.21875 -46.96875 C 16.882812 -46.96875 19.5 -46.101562 21.0625 -44.375 C 22.632812 -42.65625 23.421875 -40.050781 23.421875 -36.5625 L 23.421875 -34.359375 C 23.421875 -31.847656 23.015625 -29.820312 22.203125 -28.28125 C 21.398438 -26.738281 19.96875 -25.65625 17.90625 -25.03125 C 20.1875 -24.40625 21.804688 -23.21875 22.765625 -21.46875 C 23.734375 -19.726562 24.21875 -17.5625 24.21875 -14.96875 L 24.21875 -11 C 24.21875 -7.46875 23.34375 -4.75 21.59375 -2.84375 C 19.851562 -0.945312 17.148438 0 13.484375 0 L 2.6875 0 L 2.6875 -46.96875 Z M 11.9375 -27.03125 C 14.039062 -27.03125 15.617188 -27.457031 16.671875 -28.3125 C 17.722656 -29.164062 18.25 -30.820312 18.25 -33.28125 L 18.25 -36.03125 C 18.25 -38.132812 17.859375 -39.6875 17.078125 -40.6875 C 16.296875 -41.695312 14.960938 -42.203125 13.078125 -42.203125 L 7.921875 -42.203125 L 7.921875 -27.03125 Z M 13.484375 -4.765625 C 17.191406 -4.765625 19.046875 -6.890625 19.046875 -11.140625 L 19.046875 -15.296875 C 19.046875 -17.929688 18.519531 -19.753906 17.46875 -20.765625 C 16.425781 -21.773438 14.765625 -22.28125 12.484375 -22.28125 L 7.921875 -22.28125 L 7.921875 -4.765625 Z M 13.484375 -4.765625 "/></g></g><g style="fill:rgb(100%,96.859741%,18.03894%);fill-opacity:1;"><g transform="translate(175.154852, 130.469819)"><path style="stroke:none;" d="M 7.921875 -46.96875 L 7.921875 0 L 2.6875 0 L 2.6875 -46.96875 Z M 7.921875 -46.96875 "/></g></g><g style="fill:rgb(100%,96.859741%,18.03894%);fill-opacity:1;"><g transform="translate(182.668533, 130.469819)"><path style="stroke:none;" d="M 12.546875 -47.4375 C 16.117188 -47.4375 18.753906 -46.375 20.453125 -44.25 C 22.160156 -42.125 23.015625 -39.269531 23.015625 -35.6875 L 23.015625 -34.421875 L 18.046875 -34.421875 L 18.046875 -35.96875 C 18.046875 -38.113281 17.617188 -39.765625 16.765625 -40.921875 C 15.921875 -42.085938 14.5625 -42.671875 12.6875 -42.671875 C 10.800781 -42.671875 9.429688 -42.085938 8.578125 -40.921875 C 7.734375 -39.765625 7.3125 -38.132812 7.3125 -36.03125 C 7.3125 -34.28125 7.703125 -32.753906 8.484375 -31.453125 C 9.265625 -30.160156 10.238281 -28.96875 11.40625 -27.875 C 12.570312 -26.78125 13.835938 -25.707031 15.203125 -24.65625 C 16.566406 -23.601562 17.828125 -22.453125 18.984375 -21.203125 C 20.148438 -19.953125 21.125 -18.53125 21.90625 -16.9375 C 22.6875 -15.351562 23.078125 -13.460938 23.078125 -11.265625 C 23.078125 -7.691406 22.210938 -4.84375 20.484375 -2.71875 C 18.765625 -0.59375 16.097656 0.46875 12.484375 0.46875 C 8.859375 0.46875 6.195312 -0.59375 4.5 -2.71875 C 2.800781 -4.84375 1.953125 -7.691406 1.953125 -11.265625 L 1.953125 -13.953125 L 6.84375 -13.953125 L 6.84375 -11 C 6.84375 -8.851562 7.289062 -7.195312 8.1875 -6.03125 C 9.082031 -4.875 10.46875 -4.296875 12.34375 -4.296875 C 14.21875 -4.296875 15.601562 -4.875 16.5 -6.03125 C 17.394531 -7.195312 17.84375 -8.851562 17.84375 -11 C 17.84375 -12.75 17.453125 -14.257812 16.671875 -15.53125 C 15.890625 -16.800781 14.914062 -17.984375 13.75 -19.078125 C 12.59375 -20.179688 11.34375 -21.257812 10 -22.3125 C 8.65625 -23.363281 7.398438 -24.515625 6.234375 -25.765625 C 5.078125 -27.015625 4.101562 -28.429688 3.3125 -30.015625 C 2.53125 -31.609375 2.140625 -33.5 2.140625 -35.6875 C 2.140625 -39.3125 2.988281 -42.175781 4.6875 -44.28125 C 6.394531 -46.382812 9.015625 -47.4375 12.546875 -47.4375 Z M 12.546875 -47.4375 "/></g></g><g style="fill:rgb(100%,96.859741%,18.03894%);fill-opacity:1;"><g transform="translate(204.539461, 130.469819)"><path style="stroke:none;" d="M 9.453125 0 L 9.453125 -42.203125 L 0.8125 -42.203125 L 0.8125 -46.96875 L 23.28125 -46.96875 L 23.28125 -42.203125 L 14.625 -42.203125 L 14.625 0 Z M 9.453125 0 "/></g></g><g style="fill:rgb(100%,96.859741%,18.03894%);fill-opacity:1;"><g transform="translate(225.605309, 130.469819)"><path style="stroke:none;" d="M 11 -16.84375 L 1.078125 -46.96875 L 6.515625 -46.96875 L 13.828125 -23.890625 L 21.203125 -46.96875 L 26.171875 -46.96875 L 16.171875 -16.84375 L 16.171875 0 L 11 0 Z M 11 -16.84375 "/></g></g><g style="fill:rgb(100%,96.859741%,18.03894%);fill-opacity:1;"><g transform="translate(85.210296, 71.956727)"><path style="stroke:none;" d="M 16.265625 -56.359375 C 20.722656 -56.359375 24.035156 -55.175781 26.203125 -52.8125 C 28.378906 -50.457031 29.46875 -47 29.46875 -42.4375 L 29.46875 -35.109375 C 29.46875 -30.546875 28.378906 -27.082031 26.203125 -24.71875 C 24.035156 -22.351562 20.722656 -21.171875 16.265625 -21.171875 L 12.078125 -21.171875 L 12.078125 0 L 3.21875 0 L 3.21875 -56.359375 Z M 12.078125 -48.3125 L 12.078125 -29.234375 L 16.265625 -29.234375 C 17.660156 -29.234375 18.734375 -29.609375 19.484375 -30.359375 C 20.234375 -31.109375 20.609375 -32.503906 20.609375 -34.546875 L 20.609375 -43 C 20.609375 -45.039062 20.234375 -46.4375 19.484375 -47.1875 C 18.734375 -47.9375 17.660156 -48.3125 16.265625 -48.3125 Z M 12.078125 -48.3125 "/></g></g><g style="fill:rgb(100%,96.859741%,18.03894%);fill-opacity:1;"><g transform="translate(111.856843, 71.956727)"><path style="stroke:none;" d="M 3.21875 -56.359375 L 12.078125 -56.359375 L 12.078125 -8.046875 L 26.65625 -8.046875 L 26.65625 0 L 3.21875 0 Z M 3.21875 -56.359375 "/></g></g><g style="fill:rgb(100%,96.859741%,18.03894%);fill-opacity:1;"><g transform="translate(135.444198, 71.956727)"><path style="stroke:none;" d="M 31.890625 0 L 22.953125 0 L 21.421875 -10.21875 L 10.546875 -10.21875 L 9.015625 0 L 0.890625 0 L 9.90625 -56.359375 L 22.859375 -56.359375 Z M 11.671875 -17.875 L 20.203125 -17.875 L 15.9375 -46.375 Z M 11.671875 -17.875 "/></g></g><g style="fill:rgb(100%,96.859741%,18.03894%);fill-opacity:1;"><g transform="translate(164.505894, 71.956727)"><path style="stroke:none;" d="M 11.109375 -40.828125 L 11.109375 0 L 3.140625 0 L 3.140625 -56.359375 L 14.25 -56.359375 L 23.34375 -22.625 L 23.34375 -56.359375 L 31.234375 -56.359375 L 31.234375 0 L 22.140625 0 Z M 11.109375 -40.828125 "/></g></g><g style="fill:rgb(100%,96.859741%,18.03894%);fill-opacity:1;"><g transform="translate(195.177686, 71.956727)"><path style="stroke:none;" d="M 12.078125 -32.609375 L 24.234375 -32.609375 L 24.234375 -24.5625 L 12.078125 -24.5625 L 12.078125 -8.046875 L 27.375 -8.046875 L 27.375 0 L 3.21875 0 L 3.21875 -56.359375 L 27.375 -56.359375 L 27.375 -48.3125 L 12.078125 -48.3125 Z M 12.078125 -32.609375 "/></g></g><g style="fill:rgb(100%,96.859741%,18.03894%);fill-opacity:1;"><g transform="translate(221.099685, 71.956727)"><path style="stroke:none;" d="M 21.734375 0 C 21.628906 -0.375 21.519531 -0.722656 21.40625 -1.046875 C 21.300781 -1.367188 21.207031 -1.769531 21.125 -2.25 C 21.050781 -2.738281 21 -3.359375 20.96875 -4.109375 C 20.945312 -4.859375 20.9375 -5.796875 20.9375 -6.921875 L 20.9375 -15.78125 C 20.9375 -18.40625 20.476562 -20.253906 19.5625 -21.328125 C 18.65625 -22.410156 17.179688 -22.953125 15.140625 -22.953125 L 12.078125 -22.953125 L 12.078125 0 L 3.21875 0 L 3.21875 -56.359375 L 16.59375 -56.359375 C 21.207031 -56.359375 24.546875 -55.285156 26.609375 -53.140625 C 28.671875 -50.992188 29.703125 -47.742188 29.703125 -43.390625 L 29.703125 -38.96875 C 29.703125 -33.175781 27.769531 -29.363281 23.90625 -27.53125 C 26.164062 -26.625 27.710938 -25.132812 28.546875 -23.0625 C 29.378906 -21 29.796875 -18.492188 29.796875 -15.546875 L 29.796875 -6.84375 C 29.796875 -5.445312 29.847656 -4.222656 29.953125 -3.171875 C 30.054688 -2.128906 30.320312 -1.070312 30.75 0 Z M 12.078125 -48.3125 L 12.078125 -31 L 15.546875 -31 C 17.203125 -31 18.5 -31.425781 19.4375 -32.28125 C 20.382812 -33.144531 20.859375 -34.703125 20.859375 -36.953125 L 20.859375 -42.515625 C 20.859375 -44.554688 20.492188 -46.03125 19.765625 -46.9375 C 19.035156 -47.851562 17.894531 -48.3125 16.34375 -48.3125 Z M 12.078125 -48.3125 "/></g></g><path style="fill:none;stroke-width:1;stroke-linecap:butt;stroke-linejoin:miter;stroke:rgb(45.098877%,45.098877%,45.098877%);stroke-opacity:1;stroke-miterlimit:4;" d="M -0.000792504 -0.000284472 L 71.690186 -0.000284472 " transform="matrix(2.249346,0,0,2.691588,88.482251,78.258578)"/></g></svg>