<?xml version="1.0" encoding="UTF-8"?><svg xmlns="http://www.w3.org/2000/svg" xmlns:xlink="http://www.w3.org/1999/xlink" contentScriptType="text/ecmascript" width="252pt" zoomAndPan="magnify" contentStyleType="text/css" viewBox="0 0 252 143.999998" height="143.999998pt" preserveAspectRatio="xMidYMid meet" version="1.2"><defs><g/><clipPath xml:id="clip1" id="clip1"><path d="M 0 0 L 87.75 0 L 87.75 144 L 0 144 Z M 0 0 "/></clipPath></defs><g xml:id="surface1" id="surface1"><g clip-rule="nonzero" clip-path="url(#clip1)"><path style=" stroke:none;fill-rule:nonzero;fill:rgb(100%,96.859741%,18.03894%);fill-opacity:1;" d="M 87.75 72 L 43.875 107.976562 L 0 143.949219 L 0 0.0507812 L 43.875 36.027344 Z M 87.75 72 "/></g><g style="fill:rgb(23.139954%,23.139954%,23.139954%);fill-opacity:1;"><g transform="translate(35.997337, 124.220509)"><path style="stroke:none;" d="M 5.0625 -79.171875 C 5.0625 -87.222656 7.023438 -93.609375 10.953125 -98.328125 C 14.878906 -103.054688 20.867188 -105.421875 28.921875 -105.421875 C 36.972656 -105.421875 42.988281 -103.054688 46.96875 -98.328125 C 50.945312 -93.609375 52.9375 -87.222656 52.9375 -79.171875 L 52.9375 -25.203125 C 52.9375 -17.242188 50.945312 -10.878906 46.96875 -6.109375 C 42.988281 -1.335938 36.972656 1.046875 28.921875 1.046875 C 20.867188 1.046875 14.878906 -1.335938 10.953125 -6.109375 C 7.023438 -10.878906 5.0625 -17.242188 5.0625 -25.203125 Z M 16.546875 -24.609375 C 16.546875 -19.835938 17.566406 -16.132812 19.609375 -13.5 C 21.648438 -10.863281 24.753906 -9.546875 28.921875 -9.546875 C 33.203125 -9.546875 36.332031 -10.863281 38.3125 -13.5 C 40.300781 -16.132812 41.296875 -19.835938 41.296875 -24.609375 L 41.296875 -79.78125 C 41.296875 -84.550781 40.300781 -88.25 38.3125 -90.875 C 36.332031 -93.507812 33.203125 -94.828125 28.921875 -94.828125 C 24.753906 -94.828125 21.648438 -93.507812 19.609375 -90.875 C 17.566406 -88.25 16.546875 -84.550781 16.546875 -79.78125 Z M 16.546875 -24.609375 "/></g></g><g style="fill:rgb(23.139954%,23.139954%,23.139954%);fill-opacity:1;"><g transform="translate(18.080395, 124.220509)"><path style="stroke:none;" d="M 28.78125 -104.375 C 37.03125 -104.375 42.992188 -102.113281 46.671875 -97.59375 C 50.347656 -93.070312 52.1875 -86.832031 52.1875 -78.875 L 52.1875 -66.359375 C 52.1875 -58.003906 50.222656 -51.710938 46.296875 -47.484375 C 42.367188 -43.265625 36.234375 -41.15625 27.890625 -41.15625 L 17.59375 -41.15625 L 17.59375 0 L 5.96875 0 L 5.96875 -104.375 Z M 27.890625 -51.59375 C 32.253906 -51.59375 35.476562 -52.660156 37.5625 -54.796875 C 39.65625 -56.929688 40.703125 -60.535156 40.703125 -65.609375 L 40.703125 -79.46875 C 40.703125 -84.238281 39.78125 -87.816406 37.9375 -90.203125 C 36.101562 -92.597656 33.050781 -93.796875 28.78125 -93.796875 L 17.59375 -93.796875 L 17.59375 -51.59375 Z M 27.890625 -51.59375 "/></g></g><g style="fill:rgb(23.139954%,23.139954%,23.139954%);fill-opacity:1;"><g transform="translate(95.807245, 125.362001)"><path style="stroke:none;" d="M 2.125 -33.171875 C 2.125 -36.546875 2.945312 -39.222656 4.59375 -41.203125 C 6.238281 -43.179688 8.75 -44.171875 12.125 -44.171875 C 15.488281 -44.171875 18.003906 -43.179688 19.671875 -41.203125 C 21.335938 -39.222656 22.171875 -36.546875 22.171875 -33.171875 L 22.171875 -10.5625 C 22.171875 -7.226562 21.335938 -4.5625 19.671875 -2.5625 C 18.003906 -0.5625 15.488281 0.4375 12.125 0.4375 C 8.75 0.4375 6.238281 -0.5625 4.59375 -2.5625 C 2.945312 -4.5625 2.125 -7.226562 2.125 -10.5625 Z M 6.9375 -10.3125 C 6.9375 -8.3125 7.363281 -6.757812 8.21875 -5.65625 C 9.070312 -4.550781 10.375 -4 12.125 -4 C 13.914062 -4 15.222656 -4.550781 16.046875 -5.65625 C 16.878906 -6.757812 17.296875 -8.3125 17.296875 -10.3125 L 17.296875 -33.421875 C 17.296875 -35.421875 16.878906 -36.972656 16.046875 -38.078125 C 15.222656 -39.179688 13.914062 -39.734375 12.125 -39.734375 C 10.375 -39.734375 9.070312 -39.179688 8.21875 -38.078125 C 7.363281 -36.972656 6.9375 -35.421875 6.9375 -33.421875 Z M 6.9375 -10.3125 "/></g></g><g style="fill:rgb(23.139954%,23.139954%,23.139954%);fill-opacity:1;"><g transform="translate(117.230756, 125.362001)"><path style="stroke:none;" d="M 11.6875 -44.171875 C 15.007812 -44.171875 17.460938 -43.179688 19.046875 -41.203125 C 20.628906 -39.222656 21.421875 -36.566406 21.421875 -33.234375 L 21.421875 -32.046875 L 16.796875 -32.046875 L 16.796875 -33.484375 C 16.796875 -35.484375 16.398438 -37.023438 15.609375 -38.109375 C 14.828125 -39.191406 13.5625 -39.734375 11.8125 -39.734375 C 10.0625 -39.734375 8.789062 -39.191406 8 -38.109375 C 7.207031 -37.023438 6.8125 -35.503906 6.8125 -33.546875 C 6.8125 -31.921875 7.175781 -30.503906 7.90625 -29.296875 C 8.632812 -28.085938 9.539062 -26.972656 10.625 -25.953125 C 11.707031 -24.929688 12.878906 -23.929688 14.140625 -22.953125 C 15.410156 -21.972656 16.585938 -20.898438 17.671875 -19.734375 C 18.753906 -18.566406 19.660156 -17.242188 20.390625 -15.765625 C 21.117188 -14.296875 21.484375 -12.539062 21.484375 -10.5 C 21.484375 -7.164062 20.679688 -4.507812 19.078125 -2.53125 C 17.472656 -0.550781 14.988281 0.4375 11.625 0.4375 C 8.25 0.4375 5.769531 -0.550781 4.1875 -2.53125 C 2.601562 -4.507812 1.8125 -7.164062 1.8125 -10.5 L 1.8125 -13 L 6.375 -13 L 6.375 -10.25 C 6.375 -8.25 6.789062 -6.707031 7.625 -5.625 C 8.457031 -4.539062 9.75 -4 11.5 -4 C 13.25 -4 14.535156 -4.539062 15.359375 -5.625 C 16.191406 -6.707031 16.609375 -8.25 16.609375 -10.25 C 16.609375 -11.875 16.242188 -13.273438 15.515625 -14.453125 C 14.796875 -15.640625 13.894531 -16.742188 12.8125 -17.765625 C 11.726562 -18.785156 10.5625 -19.785156 9.3125 -20.765625 C 8.0625 -21.742188 6.894531 -22.816406 5.8125 -23.984375 C 4.726562 -25.148438 3.820312 -26.472656 3.09375 -27.953125 C 2.363281 -29.429688 2 -31.191406 2 -33.234375 C 2 -36.609375 2.789062 -39.273438 4.375 -41.234375 C 5.957031 -43.191406 8.394531 -44.171875 11.6875 -44.171875 Z M 11.6875 -44.171875 "/></g></g><g style="fill:rgb(23.139954%,23.139954%,23.139954%);fill-opacity:1;"><g transform="translate(137.59244, 125.362001)"><path style="stroke:none;" d="M 2.125 -33.171875 C 2.125 -36.546875 2.945312 -39.222656 4.59375 -41.203125 C 6.238281 -43.179688 8.75 -44.171875 12.125 -44.171875 C 15.488281 -44.171875 18.003906 -43.179688 19.671875 -41.203125 C 21.335938 -39.222656 22.171875 -36.546875 22.171875 -33.171875 L 22.171875 -10.5625 C 22.171875 -7.226562 21.335938 -4.5625 19.671875 -2.5625 C 18.003906 -0.5625 15.488281 0.4375 12.125 0.4375 C 8.75 0.4375 6.238281 -0.5625 4.59375 -2.5625 C 2.945312 -4.5625 2.125 -7.226562 2.125 -10.5625 Z M 6.9375 -10.3125 C 6.9375 -8.3125 7.363281 -6.757812 8.21875 -5.65625 C 9.070312 -4.550781 10.375 -4 12.125 -4 C 13.914062 -4 15.222656 -4.550781 16.046875 -5.65625 C 16.878906 -6.757812 17.296875 -8.3125 17.296875 -10.3125 L 17.296875 -33.421875 C 17.296875 -35.421875 16.878906 -36.972656 16.046875 -38.078125 C 15.222656 -39.179688 13.914062 -39.734375 12.125 -39.734375 C 10.375 -39.734375 9.070312 -39.179688 8.21875 -38.078125 C 7.363281 -36.972656 6.9375 -35.421875 6.9375 -33.421875 Z M 6.9375 -10.3125 "/></g></g><g style="fill:rgb(23.139954%,23.139954%,23.139954%);fill-opacity:1;"><g transform="translate(159.015952, 125.362001)"><path style="stroke:none;" d="M 12.3125 -43.734375 C 15.71875 -43.734375 18.148438 -42.929688 19.609375 -41.328125 C 21.066406 -39.722656 21.796875 -37.296875 21.796875 -34.046875 L 21.796875 -31.984375 C 21.796875 -29.648438 21.421875 -27.765625 20.671875 -26.328125 C 19.921875 -24.890625 18.585938 -23.878906 16.671875 -23.296875 C 18.796875 -22.710938 20.304688 -21.609375 21.203125 -19.984375 C 22.097656 -18.359375 22.546875 -16.34375 22.546875 -13.9375 L 22.546875 -10.25 C 22.546875 -6.957031 21.734375 -4.425781 20.109375 -2.65625 C 18.484375 -0.882812 15.96875 0 12.5625 0 L 2.5 0 L 2.5 -43.734375 Z M 11.125 -25.171875 C 13.082031 -25.171875 14.546875 -25.566406 15.515625 -26.359375 C 16.492188 -27.148438 16.984375 -28.691406 16.984375 -30.984375 L 16.984375 -33.546875 C 16.984375 -35.503906 16.617188 -36.953125 15.890625 -37.890625 C 15.171875 -38.828125 13.9375 -39.296875 12.1875 -39.296875 L 7.375 -39.296875 L 7.375 -25.171875 Z M 12.5625 -4.4375 C 16.007812 -4.4375 17.734375 -6.414062 17.734375 -10.375 L 17.734375 -14.25 C 17.734375 -16.695312 17.242188 -18.390625 16.265625 -19.328125 C 15.296875 -20.265625 13.75 -20.734375 11.625 -20.734375 L 7.375 -20.734375 L 7.375 -4.4375 Z M 12.5625 -4.4375 "/></g></g><g style="fill:rgb(23.139954%,23.139954%,23.139954%);fill-opacity:1;"><g transform="translate(180.626839, 125.362001)"><path style="stroke:none;" d="M 7.375 -43.734375 L 7.375 0 L 2.5 0 L 2.5 -43.734375 Z M 7.375 -43.734375 "/></g></g><g style="fill:rgb(23.139954%,23.139954%,23.139954%);fill-opacity:1;"><g transform="translate(187.622026, 125.362001)"><path style="stroke:none;" d="M 11.6875 -44.171875 C 15.007812 -44.171875 17.460938 -43.179688 19.046875 -41.203125 C 20.628906 -39.222656 21.421875 -36.566406 21.421875 -33.234375 L 21.421875 -32.046875 L 16.796875 -32.046875 L 16.796875 -33.484375 C 16.796875 -35.484375 16.398438 -37.023438 15.609375 -38.109375 C 14.828125 -39.191406 13.5625 -39.734375 11.8125 -39.734375 C 10.0625 -39.734375 8.789062 -39.191406 8 -38.109375 C 7.207031 -37.023438 6.8125 -35.503906 6.8125 -33.546875 C 6.8125 -31.921875 7.175781 -30.503906 7.90625 -29.296875 C 8.632812 -28.085938 9.539062 -26.972656 10.625 -25.953125 C 11.707031 -24.929688 12.878906 -23.929688 14.140625 -22.953125 C 15.410156 -21.972656 16.585938 -20.898438 17.671875 -19.734375 C 18.753906 -18.566406 19.660156 -17.242188 20.390625 -15.765625 C 21.117188 -14.296875 21.484375 -12.539062 21.484375 -10.5 C 21.484375 -7.164062 20.679688 -4.507812 19.078125 -2.53125 C 17.472656 -0.550781 14.988281 0.4375 11.625 0.4375 C 8.25 0.4375 5.769531 -0.550781 4.1875 -2.53125 C 2.601562 -4.507812 1.8125 -7.164062 1.8125 -10.5 L 1.8125 -13 L 6.375 -13 L 6.375 -10.25 C 6.375 -8.25 6.789062 -6.707031 7.625 -5.625 C 8.457031 -4.539062 9.75 -4 11.5 -4 C 13.25 -4 14.535156 -4.539062 15.359375 -5.625 C 16.191406 -6.707031 16.609375 -8.25 16.609375 -10.25 C 16.609375 -11.875 16.242188 -13.273438 15.515625 -14.453125 C 14.796875 -15.640625 13.894531 -16.742188 12.8125 -17.765625 C 11.726562 -18.785156 10.5625 -19.785156 9.3125 -20.765625 C 8.0625 -21.742188 6.894531 -22.816406 5.8125 -23.984375 C 4.726562 -25.148438 3.820312 -26.472656 3.09375 -27.953125 C 2.363281 -29.429688 2 -31.191406 2 -33.234375 C 2 -36.609375 2.789062 -39.273438 4.375 -41.234375 C 5.957031 -43.191406 8.394531 -44.171875 11.6875 -44.171875 Z M 11.6875 -44.171875 "/></g></g><g style="fill:rgb(23.139954%,23.139954%,23.139954%);fill-opacity:1;"><g transform="translate(207.983715, 125.362001)"><path style="stroke:none;" d="M 8.8125 0 L 8.8125 -39.296875 L 0.75 -39.296875 L 0.75 -43.734375 L 21.671875 -43.734375 L 21.671875 -39.296875 L 13.625 -39.296875 L 13.625 0 Z M 8.8125 0 "/></g></g><g style="fill:rgb(23.139954%,23.139954%,23.139954%);fill-opacity:1;"><g transform="translate(227.595879, 125.362001)"><path style="stroke:none;" d="M 10.25 -15.671875 L 1 -43.734375 L 6.0625 -43.734375 L 12.875 -22.234375 L 19.734375 -43.734375 L 24.359375 -43.734375 L 15.0625 -15.671875 L 15.0625 0 L 10.25 0 Z M 10.25 -15.671875 "/></g></g><g style="fill:rgb(23.139954%,23.139954%,23.139954%);fill-opacity:1;"><g transform="translate(96.889055, 71.193686)"><path style="stroke:none;" d="M 15.140625 -52.46875 C 19.285156 -52.46875 22.367188 -51.367188 24.390625 -49.171875 C 26.421875 -46.972656 27.4375 -43.75 27.4375 -39.5 L 27.4375 -32.671875 C 27.4375 -28.429688 26.421875 -25.210938 24.390625 -23.015625 C 22.367188 -20.816406 19.285156 -19.71875 15.140625 -19.71875 L 11.25 -19.71875 L 11.25 0 L 3 0 L 3 -52.46875 Z M 11.25 -44.96875 L 11.25 -27.203125 L 15.140625 -27.203125 C 16.441406 -27.203125 17.441406 -27.550781 18.140625 -28.25 C 18.835938 -28.957031 19.1875 -30.257812 19.1875 -32.15625 L 19.1875 -40.03125 C 19.1875 -41.925781 18.835938 -43.222656 18.140625 -43.921875 C 17.441406 -44.617188 16.441406 -44.96875 15.140625 -44.96875 Z M 11.25 -44.96875 "/></g></g><g style="fill:rgb(23.139954%,23.139954%,23.139954%);fill-opacity:1;"><g transform="translate(121.697807, 71.193686)"><path style="stroke:none;" d="M 3 -52.46875 L 11.25 -52.46875 L 11.25 -7.5 L 24.8125 -7.5 L 24.8125 0 L 3 0 Z M 3 -52.46875 "/></g></g><g style="fill:rgb(23.139954%,23.139954%,23.139954%);fill-opacity:1;"><g transform="translate(143.658378, 71.193686)"><path style="stroke:none;" d="M 29.6875 0 L 21.359375 0 L 19.9375 -9.515625 L 9.8125 -9.515625 L 8.390625 0 L 0.828125 0 L 9.21875 -52.46875 L 21.28125 -52.46875 Z M 10.875 -16.640625 L 18.8125 -16.640625 L 14.84375 -43.171875 Z M 10.875 -16.640625 "/></g></g><g style="fill:rgb(23.139954%,23.139954%,23.139954%);fill-opacity:1;"><g transform="translate(170.715695, 71.193686)"><path style="stroke:none;" d="M 10.34375 -38 L 10.34375 0 L 2.921875 0 L 2.921875 -52.46875 L 13.265625 -52.46875 L 21.734375 -21.0625 L 21.734375 -52.46875 L 29.078125 -52.46875 L 29.078125 0 L 20.609375 0 Z M 10.34375 -38 "/></g></g><g style="fill:rgb(23.139954%,23.139954%,23.139954%);fill-opacity:1;"><g transform="translate(199.272057, 71.193686)"><path style="stroke:none;" d="M 11.25 -30.359375 L 22.5625 -30.359375 L 22.5625 -22.859375 L 11.25 -22.859375 L 11.25 -7.5 L 25.484375 -7.5 L 25.484375 0 L 3 0 L 3 -52.46875 L 25.484375 -52.46875 L 25.484375 -44.96875 L 11.25 -44.96875 Z M 11.25 -30.359375 "/></g></g><g style="fill:rgb(23.139954%,23.139954%,23.139954%);fill-opacity:1;"><g transform="translate(223.406235, 71.193686)"><path style="stroke:none;" d="M 20.234375 0 C 20.140625 -0.351562 20.039062 -0.675781 19.9375 -0.96875 C 19.832031 -1.269531 19.742188 -1.644531 19.671875 -2.09375 C 19.597656 -2.539062 19.546875 -3.113281 19.515625 -3.8125 C 19.492188 -4.519531 19.484375 -5.398438 19.484375 -6.453125 L 19.484375 -14.6875 C 19.484375 -17.132812 19.054688 -18.859375 18.203125 -19.859375 C 17.359375 -20.859375 15.988281 -21.359375 14.09375 -21.359375 L 11.25 -21.359375 L 11.25 0 L 3 0 L 3 -52.46875 L 15.4375 -52.46875 C 19.738281 -52.46875 22.847656 -51.46875 24.765625 -49.46875 C 26.691406 -47.46875 27.65625 -44.445312 27.65625 -40.40625 L 27.65625 -36.28125 C 27.65625 -30.882812 25.859375 -27.335938 22.265625 -25.640625 C 24.359375 -24.785156 25.789062 -23.394531 26.5625 -21.46875 C 27.34375 -19.550781 27.734375 -17.21875 27.734375 -14.46875 L 27.734375 -6.375 C 27.734375 -5.070312 27.78125 -3.929688 27.875 -2.953125 C 27.976562 -1.984375 28.226562 -1 28.625 0 Z M 11.25 -44.96875 L 11.25 -28.859375 L 14.46875 -28.859375 C 16.019531 -28.859375 17.226562 -29.253906 18.09375 -30.046875 C 18.96875 -30.847656 19.40625 -32.300781 19.40625 -34.40625 L 19.40625 -39.578125 C 19.40625 -41.472656 19.066406 -42.84375 18.390625 -43.6875 C 17.722656 -44.539062 16.664062 -44.96875 15.21875 -44.96875 Z M 11.25 -44.96875 "/></g></g><path style="fill:none;stroke-width:1;stroke-linecap:butt;stroke-linejoin:miter;stroke:rgb(74.899292%,74.899292%,74.899292%);stroke-opacity:1;stroke-miterlimit:4;" d="M -0.000729392 -0.000115705 L 66.742339 -0.000115705 " transform="matrix(2.247541,0,0,2.170854,99.935233,76.586189)"/></g></svg>